<?xml version="1.0" encoding="UTF-8"?>
<svg width="31px" height="40px" viewBox="0 0 31 40" version="1.1" xmlns="http://www.w3.org/2000/svg" xmlns:xlink="http://www.w3.org/1999/xlink">
    <title>Family Recipes icon</title>
    <g id="Final-designs" stroke="none" stroke-width="1" fill="none" fill-rule="evenodd">
        <g id="01.Final-Home-page" transform="translate(-1293.000000, -1592.000000)" fill="#1C1C1A" fill-rule="nonzero">
            <g id="section-2" transform="translate(120.000000, 1120.000000)">
                <g id="Group-13" transform="translate(1168.000000, 470.000000)">
                    <g id="ic/chef" transform="translate(0.000000, 2.000000)">
                        <path d="M20.234375,0 C21.76125,0 23.1953906,0.702734375 24.1475,1.8596875 C24.6403125,1.66359375 25.1644531,1.5625 25.703125,1.5625 C28.0724219,1.5625 30,3.49007813 30,5.859375 C30,7.49304688 29.0715625,8.95476563 27.65625,9.67578125 L27.65625,9.67578125 L27.65625,16.796875 C27.65625,19.1130469 26.5895313,21.1845312 24.921875,22.5466406 L24.921875,22.5466406 L24.921875,24.21875 L26.484375,24.21875 C31.4383594,24.21875 35.46875,28.2491406 35.46875,33.203125 L35.46875,33.203125 L35.46875,38.828125 C35.46875,39.4753125 34.9440625,40 34.296875,40 L34.296875,40 L6.171875,40 C5.5246875,40 5,39.4753125 5,38.828125 L5,38.828125 L5,33.203125 C5,28.2491406 9.03039062,24.21875 13.984375,24.21875 L13.984375,24.21875 L15.546875,24.21875 L15.546875,22.5466406 C13.8792187,21.1845312 12.8125,19.1130469 12.8125,16.796875 L12.8125,16.796875 L12.8125,9.67578125 C11.3971875,8.95476563 10.46875,7.493125 10.46875,5.859375 C10.46875,3.49007813 12.3963281,1.5625 14.765625,1.5625 C15.3042969,1.5625 15.8284375,1.66359375 16.32125,1.8596875 C17.2733594,0.702734375 18.7075,0 20.234375,0 Z M15.6132031,26.5625 L13.984375,26.5625 C10.3227344,26.5625 7.34375,29.5414844 7.34375,33.203125 L7.34375,33.203125 L7.34375,37.65625 L10.46875,37.65625 L10.46875,34.765625 C10.46875,34.1184375 10.9934375,33.59375 11.640625,33.59375 C12.2878125,33.59375 12.8125,34.1184375 12.8125,34.765625 L12.8125,34.765625 L12.8125,37.65625 L21.40625,37.65625 L21.40625,30.3203906 C21.0315625,30.4171875 20.6389062,30.46875 20.234375,30.46875 C17.9159375,30.46875 15.9864062,28.7764844 15.6132031,26.5625 L15.6132031,26.5625 Z M26.484375,26.5625 L24.8555469,26.5625 C24.7075,27.4404688 24.3149219,28.2359375 23.75,28.8767969 L23.75,28.8767969 L23.75,37.65625 L27.65625,37.65625 L27.65625,34.765625 C27.65625,34.1184375 28.1809375,33.59375 28.828125,33.59375 C29.4753125,33.59375 30,34.1184375 30,34.765625 L30,34.765625 L30,37.65625 L33.125,37.65625 L33.125,33.203125 C33.125,29.5414844 30.1460156,26.5625 26.484375,26.5625 L26.484375,26.5625 Z M18.671875,32.8125 C19.3190837,32.8125 19.84375,33.3371663 19.84375,33.984375 C19.84375,34.6315837 19.3190837,35.15625 18.671875,35.15625 C18.0246663,35.15625 17.5,34.6315837 17.5,33.984375 C17.5,33.3371663 18.0246663,32.8125 18.671875,32.8125 Z M22.578125,23.8392188 C21.8410937,24.0851563 21.0530469,24.21875 20.234375,24.21875 C19.4157031,24.21875 18.6276563,24.0851563 17.890625,23.8392188 L17.890625,23.8392188 L17.890625,25.78125 C17.890625,27.0735937 18.9420313,28.125 20.234375,28.125 C21.5267187,28.125 22.578125,27.0735938 22.578125,25.78125 L22.578125,25.78125 Z M25.3125,13.28125 L15.15625,13.28125 L15.15625,16.796875 C15.15625,19.5969531 17.4342969,21.875 20.234375,21.875 C23.0344531,21.875 25.3125,19.5969531 25.3125,16.796875 L25.3125,16.796875 L25.3125,13.28125 Z M20.234375,2.34375 C19.1859375,2.34375 18.2173438,2.964375 17.7667969,3.925 C17.6144531,4.24992188 17.3214844,4.48710937 16.9719531,4.56859375 C16.6222656,4.64992187 16.2547656,4.56679687 15.974375,4.3428125 C15.7250781,4.14367187 15.3130469,3.90625 14.765625,3.90625 C13.6886719,3.90625 12.8125,4.78242188 12.8125,5.859375 C12.8125,6.7428125 13.4152344,7.5159375 14.2782031,7.73945312 C14.7951562,7.87335937 15.15625,8.33992188 15.15625,8.87390625 L15.15625,8.87390625 L15.15625,10.9375 L25.3125,10.9375 L25.3125,8.87390625 C25.3125,8.33984375 25.6735156,7.87335937 26.1904688,7.73945312 C27.0535156,7.5159375 27.65625,6.7428125 27.65625,5.859375 C27.65625,4.78242188 26.7800781,3.90625 25.703125,3.90625 C25.1557031,3.90625 24.7436719,4.14367188 24.494375,4.3428125 C24.2139844,4.566875 23.8464063,4.65007813 23.4967969,4.56859375 C23.1472656,4.48703125 22.8542969,4.24992188 22.701875,3.92492187 C22.2513281,2.964375 21.2828125,2.34375 20.234375,2.34375 Z" id="Combined-Shape"></path>
                    </g>
                </g>
            </g>
        </g>
    </g>
</svg>