<?xml version="1.0" encoding="UTF-8"?>
<svg width="100px" height="71px" viewBox="0 0 100 71" version="1.1" xmlns="http://www.w3.org/2000/svg" xmlns:xlink="http://www.w3.org/1999/xlink">
    <title>footer logo</title>
    <g id="Final-designs" stroke="none" stroke-width="1" fill="none" fill-rule="evenodd">
        <g id="01.Final-Home-page" transform="translate(-910.000000, -5021.000000)" fill="#000000" fill-rule="nonzero">
            <g id="footer" transform="translate(0.000000, 4900.000000)">
                <path d="M986.33552,161.77989 C987.403936,161.611193 990.524836,161.611193 991.658857,161.77989 C992.642924,161.929843 993.823805,162.285982 994.348641,162.59526 C995.098407,163.04512 995.716963,163.598072 996.28866,164.329094 C996.616682,164.760209 996.954077,165.106975 997.019681,165.106975 C997.216495,165.106975 997.253983,164.872674 997.253983,163.551212 L997.253983,162.295354 L1010,162.295354 L1010,164.891418 L1009.32521,164.94765 C1008.11621,165.041371 1007.55389,165.322533 1007.18838,166.044183 C1007.17823,166.063968 1007.16834,166.08366 1007.15872,166.103468 L1007.13062,166.163456 L1007.13062,166.163456 L1007.10405,166.225414 C1006.88891,166.753452 1006.82895,167.618585 1006.82373,172.119573 L1006.8237,173.582244 C1006.82474,174.739697 1006.82794,176.08909 1006.83224,177.665551 C1006.85742,186.008093 1006.86757,187.435888 1006.98383,187.925862 L1006.99582,187.971955 C1007.00199,187.99366 1007.00844,188.013518 1007.01518,188.032277 L1007.02905,188.06855 C1007.35708,188.893292 1007.90066,189.230687 1009.09091,189.343152 L1009.09091,189.343152 L1009.81256,189.408756 L1009.81256,191.911099 L991.911903,191.911099 L991.911903,189.38064 L992.689784,189.38064 C993.98313,189.38064 995.089035,189.211943 995.651359,188.940153 C996.082474,188.733967 996.185567,188.630874 996.401125,188.171643 C996.608392,187.715655 996.639641,187.633705 996.644093,186.148129 L996.644032,184.881357 C996.63687,182.974546 996.563482,183.028581 995.820056,183.729281 C994.835989,184.657116 994.020619,185.078859 992.492971,185.472486 C991.822868,185.644308 991.499271,185.674376 989.825743,185.678195 L989.334583,185.678672 C986.738519,185.6693 985.801312,185.538091 984.329897,184.975767 C981.574508,183.90735 980.028116,181.73303 979.334583,177.974829 C979.156514,177.009506 979.128397,176.522158 979.128397,174.151024 C979.128397,171.133217 979.23149,169.999197 979.718838,168.096666 C980.234302,166.053555 980.955951,164.703976 982.146204,163.5887 C983.177132,162.623377 984.423618,162.079796 986.33552,161.77989 Z M987,188 L987,191 L910,191 L910,188 L987,188 Z M924.592315,161.671661 C924.89356,161.672398 925.214888,161.67412 925.557638,161.676797 C928.491097,161.704914 929.165886,161.742402 930.262418,161.911099 C931.958763,162.173517 932.989691,162.473423 934.1612,163.054492 C936.419869,164.160396 937.563261,166.119159 937.713215,169.15571 L937.713215,169.15571 L937.769447,170.261615 L928.491097,170.261615 L928.425492,168.808944 C928.256795,164.835185 927.797563,164.057304 925.623243,164.057304 C924.470478,164.057304 923.955014,164.272861 923.598875,164.919534 C923.195876,165.631811 923.111528,166.231624 923.055295,168.621502 L923.055295,168.621502 L922.999063,170.880171 L923.223993,171.133217 C923.235338,171.146042 923.246449,171.15827 923.257856,171.170014 L923.29349,171.203909 C923.506427,171.389041 923.95748,171.467159 927.244611,171.995448 C934.442362,173.148213 936.044986,173.616816 937.469541,175.041371 C938.528585,176.091043 938.894096,177.187575 938.894096,179.352524 C938.894096,181.526844 938.481724,182.754586 937.37582,183.86049 C936.035614,185.200696 934.114339,185.725532 930.524836,185.725532 C926.897844,185.725532 925.445173,185.256929 923.758201,183.54184 C922.549203,182.32347 922.521087,182.332842 922.483599,183.832374 L922.483599,183.832374 L922.455483,184.975767 L910.281162,184.975767 L910.281162,182.473423 L911.068416,182.426563 C912.146204,182.351587 912.633552,182.117285 912.924086,181.526844 L912.924086,181.526844 L913.139644,181.086357 L913.195876,174.479047 C913.240059,169.081403 913.255312,167.861121 913.455299,166.967738 L913.483735,166.847578 C913.488672,166.827768 913.493709,166.808037 913.498849,166.788339 L913.530946,166.670189 C913.569881,166.53197 913.614105,166.390949 913.66448,166.231624 C913.88941,165.519347 914.470478,164.572767 915.014058,164.019815 C916.213683,162.810818 918.078725,162.107913 921.049672,161.770518 C921.628063,161.706253 922.549203,161.67463 924.016205,161.671505 Z M954.395501,157.140715 L954.507966,157.956085 C954.639175,158.902664 954.97657,159.980453 955.304592,160.495916 C955.576382,160.936404 956.185567,161.479984 956.644799,161.714286 C957.507029,162.154773 959.606373,162.576516 960.946579,162.576516 L960.946579,162.576516 L961.452671,162.576516 L961.452671,165.200696 L960.112465,165.200696 C959.100281,165.200696 958.725398,165.238184 958.584817,165.331905 C958.41612,165.463114 958.406748,165.678672 958.350515,172.717097 C958.303655,179.174454 958.284911,180.036685 958.134958,180.664614 C957.488285,183.438747 955.79194,184.872674 952.427366,185.509975 C951.302718,185.725532 946.438613,185.753648 945.332709,185.547463 C941.649485,184.882046 940.552952,183.260677 940.552952,178.509037 L940.552952,178.509037 L940.552952,177.196947 L943.617619,177.196947 L943.673852,178.855804 C943.730084,180.814567 943.908154,181.545588 944.414246,182.042308 C944.835989,182.454679 945.154639,182.5484 946.06373,182.557772 C947.338332,182.557772 947.825679,182.145401 948.041237,180.898916 C948.103295,180.544297 948.140195,178.042796 948.144003,173.672066 L948.14433,165.49123 L947.938144,165.350649 C947.760075,165.21944 947.282099,165.200696 944.611059,165.200696 L941.490159,165.200696 L941.490159,162.295354 L945.133017,162.295056 C947.346601,162.292234 947.772356,162.267561 947.938144,162.145401 C948.123,162.019363 948.142123,161.983724 948.144102,160.289198 L948.144561,159.429833 C948.147315,158.218503 948.174419,157.232956 948.209934,157.206319 C948.238051,157.168831 949.643861,157.140715 951.330834,157.140715 L951.330834,157.140715 L954.395501,157.140715 Z M977.853796,162.173517 L977.853796,164.703976 L977.179007,164.769581 C975.74508,164.919534 974.910965,165.472486 974.601687,166.494042 C974.598681,166.503237 974.595728,166.512473 974.592828,166.521784 L974.568115,166.608643 C974.466942,167.002533 974.44122,167.679458 974.434935,170.805277 L974.434114,171.305785 C974.434,171.39252 974.433897,171.480939 974.433804,171.571077 L974.433001,173.387166 L974.433001,173.387166 L974.43299,173.729281 C974.43299,173.978578 974.43299,174.219513 974.433012,174.45239 L974.433942,176.05262 C974.44061,180.817477 974.493948,181.201147 974.92066,181.670244 L974.974798,181.728415 C974.993481,181.74815 975.012808,181.768331 975.032802,181.789262 C975.426429,182.201633 975.820056,182.342214 976.850984,182.417191 L976.850984,182.417191 L977.572634,182.473423 L977.572634,184.975767 L961.077788,184.975767 L961.077788,182.473423 L961.874414,182.417191 C963.130272,182.32347 963.805061,181.920471 964.095595,181.058241 C964.097157,181.053381 964.098703,181.04785 964.100233,181.041628 L964.109226,180.995861 C964.18408,180.533868 964.218994,178.178412 964.245548,171.442496 L964.245548,171.442496 L964.273664,162.182889 L964.761012,162.239122 C967.469541,162.576516 972.867854,162.576516 977.085286,162.239122 L977.085286,162.239122 L977.853796,162.173517 Z M994.826617,166.100415 C994.198688,165.912974 992.605436,165.903602 992.033739,166.081671 C991.105904,166.372205 990.571696,166.943901 990.243674,168.012318 C989.868791,169.230687 989.803187,170.19601 989.812559,174.244745 L989.812559,174.244745 L989.812813,174.859192 C989.814982,177.184381 989.832637,177.958346 989.925085,178.620285 L989.94979,178.784269 L989.94979,178.784269 L989.977817,178.948582 C989.987736,179.003963 989.998243,179.060232 990.009372,179.118222 C990.243674,180.411568 990.506092,181.030125 991.021556,181.498728 C991.602624,182.032936 992.221181,182.192261 993.495783,182.145401 C995.276476,182.079796 996.026242,181.489356 996.476101,179.802383 C996.60731,179.296291 996.635426,178.518409 996.663543,174.525907 C996.671171,173.715768 996.676067,173.010191 996.677383,172.392519 L996.677034,171.645496 C996.668847,169.308134 996.588201,168.454223 996.36826,167.772494 L996.322395,167.638056 L996.322395,167.638056 L996.298032,167.57183 C996.035614,166.840809 995.482662,166.297229 994.826617,166.100415 Z M925.107779,173.954211 C923.430178,173.673049 923.345829,173.673049 923.158388,173.954211 C923.027179,174.160396 923.017807,174.535279 923.045923,176.887669 C923.074039,179.483733 923.083411,179.60557 923.298969,180.074173 C923.748828,181.076985 924.695408,181.629937 925.979381,181.639309 C926.972821,181.648681 927.300843,181.554961 927.750703,181.105101 C928.256795,180.599009 928.46298,179.896104 928.528585,178.471549 C928.612933,176.737716 928.331771,175.453742 927.741331,174.835185 C927.385192,174.460303 926.644799,174.216629 925.107779,173.954211 Z M966.822868,154.375954 C967.69447,154.188513 971.180881,154.188513 972.118088,154.385326 C974.001874,154.769581 974.948454,155.753648 975.107779,157.47811 C975.210872,158.61213 974.807873,159.830499 974.133083,160.430312 C973.673852,160.823939 972.961575,161.161334 972.193065,161.339403 C971.677601,161.451868 971.0403,161.489356 969.418932,161.479984 C967.563261,161.479984 967.225867,161.451868 966.56045,161.273798 C965.2015,160.908288 964.47985,160.308475 964.067479,159.202571 C963.795689,158.480921 963.842549,156.943901 964.151828,156.250368 C964.582943,155.313161 965.492034,154.666488 966.822868,154.375954 Z M928.275539,129.258803 C929.40956,129.071362 933.298969,129.127594 934.273664,129.352524 C935.923149,129.718035 936.935333,130.214754 937.891284,131.105101 C939.812559,132.904539 940.740394,135.884857 940.899719,140.69273 C941.030928,144.85393 940.346767,148.06855 938.903468,150.027313 C938.050609,151.198822 936.794752,152.079796 935.276476,152.585888 C933.805061,153.073236 933.102156,153.157585 930.618557,153.157585 L930.120846,153.156867 C928.505978,153.151561 928.174484,153.113984 927.507029,152.951399 C925.970009,152.557772 925.117151,152.107913 924.189316,151.217566 C923.880037,150.91766 923.645736,150.758334 923.533271,150.786451 C923.364574,150.814567 923.355201,150.945776 923.327085,152.642121 C923.270853,156.315973 923.570759,156.690856 926.757263,156.831437 L926.757263,156.831437 L928.088097,156.887669 L928.088097,159.390012 L910.187441,159.390012 L910.187441,156.887669 L910.824742,156.822065 C912.464855,156.672111 912.924086,156.222252 913.102156,154.610256 C913.143719,154.236188 913.169921,151.906245 913.173195,148.30919 L913.173128,146.642236 C913.17238,145.828005 913.170612,144.964357 913.16776,144.057304 L913.16776,144.057304 L913.139644,134.319722 L912.905342,133.766769 C912.764761,133.429375 912.549203,133.110724 912.343018,132.951399 C911.968135,132.651493 911.105904,132.398447 910.449859,132.398447 L910.449859,132.398447 L910,132.398447 L910,129.774267 L916.354264,129.793011 L922.699157,129.821127 L922.746017,131.180078 C922.802249,132.86705 922.867854,132.913911 923.626992,131.892355 C924.789128,130.355335 926.091846,129.614942 928.275539,129.258803 Z M993.036551,129.127594 C997.975633,128.968269 1001.42455,129.38064 1003.39269,130.355335 C1004.80787,131.067613 1005.75445,132.136029 1006.26992,133.616816 C1006.32732,133.781999 1006.37769,133.928291 1006.42203,134.071417 L1006.45857,134.193687 C1006.73361,135.15114 1006.74906,136.168363 1006.80412,142.00482 C1006.85433,147.820525 1006.85971,148.480993 1007.00705,148.875961 L1007.02542,148.922396 L1007.02542,148.922396 L1007.05569,148.991376 L1007.05569,148.991376 L1007.06654,149.015129 C1007.32896,149.586826 1007.80694,149.821127 1008.90347,149.905476 L1008.90347,149.905476 L1009.67198,149.97108 L1009.70009,151.208194 L1009.72821,152.454679 L997.535145,152.454679 L997.535145,151.433124 C997.535145,150.317847 997.497657,150.111662 997.272727,150.111662 C997.197751,150.111662 996.747891,150.505289 996.279288,150.973892 L996.080053,151.173048 C994.895778,152.32926 993.894342,152.7975 992.12746,153.063864 C991.0403,153.232561 988.116214,153.251305 986.944705,153.101352 C983.720712,152.707725 981.958763,151.423752 981.302718,149.015129 C981.0403,148.040434 981.012184,145.809881 981.255858,144.816441 C981.743205,142.848306 982.933458,141.714286 985.379569,140.91766 C986.532334,140.542777 988.706654,140.111662 992.989691,139.4275 C995.960637,138.958897 996.579194,138.827688 996.738519,138.668363 C996.916589,138.490293 996.925961,138.368456 996.916589,136.25974 C996.897844,132.623377 996.56045,131.808006 994.985942,131.554961 C994.273664,131.442496 993.317713,131.545588 992.867854,131.77989 C992.024367,132.220378 991.668229,133.401259 991.565136,136.16602 L991.565136,136.16602 L991.508903,137.740528 L982.230553,137.740528 L982.286785,136.587763 C982.417994,133.682421 983.552015,131.695542 985.679475,130.599009 C987.525773,129.65243 989.568885,129.249431 993.036551,129.127594 Z M971.752577,124.619628 L971.780694,127.000134 C971.80881,129.183826 971.827554,129.399384 971.986879,129.577453 C972.143364,129.750411 972.212996,129.771375 974.339247,129.773916 L978.509841,129.774267 L978.509841,132.679609 L974.859295,132.679755 C972.4121,132.681403 972.227038,132.699525 972.033739,132.857678 L972.033739,132.857678 L971.80881,133.035748 L971.780694,139.586826 C971.777734,140.377039 971.775709,141.098299 971.774914,141.757296 L971.77468,142.699929 C971.778746,147.48717 971.870961,148.503611 972.202437,149.174454 C972.549203,149.849244 972.905342,150.036685 973.898782,150.036685 C975.510778,150.036685 976.082474,149.408756 976.260544,147.459365 C976.307404,146.934529 976.344892,146.091043 976.354264,145.584951 L976.354264,145.584951 L976.354264,144.67586 L979.475164,144.67586 L979.418932,146.475298 C979.362699,148.56527 979.203374,149.474361 978.744142,150.4678 C978.003749,152.032936 976.522962,152.838934 973.823805,153.120096 C972.408622,153.27005 968.603561,153.185701 967.516401,152.979515 C964.592315,152.426563 962.94283,151.245682 962.155576,149.136966 C962.096878,148.979285 962.044822,148.832205 961.998663,148.681874 L961.960526,148.5519 C961.691183,147.588177 961.646399,146.339641 961.640806,141.366184 L961.640112,133.138841 L961.405811,132.913911 C961.190253,132.688981 961.134021,132.679609 959.859419,132.679609 L958.547329,132.679609 L958.547329,130.055429 L958.969072,130.055429 C959.709466,130.055429 961.190253,129.867988 961.968135,129.680546 C964.236176,129.118222 965.173383,127.918597 965.529522,125.106975 L965.529522,125.106975 L965.595127,124.619628 L971.752577,124.619628 Z M955.726336,129.65243 L955.754452,138.968269 C955.782568,147.703039 955.79194,148.302852 955.951265,148.65899 C956.326148,149.483733 956.897844,149.811755 958.125586,149.896104 L958.125586,149.896104 L958.922212,149.952336 L958.922212,152.454679 L942.324274,152.454679 L942.35239,151.208194 L942.380506,149.97108 L943.092784,149.914848 C944.864105,149.764895 945.360825,149.286919 945.538894,147.57183 C945.572575,147.181132 945.596573,145.580027 945.600447,143.370542 L945.600014,141.849503 C945.59908,141.424191 945.59747,140.984436 945.595127,140.533405 C945.570384,135.576704 945.5529,134.575467 945.440484,134.112753 L945.424557,134.052673 C945.413533,134.014417 945.401687,133.979328 945.388941,133.944839 C945.014058,132.913911 944.367385,132.473423 942.94283,132.27661 L942.94283,132.27661 L942.146204,132.173517 L942.146204,129.65243 L942.924086,129.718035 C947.122774,130.055429 952.736645,130.055429 955.285848,129.718035 L955.285848,129.718035 L955.726336,129.65243 Z M927.985005,133.579328 C927.469541,133.420003 925.857545,133.382514 925.323336,133.513723 C924.43299,133.738653 923.870665,134.35721 923.514527,135.538091 C923.298969,136.250368 923.233365,145.613067 923.43955,146.793948 C923.795689,148.865176 924.695408,149.643058 926.729147,149.643058 C929.615745,149.643058 930.243674,148.190387 930.243674,141.583077 C930.243674,138.049806 930.04686,136.109787 929.568885,135.003883 C929.306467,134.385326 928.612933,133.757397 927.985005,133.579328 Z M996.860356,141.489356 C996.719775,141.217566 996.307404,141.161334 995.52015,141.311287 C992.961575,141.77989 992.614808,141.901727 992.118088,142.464051 C991.621368,143.026376 991.490159,143.654304 991.490159,145.472486 C991.490159,147.337528 991.621368,147.927969 992.155576,148.518409 C992.57732,148.977641 992.989691,149.118222 993.926898,149.118222 C995.332709,149.10885 996.28866,148.555898 996.701031,147.506226 C996.897844,147.009506 996.916589,146.812692 996.944705,144.347838 C996.951734,143.839403 996.955834,143.41766 996.956566,143.068257 L996.95616,142.742437 C996.951994,141.93505 996.922837,141.608069 996.860356,141.489356 Z M947.985005,121.817378 C948.837863,121.676797 952.427366,121.704914 953.139644,121.854867 C954.470478,122.136029 955.342081,122.726469 955.801312,123.663677 C956.044986,124.160396 956.06373,124.282233 956.06373,125.322533 C956.06373,126.681483 955.885661,127.178203 955.164011,127.852992 C954.639175,128.349712 954.170572,128.574642 953.242737,128.808944 C952.333646,129.033873 948.781631,129.033873 947.806935,128.818316 C946.438613,128.509037 945.435801,127.759272 945.098407,126.793948 C945.014058,126.550274 944.920337,126.034811 944.892221,125.650556 C944.742268,123.551212 945.848172,122.173517 947.985005,121.817378 Z" id="footer-logo"></path>
            </g>
        </g>
    </g>
</svg>