<?xml version="1.0" encoding="UTF-8"?>
<svg width="40px" height="39px" viewBox="0 0 40 39" version="1.1" xmlns="http://www.w3.org/2000/svg" xmlns:xlink="http://www.w3.org/1999/xlink">
    <title>Fresh Ingredients icon</title>
    <g id="Final-designs" stroke="none" stroke-width="1" fill="none" fill-rule="evenodd">
        <g id="01.Final-Home-page" transform="translate(-349.000000, -1593.000000)" fill="#1C1C1A" fill-rule="nonzero">
            <g id="section-2" transform="translate(120.000000, 1120.000000)">
                <g id="Group-14" transform="translate(229.000000, 470.000000)">
                    <g id="ic/chef-copy" transform="translate(0.000000, 2.000000)">
                        <path d="M36.1931071,20.6059154 L32.5977759,20.6059154 C33.9763615,16.5412007 33.9215798,12.3343145 32.2649988,8.84732928 C32.833685,7.15727057 32.4781257,5.2981712 31.2103208,4.03045325 C29.9604286,2.7805611 28.1079378,2.40430651 26.3951839,2.97829692 C24.5763447,2.11683306 22.5110749,1.66666667 20.3378938,1.66666667 C15.3684116,1.66666667 10.2368452,3.94784594 6.2589986,7.92569251 C0.392140117,13.792551 -1.5543491,21.9800664 1.29082075,28.0213567 C0.687787351,29.7100241 0.997521305,31.6191227 2.30958634,32.9312747 C3.60173866,34.223427 5.51214152,34.5619431 7.22306945,33.9501272 C9.03121315,34.7980261 11.0808311,35.2409752 13.2363603,35.2409752 C13.7280912,35.2409752 14.2213873,35.2177582 14.7150312,35.173672 C17.401595,37.7580636 21.0497949,39.3496022 25.0632061,39.3496022 C33.3244594,39.3496022 40,32.6317145 40,24.4128953 C40,22.3087565 38.2973328,20.6059154 36.1931071,20.6059154 Z M7.21663477,30.975916 C6.271781,31.8053804 4.93397727,31.8665098 4.15416421,31.0866098 C3.37443811,30.3068837 3.4352197,28.96908 4.26485801,28.0241393 C1.07673737,23.0268315 2.56288645,15.3108735 8.10348952,9.77018343 C11.709951,6.16372195 16.2376145,4.27523177 20.3377199,4.27523177 C22.5387266,4.27523177 24.6168658,4.81965746 26.3624018,5.9346823 C27.3033426,5.15365188 28.6021905,5.11147867 29.3657429,5.87503113 C30.1292954,6.63858358 30.0872091,7.93734449 29.3060917,8.87837224 C31.3610139,12.0951881 31.4771859,16.4398981 29.8210397,20.6059154 L13.9332182,20.6059154 C11.8292533,20.6057415 10.1262383,22.3086696 10.1264122,24.4129822 C10.1264122,27.4399751 11.0323971,30.2588845 12.5861972,32.6145843 C10.6292734,32.5172816 8.78799982,31.9783341 7.21663477,30.975916 Z M12.7350643,24.4127214 C12.7350643,23.7514281 13.271664,23.2144805 13.9332182,23.2145675 L21.6209158,23.2145675 L14.3423418,30.4932284 C13.3199241,28.6977802 12.7350643,26.6223366 12.7350643,24.4127214 Z M15.8878812,32.6367578 L23.7588801,24.765672 L23.7588801,36.6718209 C20.6449321,36.3427829 17.8733263,34.8495904 15.8878812,32.6367578 Z M26.3675321,36.6718209 L26.3675321,24.7658459 L34.238618,32.6370187 C32.1909131,34.9188067 29.394699,36.3520001 26.3675321,36.6718209 Z M35.7840704,30.4934024 L28.5053225,23.2145675 L36.1930201,23.2145675 C36.1930201,23.2145675 36.1930201,23.2145675 36.1930201,23.2145675 C36.8547482,23.2145675 37.391174,23.7509933 37.391174,24.4127214 C37.391174,26.6224236 36.8064012,28.6979541 35.7840704,30.4934024 Z" id="XMLID_928_"></path>
                    </g>
                </g>
            </g>
        </g>
    </g>
</svg>