<?xml version="1.0" encoding="UTF-8"?>
<svg fill="#08495D" width="100pt" height="100pt" version="1.1" viewBox="0 0 100 100" xmlns="http://www.w3.org/2000/svg">
 <path d="m50.043 0c-13.273 0-26 5.2734-35.387 14.656-9.3828 9.3867-14.656 22.113-14.656 35.387 0 27.176 22.785 49.938 49.965 49.957 13.277 0.015625 26.016-5.2539 35.402-14.641 9.3867-9.3867 14.656-22.125 14.641-35.402-0.03125-27.172-22.793-49.957-49.965-49.957zm9.4375 77.504c0 0.074219-0.027344 0.14453-0.082031 0.19922-0.050782 0.050781-0.125 0.082031-0.19922 0.082031h-18.398c-0.15625-0.003906-0.27734-0.12891-0.28125-0.28125v-8.5898c0.003907-0.15234 0.125-0.27734 0.28125-0.28125h2.7461l-0.003906-20.109h-2.7422c-0.15625-0.003907-0.28125-0.12891-0.28125-0.28516v-8.5859c0-0.15234 0.125-0.28125 0.28125-0.28516h14.02c0.074219 0 0.14453 0.03125 0.19922 0.082031 0.054688 0.054687 0.082031 0.12891 0.078125 0.20312v28.98h4.1016c0.074219 0 0.14844 0.03125 0.19922 0.082032 0.054687 0.054687 0.082031 0.125 0.082031 0.19922zm-10.16-55.289c2.8086 0 5.3438 1.6914 6.418 4.2891 1.0742 2.5938 0.48047 5.582-1.5078 7.5664-1.9844 1.9883-4.9727 2.582-7.5664 1.5078s-4.2891-3.6094-4.2891-6.418c0-3.8359 3.1094-6.9453 6.9453-6.9453z"/>
</svg>
