<?xml version="1.0" encoding="UTF-8"?>
<svg width="140px" height="100px" viewBox="0 0 140 100" version="1.1" xmlns="http://www.w3.org/2000/svg" xmlns:xlink="http://www.w3.org/1999/xlink">
    <title>logo</title>
    <g id="Final-designs" stroke="none" stroke-width="1" fill="none" fill-rule="evenodd">
        <g id="00.Slider-image" transform="translate(-877.000000, -135.000000)" fill="#000000">
            <g id="Header" transform="translate(290.000000, 25.000000)">
                <g id="PitaPita_LOGO_blk" transform="translate(587.000000, 0.000000)">
                    <path d="M23.7692807,204.878915 C24.3274624,204.878915 24.6701958,204.989992 24.9010725,205.1907 C25.3407852,205.570121 25.4377644,206.335562 25.4377644,207.011922 C25.4377644,207.628893 25.3330709,208.320099 24.8415625,208.676975 C24.6035226,208.84799 24.2156056,208.959616 23.716934,208.959616 C23.0314671,208.959616 22.7636721,208.773755 22.5774279,208.565898 C22.5322444,208.513659 22.4804487,208.528506 22.4804487,208.587894 L22.4804487,209.063545 C22.4804487,209.539196 22.6215094,209.56944 23.2843845,209.56944 L23.2843845,210 L20.275273,210 L20.275273,209.56944 C20.6477615,209.56944 20.7744957,209.486957 20.7744957,209.063545 L20.7744957,205.948993 C20.7744957,205.517882 20.603129,205.436499 20.2383548,205.436499 L20.2383548,205.004839 L22.3834694,205.004839 L22.3834694,205.406805 C22.3834694,205.473342 22.4281019,205.503035 22.4804487,205.428801 C22.6964479,205.116466 22.9344878,204.878915 23.7692807,204.878915 Z M62.3091607,204.03869 L62.3091607,207.896687 C62.3091607,208.320099 62.4358949,208.402032 62.8458526,208.402032 L62.8458526,208.833143 L60.700187,208.833143 L60.700187,208.446573 C60.700187,208.380037 60.6555545,208.349793 60.6037587,208.424578 C60.3877595,208.736913 60.1265768,208.959616 59.3149267,208.959616 C58.756194,208.959616 58.4140116,208.855688 58.1825839,208.662128 C57.7434222,208.305253 57.646443,207.562357 57.646443,206.92284 C57.646443,206.276175 57.7434222,205.562973 58.2349306,205.183552 C58.4806848,204.99769 58.8680508,204.878915 59.3672734,204.878915 C60.0521893,204.878915 60.3205353,205.071925 60.5067795,205.28748 C60.551412,205.339719 60.6037587,205.324872 60.6037587,205.265485 L60.6037587,204.975145 C60.6037587,204.514341 60.462147,204.4698 59.9111286,204.4698 L59.9111286,204.03869 L62.3091607,204.03869 Z M68.3207714,204.127771 L68.3207714,204.804131 C68.3207714,204.989992 68.3356489,205.004839 68.5670767,205.004839 L69.4531142,205.004839 L69.4531142,205.48049 L68.5670767,205.48049 C68.3356489,205.48049 68.3207714,205.495337 68.3207714,205.681198 L68.3207714,207.74052 C68.3207714,208.276109 68.3808324,208.424578 68.6712191,208.424578 C68.9169733,208.424578 69.0806258,208.349793 69.0806258,207.844448 L69.0806258,207.510118 L69.6018892,207.510118 L69.6018892,207.821903 C69.6018892,208.69952 69.3043393,208.959616 68.2166289,208.959616 C67.0247761,208.959616 66.6153695,208.573047 66.6153695,207.681132 L66.6153695,205.681198 C66.6153695,205.495337 66.600492,205.48049 66.3696153,205.48049 L66.0935551,205.48049 L66.0935551,205.04993 C67.0247761,205.012537 67.2110204,204.804131 67.2782446,204.127771 L68.3207714,204.127771 Z M103.414031,204.878915 C104.948067,204.878915 105.402657,205.235791 105.402657,206.276175 L105.402657,207.896687 C105.402657,208.327798 105.469881,208.402032 105.887002,208.402032 L105.887002,208.833143 L103.84603,208.833143 L103.84603,208.483965 C103.84603,208.409731 103.771091,208.417429 103.741336,208.46142 C103.473541,208.803449 103.21291,208.959616 102.475647,208.959616 C101.439732,208.959616 101.082121,208.602741 101.082121,207.874142 C101.082121,207.004773 101.581344,206.870601 102.728564,206.68474 L103.615153,206.543969 C103.719295,206.529122 103.74905,206.49173 103.74905,206.39495 L103.74905,206.00838 C103.74905,205.399107 103.630031,205.28748 103.309889,205.28748 C102.959441,205.28748 102.840421,205.399107 102.840421,206.335562 L101.27608,206.335562 C101.27608,205.250638 101.812772,204.878915 103.414031,204.878915 Z M10.6671652,204.878915 C11.4716521,204.878915 11.9857522,205.004839 12.3058939,205.228093 C12.8795041,205.629509 12.9693201,206.365256 12.9693201,207.041615 L10.242881,207.041615 C10.1310243,207.041615 10.1089836,207.079008 10.1089836,207.168089 C10.1238611,207.814755 10.1833711,208.186477 10.2649218,208.320099 C10.361901,208.46142 10.4660435,208.543353 10.7492669,208.543353 C11.1812654,208.543353 11.3008364,208.380037 11.3008364,207.510118 L12.9616058,207.510118 C12.9616058,208.595592 12.4700974,208.959616 10.7415527,208.959616 C9.92990259,208.959616 9.43839417,208.84799 9.11053823,208.662128 C8.46254059,208.290406 8.32864312,207.577204 8.32864312,206.930538 C8.32864312,206.283873 8.46254059,205.540428 9.08794647,205.175853 C9.40863918,204.989992 9.89243334,204.878915 10.6671652,204.878915 Z M54.8004329,204.878915 C55.6049198,204.878915 56.11902,205.004839 56.4391617,205.228093 C57.0127718,205.629509 57.1025878,206.365256 57.1025878,207.041615 L54.3761488,207.041615 C54.264292,207.041615 54.2422513,207.079008 54.2422513,207.168089 C54.2571288,207.814755 54.3166388,208.186477 54.3981895,208.320099 C54.4951687,208.46142 54.5998622,208.543353 54.8825347,208.543353 C55.3145331,208.543353 55.4341041,208.380037 55.4341041,207.510118 L57.0948736,207.510118 C57.0948736,208.595592 56.6033651,208.959616 54.8753714,208.959616 C54.0631703,208.959616 53.5716619,208.84799 53.243806,208.662128 C52.5958083,208.290406 52.4619109,207.577204 52.4619109,206.930538 C52.4619109,206.283873 52.5958083,205.540428 53.2217652,205.175853 C53.5419069,204.989992 54.0262521,204.878915 54.8004329,204.878915 Z M17.7053232,204.878915 C19.3815212,204.878915 19.7093772,205.250638 19.7093772,205.897303 L18.2194234,205.897303 C18.2194234,205.428801 18.0629342,205.272633 17.6755682,205.272633 C17.2286923,205.272633 17.1168356,205.428801 17.1168356,205.703744 C17.1168356,206.023227 17.2209781,206.142002 17.727364,206.187093 L18.3307291,206.246481 C19.314297,206.343261 19.8653154,206.558816 19.8653154,207.54751 C19.8653154,208.676975 19.1429302,208.959616 17.638099,208.959616 C15.9844928,208.959616 15.4858211,208.65498 15.4858211,207.821903 L17.0424481,207.821903 C17.0424481,208.476267 17.2435698,208.565898 17.7053232,208.565898 C18.2194234,208.565898 18.3384434,208.454272 18.3384434,208.112243 C18.3384434,207.755367 18.2414641,207.606898 17.6606907,207.54751 L17.0722031,207.487573 C16.0665945,207.383644 15.6048411,207.101553 15.6048411,206.224485 C15.6048411,205.183552 16.2974712,204.878915 17.7053232,204.878915 Z M72.3283282,204.878915 C73.1328151,204.878915 73.6469153,205.004839 73.967057,205.228093 C74.5406671,205.629509 74.6299321,206.365256 74.6299321,207.041615 L71.9040441,207.041615 C71.7921873,207.041615 71.7695956,207.079008 71.7695956,207.168089 C71.7850241,207.814755 71.8445341,208.186477 71.9260848,208.320099 C72.0230641,208.46142 72.1272065,208.543353 72.41043,208.543353 C72.8424284,208.543353 72.9614484,208.380037 72.9614484,207.510118 L74.6227689,207.510118 C74.6227689,208.595592 74.1312605,208.959616 72.4032668,208.959616 C71.5910656,208.959616 71.0995572,208.84799 70.7717013,208.662128 C70.1237036,208.290406 69.9898062,207.577204 69.9898062,206.930538 C69.9898062,206.283873 70.1237036,205.540428 70.7491095,205.175853 C71.0698022,204.989992 71.5541474,204.878915 72.3283282,204.878915 Z M87.1898455,204.878915 C88.7238807,204.878915 89.1784709,205.235791 89.1784709,206.276175 L89.1784709,207.896687 C89.1784709,208.327798 89.2456952,208.402032 89.6622651,208.402032 L89.6622651,208.833143 L87.6212929,208.833143 L87.6212929,208.483965 C87.6212929,208.409731 87.5469054,208.417429 87.5171504,208.46142 C87.2493555,208.803449 86.9881728,208.959616 86.2509102,208.959616 C85.2155466,208.959616 84.8579356,208.602741 84.8579356,207.874142 C84.8579356,207.004773 85.3571583,206.870601 86.5043786,206.68474 L87.3909672,206.543969 C87.4951097,206.529122 87.5248647,206.49173 87.5248647,206.39495 L87.5248647,206.00838 C87.5248647,205.399107 87.4058447,205.28748 87.085703,205.28748 C86.7352553,205.28748 86.6156843,205.399107 86.6156843,206.335562 L85.0518941,206.335562 C85.0518941,205.250638 85.588035,204.878915 87.1898455,204.878915 Z M98.1766014,204.878915 C98.9810883,204.878915 99.4951884,205.004839 99.8153301,205.228093 C100.389491,205.629509 100.478205,206.365256 100.478205,207.041615 L97.7523172,207.041615 C97.6404605,207.041615 97.6178687,207.079008 97.6178687,207.168089 C97.6327462,207.814755 97.6928072,208.186477 97.774358,208.320099 C97.8713372,208.46142 97.9754797,208.543353 98.2587031,208.543353 C98.6907016,208.543353 98.8097215,208.380037 98.8097215,207.510118 L100.471042,207.510118 C100.471042,208.595592 99.9795336,208.959616 98.2515399,208.959616 C97.4393388,208.959616 96.9478304,208.84799 96.6199744,208.662128 C95.9719768,208.290406 95.8380793,207.577204 95.8380793,206.930538 C95.8380793,206.283873 95.9719768,205.540428 96.5973827,205.175853 C96.9180754,204.989992 97.4024205,204.878915 98.1766014,204.878915 Z M33.5272656,204.878915 C35.0618518,204.878915 35.515891,205.235791 35.515891,206.276175 L35.515891,207.896687 C35.515891,208.327798 35.5831152,208.402032 36.0002362,208.402032 L36.0002362,208.833143 L33.959264,208.833143 L33.959264,208.483965 C33.959264,208.409731 33.8848765,208.417429 33.8551215,208.46142 C33.5867756,208.803449 33.3261439,208.959616 32.5888812,208.959616 C31.5535177,208.959616 31.1959067,208.602741 31.1959067,207.874142 C31.1959067,207.004773 31.6951294,206.870601 32.8423497,206.68474 L33.7283873,206.543969 C33.8325298,206.529122 33.8628358,206.49173 33.8628358,206.39495 L33.8628358,206.00838 C33.8628358,205.399107 33.7432648,205.28748 33.4231231,205.28748 C33.0726754,205.28748 32.9536554,205.399107 32.9536554,206.335562 L31.3898652,206.335562 C31.3898652,205.250638 31.9260061,204.878915 33.5272656,204.878915 Z M28.2909377,204.878915 C29.0948736,204.878915 29.6089737,205.004839 29.9291154,205.228093 C30.5032766,205.629509 30.5925416,206.365256 30.5925416,207.041615 L27.8661025,207.041615 C27.7542458,207.041615 27.7322051,207.079008 27.7322051,207.168089 C27.7470826,207.814755 27.8065925,208.186477 27.8886943,208.320099 C27.9851225,208.46142 28.089265,208.543353 28.3724884,208.543353 C28.8044869,208.543353 28.9240579,208.380037 28.9240579,207.510118 L30.5848273,207.510118 C30.5848273,208.595592 30.0933189,208.959616 28.3653252,208.959616 C27.5536751,208.959616 27.0616157,208.84799 26.7337597,208.662128 C26.0857621,208.290406 25.9518646,207.577204 25.9518646,206.930538 C25.9518646,206.283873 26.0857621,205.540428 26.711719,205.175853 C27.0318607,204.989992 27.5162058,204.878915 28.2909377,204.878915 Z M109.790416,204.878915 C110.892453,204.878915 111.145921,205.250638 111.145921,206.187093 L111.145921,207.896687 C111.145921,208.327798 111.213146,208.402032 111.630267,208.402032 L111.630267,208.833143 L109.030562,208.833143 L109.030562,208.402032 C109.365581,208.402032 109.44052,208.305253 109.44052,207.881841 L109.44052,206.187093 C109.44052,205.763681 109.358418,205.621811 109.008521,205.621811 C108.590849,205.621811 108.464666,205.800523 108.464666,206.209089 L108.464666,207.881841 C108.464666,208.305253 108.516462,208.402032 108.874073,208.402032 L108.874073,208.833143 L106.25949,208.833143 L106.25949,208.402032 C106.63253,208.402032 106.758713,208.320099 106.758713,207.896687 L106.758713,205.948993 C106.758713,205.517882 106.587346,205.436499 106.222572,205.436499 L106.222572,205.004839 L108.367687,205.004839 L108.367687,205.406805 C108.367687,205.488188 108.420033,205.488188 108.464666,205.421652 C108.680665,205.09447 108.933583,204.878915 109.790416,204.878915 Z M93.5662304,204.878915 C94.6682672,204.878915 94.9217357,205.250638 94.9217357,206.187093 L94.9217357,207.896687 C94.9217357,208.327798 94.9884089,208.402032 95.4060809,208.402032 L95.4060809,208.833143 L92.8063761,208.833143 L92.8063761,208.402032 C93.1413953,208.402032 93.2163338,208.305253 93.2163338,207.881841 L93.2163338,206.187093 C93.2163338,205.763681 93.133681,205.621811 92.7837843,205.621811 C92.3666634,205.621811 92.2399292,205.800523 92.2399292,206.209089 L92.2399292,207.881841 C92.2399292,208.305253 92.2922759,208.402032 92.6498868,208.402032 L92.6498868,208.833143 L90.0353045,208.833143 L90.0353045,208.402032 C90.407793,208.402032 90.5345272,208.320099 90.5345272,207.896687 L90.5345272,205.948993 C90.5345272,205.517882 90.3631605,205.436499 89.9983863,205.436499 L89.9983863,205.004839 L92.1435009,205.004839 L92.1435009,205.406805 C92.1435009,205.488188 92.1958477,205.488188 92.2399292,205.421652 C92.4559284,205.09447 92.7093968,204.878915 93.5662304,204.878915 Z M3.33751845,205.004839 L3.33751845,205.436499 C2.89009151,205.436499 2.72643904,205.458495 2.72643904,205.711442 C2.72643904,205.763681 2.74131654,205.882456 2.75619404,205.96384 L3.09892748,208.12709 C3.12096822,208.26841 3.21794746,208.276109 3.24770245,208.12709 L3.8361901,205.004839 L5.72067303,205.004839 L6.31687494,208.12709 C6.34662993,208.26841 6.43589491,208.276109 6.46564991,208.12709 L6.72628161,206.714983 C6.82326085,206.209089 6.8607301,205.934146 6.8607301,205.741136 C6.8607301,205.473342 6.71140411,205.436499 6.32403818,205.436499 L6.32403818,205.004839 L7.89554265,205.004839 L7.89554265,205.436499 C7.62058447,205.436499 7.44150349,205.495337 7.36711601,205.845064 L6.79350585,208.602741 C6.74887336,208.7963 6.69652662,208.833143 6.45848667,208.833143 L5.14706288,208.833143 C4.90902293,208.833143 4.84951294,208.788602 4.81204369,208.602741 L4.27590278,205.688897 C4.25331103,205.570121 4.17892355,205.592667 4.15688281,205.696595 L3.61302765,208.602741 C3.5755584,208.788602 3.51604841,208.833143 3.27745744,208.833143 L1.86244219,208.833143 C1.62385123,208.833143 1.56434124,208.7963 1.52687199,208.602741 L0.983567844,205.837366 C0.916343599,205.488188 0.752691135,205.436499 0.49922267,205.436499 L0.49922267,205.004839 L3.33751845,205.004839 Z M110.584985,166.163118 C117.535531,166.163118 119.521401,168.144906 121.321027,170.746415 C121.754679,171.365586 122.127718,171.117588 122.127718,170.560553 L122.127718,167.216149 L140,167.216149 L140,170.808002 C136.958929,170.808002 135.531792,171.48931 135.531792,175.081163 L135.531792,201.029716 C135.531792,204.559432 136.586992,205.24129 139.689777,205.24129 L139.689777,208.833143 L114.618439,208.833143 L114.618439,205.24129 C120.141848,205.24129 121.321027,204.993291 121.321027,201.029716 L121.321027,197.06614 C121.321027,196.571243 120.886274,196.446969 120.514336,196.880279 C118.962669,198.614068 116.72884,200.163096 111.019187,200.163096 C106.861753,200.163096 103.634439,199.233789 101.648568,197.809586 C97.5528486,194.836904 96.6838926,189.077402 96.6838926,183.937621 C96.6838926,178.301843 97.4911345,171.92262 101.152101,168.764627 C103.076257,167.092425 105.930532,166.163118 110.584985,166.163118 Z M78.4071632,204.878915 C79.2259766,204.878915 79.5163633,205.109317 79.5163633,205.948993 L79.5163633,206.335562 L77.9305323,206.335562 L77.9305323,206.023227 C77.9305323,205.718591 77.8710223,205.644356 77.6996556,205.644356 C77.4087179,205.644356 77.3194529,205.941844 77.3194529,206.313017 L77.3194529,207.881841 C77.3194529,208.357492 77.4461871,208.402032 78.131654,208.402032 L78.131654,208.833143 L75.1148283,208.833143 L75.1148283,208.402032 C75.4873167,208.402032 75.614051,208.320099 75.614051,207.896687 L75.614051,205.948993 C75.614051,205.517882 75.4426842,205.436499 75.077359,205.436499 L75.077359,205.004839 L77.2075962,205.004839 L77.2075962,205.443648 C77.2075962,205.525581 77.2676572,205.532729 77.3045754,205.458495 C77.4985339,205.116466 77.7145331,204.878915 78.4071632,204.878915 Z M83.2192069,204.878915 C84.0385713,204.878915 84.328958,205.109317 84.328958,205.948993 L84.328958,206.335562 L82.742576,206.335562 L82.742576,206.023227 C82.742576,205.718591 82.683066,205.644356 82.5116993,205.644356 C82.2213126,205.644356 82.1314966,205.941844 82.1314966,206.313017 L82.1314966,207.881841 C82.1314966,208.357492 82.2582308,208.402032 82.9436977,208.402032 L82.9436977,208.833143 L79.926872,208.833143 L79.926872,208.402032 C80.2993604,208.402032 80.4260947,208.320099 80.4260947,207.896687 L80.4260947,205.948993 C80.4260947,205.517882 80.2547279,205.436499 79.8899538,205.436499 L79.8899538,205.004839 L82.0196399,205.004839 L82.0196399,205.443648 C82.0196399,205.525581 82.0797009,205.532729 82.1166191,205.458495 C82.3100266,205.116466 82.5265768,204.878915 83.2192069,204.878915 Z M65.4086392,204.975145 L65.4086392,207.896687 C65.4086392,208.320099 65.5348224,208.402032 65.9447801,208.402032 L65.9447801,208.833143 L63.1659943,208.833143 L63.1659943,208.402032 C63.5687887,208.402032 63.7026862,208.320099 63.7026862,207.896687 L63.7026862,205.970988 C63.7026862,205.540428 63.546197,205.421652 63.1290761,205.406805 L63.1290761,204.975145 C63.4194628,205.004839 63.8365837,205.035083 64.4548263,205.035083 C64.8421923,205.035083 65.1849257,205.012537 65.4086392,204.975145 Z M50.2264292,204.878915 C51.3141395,204.878915 51.5450162,205.250638 51.5450162,206.187093 L51.5450162,207.896687 C51.5450162,208.327798 51.6122405,208.402032 52.0293614,208.402032 L52.0293614,208.833143 L49.4968808,208.833143 L49.4968808,208.402032 C49.7349208,208.402032 49.8396143,208.305253 49.8396143,207.881841 L49.8396143,206.187093 C49.8396143,205.763681 49.7795533,205.621811 49.4594116,205.621811 C49.1243924,205.621811 48.9679032,205.837366 48.9679032,206.209089 L48.9679032,207.881841 C48.9679032,208.305253 49.0422907,208.402032 49.3029224,208.402032 L49.3029224,208.833143 L46.9192168,208.833143 L46.9192168,208.402032 C47.1578077,208.402032 47.2619502,208.305253 47.2619502,207.881841 L47.2619502,206.187093 C47.2619502,205.763681 47.2024402,205.621811 46.8822985,205.621811 C46.5467283,205.621811 46.3907901,205.837366 46.3907901,206.209089 L46.3907901,207.881841 C46.3907901,208.305253 46.4651776,208.402032 46.7258093,208.402032 L46.7258093,208.833143 L44.1856145,208.833143 L44.1856145,208.402032 C44.5581029,208.402032 44.6848372,208.320099 44.6848372,207.896687 L44.6848372,205.948993 C44.6848372,205.517882 44.5134704,205.436499 44.1486963,205.436499 L44.1486963,205.004839 L46.2938109,205.004839 L46.2938109,205.413954 C46.2938109,205.495337 46.3461576,205.495337 46.3907901,205.428801 C46.5913608,205.09447 46.926931,204.878915 47.6493161,204.878915 C48.364538,204.878915 48.6698022,205.071925 48.8340057,205.436499 C48.8709239,205.525581 48.9083932,205.503035 48.9453114,205.436499 C49.1613106,205.071925 49.4742891,204.878915 50.2264292,204.878915 Z M38.5553085,204.03869 L38.5553085,206.558816 C38.5553085,206.63305 38.600492,206.662744 38.6671652,206.610505 L39.4567746,206.038624 C39.7471613,205.830217 39.8143855,205.741136 39.8143855,205.629509 C39.8143855,205.465643 39.6281413,205.436499 39.2110204,205.436499 L39.2110204,205.004839 L41.5126242,205.004839 L41.5126242,205.436499 C41.1924825,205.436499 41.0883401,205.465643 40.6039949,205.81537 L40.2166289,206.090313 C40.1494047,206.142002 40.1345272,206.20194 40.186874,206.291021 L41.20736,208.008314 C41.4233592,208.372339 41.6024402,208.402032 41.8630719,208.402032 L41.8630719,208.833143 L39.0842861,208.833143 L39.0842861,208.402032 C39.3972646,208.402032 39.4716521,208.305253 39.2859589,207.93408 L38.8760012,207.086706 C38.8385319,207.011922 38.7790219,207.01962 38.719512,207.064161 L38.6451245,207.1164 C38.570737,207.168089 38.5553085,207.228027 38.5553085,207.324257 L38.5553085,207.881841 C38.5553085,208.305253 38.600492,208.402032 38.8980419,208.402032 L38.8980419,208.833143 L36.3506839,208.833143 L36.3506839,208.402032 C36.7529273,208.402032 36.8868248,208.320099 36.8868248,207.896687 L36.8868248,204.982844 C36.8868248,204.551733 36.7160091,204.4698 36.3881531,204.4698 L36.3881531,204.03869 L38.5553085,204.03869 Z M23.0088753,205.607514 C22.6589786,205.607514 22.4804487,205.755983 22.4804487,206.327864 L22.4804487,207.606898 C22.4804487,208.231018 22.7184886,208.357492 23.0463446,208.357492 C23.3069763,208.357492 23.4116698,208.290406 23.4932205,208.17163 C23.5901997,208.038008 23.6497097,207.688281 23.6497097,206.982228 C23.6497097,206.276175 23.5901997,205.926997 23.4860573,205.792825 C23.3962413,205.67405 23.2843845,205.607514 23.0088753,205.607514 Z M87.3909672,206.930538 L87.0702745,206.982228 C86.7203778,207.041615 86.6013579,207.138395 86.6013579,207.651439 C86.6013579,208.112243 86.7055003,208.26841 87.0107645,208.26841 C87.3309062,208.26841 87.5248647,208.105094 87.5248647,207.763065 L87.5248647,207.041615 C87.5248647,206.952534 87.502273,206.915692 87.3909672,206.930538 Z M33.7283873,206.930538 L33.4082456,206.982228 C33.0577979,207.041615 32.9387779,207.138395 32.9387779,207.651439 C32.9387779,208.112243 33.0434714,208.26841 33.3487356,208.26841 C33.6688773,208.26841 33.8628358,208.105094 33.8628358,207.763065 L33.8628358,207.041615 C33.8628358,206.952534 33.840244,206.915692 33.7283873,206.930538 Z M103.615153,206.930538 L103.29446,206.982228 C102.944564,207.041615 102.825544,207.138395 102.825544,207.651439 C102.825544,208.112243 102.929686,208.26841 103.23495,208.26841 C103.555092,208.26841 103.74905,208.105094 103.74905,207.763065 L103.74905,207.041615 C103.74905,206.952534 103.726459,206.915692 103.615153,206.930538 Z M60.0373118,205.488188 C59.7766801,205.488188 59.6725376,205.562973 59.5904359,205.681198 C59.5011709,205.81537 59.4339467,206.156849 59.4339467,206.870601 C59.4339467,207.569506 59.4862934,207.896687 59.5832727,208.038008 C59.6725376,208.163932 59.7992719,208.223869 60.0747811,208.223869 C60.4252288,208.223869 60.6037587,208.105094 60.6037587,207.532663 L60.6037587,206.239332 C60.6037587,205.614662 60.3651678,205.488188 60.0373118,205.488188 Z M72.3283282,205.280332 C72.082574,205.280332 71.9784316,205.361715 71.9040441,205.495337 C71.8368198,205.629509 71.7773098,205.948993 71.7695956,206.551117 C71.7695956,206.647897 71.7999016,206.662744 71.9112073,206.662744 L72.7382859,206.662744 C72.8424284,206.662744 72.8721834,206.625352 72.8721834,206.53627 C72.8721834,205.970988 72.7829184,205.599815 72.7382859,205.488188 C72.6936534,205.391958 72.5966742,205.280332 72.3283282,205.280332 Z M98.1766014,205.280332 C97.9308472,205.280332 97.8267047,205.361715 97.7523172,205.495337 C97.685093,205.629509 97.625583,205.948993 97.6178687,206.551117 C97.6178687,206.647897 97.6476237,206.662744 97.7594805,206.662744 L98.5865591,206.662744 C98.6907016,206.662744 98.7210076,206.625352 98.7210076,206.53627 C98.7210076,205.970988 98.6311916,205.599815 98.5865591,205.488188 C98.5419266,205.391958 98.4449474,205.280332 98.1766014,205.280332 Z M54.8004329,205.280332 C54.5546787,205.280332 54.4505363,205.361715 54.3761488,205.495337 C54.3089245,205.629509 54.2494145,205.948993 54.2422513,206.551117 C54.2422513,206.647897 54.2720063,206.662744 54.383863,206.662744 L55.2103906,206.662744 C55.3145331,206.662744 55.3442881,206.625352 55.3442881,206.53627 C55.3442881,205.970988 55.2550231,205.599815 55.2103906,205.488188 C55.1657581,205.391958 55.0687789,205.280332 54.8004329,205.280332 Z M28.2909377,205.280332 C28.0451835,205.280332 27.94049,205.361715 27.8661025,205.495337 C27.7994293,205.629509 27.7393683,205.948993 27.7322051,206.551117 C27.7322051,206.647897 27.7619601,206.662744 27.8738168,206.662744 L28.7003444,206.662744 C28.8044869,206.662744 28.8342419,206.625352 28.8342419,206.53627 C28.8342419,205.970988 28.7449769,205.599815 28.7003444,205.488188 C28.6557119,205.391958 28.5587327,205.280332 28.2909377,205.280332 Z M10.6671652,205.280332 C10.421411,205.280332 10.3172685,205.361715 10.242881,205.495337 C10.1756568,205.629509 10.1161468,205.948993 10.1089836,206.551117 C10.1089836,206.647897 10.1387386,206.662744 10.2500443,206.662744 L11.0771229,206.662744 C11.1812654,206.662744 11.2110204,206.625352 11.2110204,206.53627 C11.2110204,205.970988 11.1217554,205.599815 11.0771229,205.488188 C11.0324904,205.391958 10.9355112,205.280332 10.6671652,205.280332 Z M64.6487848,203.629575 C65.1402932,203.629575 65.4753124,203.778594 65.4753124,204.247097 C65.4753124,204.715049 65.1402932,204.864068 64.6487848,204.864068 L64.4101938,204.864068 C63.9186854,204.864068 63.5831152,204.715049 63.5831152,204.247097 C63.5831152,203.778594 63.9186854,203.629575 64.4101938,203.629575 L64.6487848,203.629575 Z M62.1807734,159.908719 C62.7395061,165.543947 64.2906228,167.278286 72.0478599,167.587872 L72.0478599,171.179725 L69.7517662,171.179725 C67.8917485,171.179725 67.7144112,171.295338 67.7046554,172.701283 L67.7041818,189.510712 C67.7041818,196.942416 64.2906228,200.163096 54.3612713,200.163096 C45.3014267,200.163096 42.8190889,197.995447 42.8190889,190.687467 L42.8190889,188.086508 L47.1627669,188.086508 L47.1627669,190.873878 C47.1627669,195.084352 48.5281905,195.704074 50.5757749,195.704074 C52.9963987,195.704074 53.4923153,194.465181 53.4923153,190.006159 L53.4923153,172.851377 C53.4923153,171.303449 53.3683361,171.179725 51.4452819,171.179725 L44.0599823,171.179725 L44.0599823,167.216149 L51.4452819,167.216149 C53.3683361,167.216149 53.4923153,167.092425 53.4923153,165.543947 L53.4923153,159.908719 L62.1807734,159.908719 Z M21.0995966,166.163118 C34.4414051,166.163118 38.9101643,169.260074 38.9101643,178.301843 L25.8774771,178.301843 C25.8774771,170.498416 24.884542,169.56966 21.9680016,169.56966 C19.2999705,169.56966 18.3070353,170.498416 18.3070353,175.57716 L18.3070353,178.79674 C18.3070353,179.601773 18.5549936,179.911908 19.4239496,180.035633 L26.8086982,181.212388 C36.3655613,182.760316 40.5235462,183.875484 40.5235462,191.120777 C40.5235462,197.190414 37.5447407,200.163096 28.9185477,200.163096 C22.7746925,200.163096 20.603129,198.862067 18.3687494,196.013659 C18.1202401,195.642486 17.5003444,195.580349 17.5003444,196.19952 L17.5003444,199.110065 L0.49591656,199.110065 L0.49591656,195.518212 C3.89617923,195.518212 4.50427465,194.925143 4.52910665,191.5367 L4.52992227,177.806396 C4.52992227,169.1358 8.31541868,166.163118 21.0995966,166.163118 Z M94.9470826,166.968151 L94.9470826,170.560553 C91.4718095,170.684278 90.168651,171.675172 90.168651,175.267024 L90.168651,191.306638 C90.168651,194.836904 91.2855653,195.518212 94.6368592,195.518212 L94.6368592,199.110065 L71.4896782,199.110065 L71.4896782,195.518212 C74.9021352,195.518212 75.9573354,194.836904 75.9573354,191.306638 L75.9573354,166.968151 C77.8192266,167.278286 80.6735019,167.464147 83.9008167,167.464147 C89.0511857,167.464147 92.5270097,167.216149 94.9470826,166.968151 Z M116.914533,172.232756 C114.618439,172.232756 113.687769,172.78979 112.942792,173.780684 C112.073836,174.895302 111.57792,177.806396 111.57792,183.689623 C111.57792,189.572849 112.073836,192.483393 112.881078,193.598561 C113.56379,194.589455 114.432195,195.14649 116.60431,195.14649 C119.335157,195.14649 121.321027,194.093459 121.321027,188.89209 L121.321027,178.239706 C121.321027,173.471098 119.831074,172.232756 116.914533,172.232756 Z M18.3070353,184.18507 L18.3070353,190.19202 C18.3070353,193.040977 19.9198662,194.403594 22.5889993,194.403594 C25.1330513,194.403594 26.0020073,193.102565 26.0020073,189.263263 C26.0020073,184.990102 25.0090721,184.18507 22.0919807,183.689623 L19.4239496,183.255763 C18.4932795,183.132588 18.3070353,183.441624 18.3070353,184.18507 Z M84.2727541,155.759282 C88.3690249,155.759282 91.1615861,156.997624 91.1615861,160.899613 C91.1615861,164.801051 88.3690249,166.039394 84.2727541,166.039394 L82.2868838,166.039394 C78.191715,166.039394 75.3991538,164.801051 75.3991538,160.899613 C75.3991538,156.997624 78.191715,155.759282 82.2868838,155.759282 L84.2727541,155.759282 Z M29.4150153,120.403836 C34.0700187,120.403836 36.923743,121.333143 38.8478992,123.004795 C42.5088655,126.163338 43.3161074,132.542011 43.3161074,138.178339 C43.3161074,143.31812 42.4471514,149.077622 38.3508806,152.050304 C36.3650103,153.474507 33.1382466,154.403814 28.9802617,154.403814 C23.2717111,154.403814 21.0367805,152.854786 19.4862147,151.120997 C19.1137263,150.687687 18.6789727,150.811411 18.6789727,151.306858 L18.6789727,155.270434 C18.6789727,159.234009 19.8581521,159.481458 25.3821116,159.481458 L25.3821116,163.073861 L0.310774378,163.073861 L0.310774378,159.481458 C3.41300797,159.481458 4.46820821,158.80015 4.46820821,155.270434 L4.46820821,129.321881 C4.46820821,125.730028 3.04107055,125.04872 0,125.04872 L0,121.456867 L17.8722818,121.456867 L17.8722818,124.801271 C17.8722818,125.358305 18.2447702,125.606304 18.6789727,124.986583 C20.4785988,122.385624 22.4644692,120.403836 29.4150153,120.403836 Z M86.5076847,114.149437 L86.5076847,119.784665 C86.5076847,121.281527 86.6230215,121.447036 88.3687938,121.456406 L95.9400177,121.456867 L95.9400177,125.420443 L88.5552691,125.420443 C86.6311129,125.420443 86.5076847,125.544167 86.5076847,127.092095 L86.5076847,144.246877 C86.5076847,148.705899 87.0030503,149.944242 89.4242251,149.944242 C91.4718095,149.944242 92.8372331,149.32507 92.8372331,145.114046 L92.8372331,142.327226 L97.1814622,142.327226 L97.1814622,144.928185 C97.1814622,152.236165 94.6985733,154.403814 85.6387287,154.403814 C75.7093772,154.403814 72.2963692,151.183134 72.2963692,143.75143 L72.2963692,127.092095 C72.2963692,125.595764 72.1800027,125.430273 70.4341617,125.420903 L67.9521401,125.420443 L67.9521401,121.82859 C75.7093772,121.519004 77.2604939,119.784665 77.8186756,114.149437 L86.5076847,114.149437 Z M118.899852,120.403836 C131.68403,120.403836 135.469527,123.376518 135.469527,132.047114 L135.469527,145.547356 C135.469527,149.139209 136.027708,149.75838 139.504083,149.75838 L139.504083,153.350783 L122.499656,153.350783 L122.499656,150.440238 C122.499656,149.820517 121.879209,149.882654 121.631251,150.254377 C119.396871,153.102785 117.224756,154.403814 111.080901,154.403814 C102.454708,154.403814 99.4770048,151.431132 99.4770048,145.361495 C99.4770048,138.116202 103.634439,137.001034 113.191302,135.452556 L120.576601,134.276351 C121.445557,134.152626 121.692965,133.842491 121.692965,133.037458 L121.692965,129.817328 C121.692965,124.739134 120.699479,123.810377 118.031998,123.810377 C115.115458,123.810377 114.121972,124.739134 114.121972,132.542011 L101.090387,132.542011 C101.090387,123.500792 105.558595,120.403836 118.899852,120.403836 Z M64.0421135,121.208869 L64.0421135,145.547356 C64.0421135,149.077622 65.0973138,149.75838 68.5108728,149.75838 L68.5108728,153.350783 L45.3636918,153.350783 L45.3636918,149.75838 C48.7138837,149.75838 49.830798,149.077622 49.830798,145.547356 L49.830798,129.507742 C49.830798,125.91534 48.5281905,124.924446 45.0529174,124.801271 L45.0529174,121.208869 C47.4729903,121.456867 50.9488143,121.704865 56.0991833,121.704865 C59.3259471,121.704865 62.1807734,121.519004 64.0421135,121.208869 Z M23.0854669,126.473474 C20.1689265,126.473474 18.6789727,127.711266 18.6789727,132.480424 L18.6789727,143.132258 C18.6789727,148.334176 20.6648431,149.387207 23.3962413,149.387207 C25.5678048,149.387207 26.4362098,148.829623 27.1189216,147.83873 C27.9261635,146.724111 28.4215291,143.813567 28.4215291,137.93034 C28.4215291,132.047114 27.9261635,129.13602 27.0572075,128.021402 C26.3127817,127.030508 25.3821116,126.473474 23.0854669,126.473474 Z M120.576601,137.496481 L117.907468,137.93034 C114.990928,138.425238 113.997442,139.23027 113.997442,143.503981 C113.997442,147.343283 114.866398,148.644312 117.411001,148.644312 C120.079583,148.644312 121.692965,147.281695 121.692965,144.432738 L121.692965,138.425238 C121.692965,137.682342 121.507271,137.372756 120.576601,137.496481 Z M57.7125652,110 C61.808836,110 64.6008462,111.238342 64.6008462,115.140331 C64.6008462,119.041769 61.808836,120.280112 57.7125652,120.280112 L55.7266949,120.280112 C51.6304241,120.280112 48.8384139,119.041769 48.8384139,115.140331 C48.8384139,111.238342 51.6304241,110 55.7266949,110 L57.7125652,110 Z" id="logo"></path>
                </g>
            </g>
        </g>
    </g>
</svg>