<?xml version="1.0" encoding="UTF-8"?>
<svg width="40px" height="39px" viewBox="0 0 40 39" version="1.1" xmlns="http://www.w3.org/2000/svg" xmlns:xlink="http://www.w3.org/1999/xlink">
    <title>Made to Order icon</title>
    <g id="Final-designs" stroke="none" stroke-width="1" fill="none" fill-rule="evenodd">
        <g id="01.Final-Home-page" transform="translate(-834.000000, -1593.000000)" fill="#1C1C1A" fill-rule="nonzero">
            <g id="section-2" transform="translate(120.000000, 1120.000000)">
                <g id="Group-10" transform="translate(714.000000, 470.000000)">
                    <g id="ic/chef-copy-2" transform="translate(0.000000, 2.000000)">
                        <path d="M20,1.66666667 C8.9465332,1.66666667 0,10.6293742 0,21.5885417 L0,37.9947917 C0,38.6420695 0.524597188,39.1666667 1.171875,39.1666667 L38.828125,39.1666667 C39.4754028,39.1666667 40,38.6420695 40,37.9947917 C40,37.0109049 40,22.1644084 40,21.5885417 C40,10.5552165 30.9835816,1.66666667 20,1.66666667 Z M21.171875,6.39841714 L21.171875,4.05008948 C24.569397,4.27286784 27.7072144,5.45633948 30.3134155,7.32981362 L28.6080933,8.99607339 C26.4569092,7.53580729 23.9144898,6.60593667 21.171875,6.39841714 Z M18.828125,6.39872229 C16.0949707,6.60776776 13.5617066,7.54160565 11.4196777,9.00705971 L9.71893312,7.3063151 C12.3187256,5.4462687 15.4446411,4.27195229 18.828125,4.05008948 L18.828125,6.39872229 Z M19.9987793,8.69791667 L20,8.69791667 L20.0012207,8.69791667 C27.1447754,8.69852698 32.96875,14.4773356 32.96875,21.5885417 L32.96875,27.4479167 L25.7345581,27.4479167 C27.2567749,25.9577433 28.203125,23.8819377 28.203125,21.5885417 C28.203125,19.235026 27.1899414,16.991984 25.4238891,15.4343668 L20.7751465,11.3346354 C20.3323364,10.9440104 19.6679688,10.9440104 19.2248535,11.3346354 L14.5761109,15.4343668 C12.8097534,16.991984 11.796875,19.235026 11.796875,21.5885417 C11.796875,23.8819377 12.7432251,25.9577433 14.2654419,27.4479167 L7.109375,27.4479167 L7.109375,21.5885417 C7.109375,14.4809978 12.8915405,8.69852698 19.9987793,8.69791667 Z M37.65625,21.5885417 L37.65625,27.4479167 L35.3125,27.4479167 L35.3125,21.5885417 C35.3125,21.1942546 35.2972412,20.8033244 35.2676391,20.4166667 L37.6159668,20.4166667 C37.6419067,20.8042399 37.65625,21.1945597 37.65625,21.5885417 Z M21.171875,32.1354167 L21.171875,29.7916667 L28.203125,29.7916667 L28.203125,32.1354167 L21.171875,32.1354167 Z M11.796875,32.1354167 L11.796875,29.7916667 L18.828125,29.7916667 L18.828125,32.1354167 L11.796875,32.1354167 Z M18.828125,26.2760417 C18.828125,25.8378092 19.0444946,25.5552165 19.2266845,25.3949992 L20,24.7129314 L20.7739258,25.3953043 C20.9555054,25.5552165 21.171875,25.8378092 21.171875,26.2760417 C21.171875,26.9220988 20.6460571,27.4479167 20,27.4479167 C19.3539429,27.4479167 18.828125,26.9220988 18.828125,26.2760417 L18.828125,26.2760417 Z M23.515625,26.2729899 C23.5144043,24.8920695 22.7679444,24.0284221 22.3236084,23.6368815 L20.7751465,22.2715251 C20.3323364,21.8812053 19.6679688,21.8812053 19.2248535,22.2715251 L17.677002,23.6365764 C17.2320556,24.0284221 16.4855957,24.8920695 16.4846802,26.2729899 C15.0622559,25.2027385 14.140625,23.5013835 14.140625,21.5885417 C14.140625,19.9073283 14.864502,18.3051554 16.1264038,17.1921793 L20,13.7760417 L23.8735962,17.1921793 C25.135498,18.3051554 25.859375,19.9073283 25.859375,21.5885417 C25.859375,23.5013835 24.9377441,25.2027385 23.515625,26.2729899 L23.515625,26.2729899 Z M4.765625,21.5885417 L4.765625,27.4479167 L2.34375,27.4479167 L2.34375,21.5885417 C2.34375,21.1945597 2.35809328,20.8042399 2.3840332,20.4166667 L4.81018062,20.4166667 C4.78057859,20.8033244 4.765625,21.1942546 4.765625,21.5885417 Z M2.34375,29.7916667 L9.453125,29.7916667 L9.453125,32.1354167 L2.34375,32.1354167 L2.34375,29.7916667 Z M14.140625,34.4791667 L14.140625,36.8229167 L7.109375,36.8229167 L7.109375,34.4791667 L14.140625,34.4791667 Z M16.484375,34.4791667 L23.515625,34.4791667 L23.515625,36.8229167 L16.484375,36.8229167 L16.484375,34.4791667 Z M25.859375,34.4791667 L32.96875,34.4791667 L32.96875,36.8229167 L25.859375,36.8229167 L25.859375,34.4791667 Z M30.546875,32.1354167 L30.546875,29.7916667 L37.65625,29.7916667 L37.65625,32.1354167 L30.546875,32.1354167 Z M37.3013305,18.0729167 L34.9002075,18.0729167 C34.1943359,15.111796 32.6174927,12.4827067 30.4547119,10.4685465 L32.1322632,8.8297526 C34.7167969,11.2665812 36.5640259,14.4712321 37.3013305,18.0729167 L37.3013305,18.0729167 Z M7.89886477,8.80076089 L9.58190922,10.4841105 C7.43865969,12.4961345 5.87615969,15.1194254 5.17578125,18.0729167 L2.69866945,18.0729167 C3.43902586,14.4568889 5.29815672,11.2415568 7.89886477,8.80076089 Z M2.34375,34.4791667 L4.765625,34.4791667 L4.765625,36.8229167 L2.34375,36.8229167 L2.34375,34.4791667 Z M35.3125,36.8229167 L35.3125,34.4791667 L37.65625,34.4791667 L37.65625,36.8229167 L35.3125,36.8229167 Z" id="Shape"></path>
                    </g>
                </g>
            </g>
        </g>
    </g>
</svg>