<?xml version="1.0" encoding="UTF-8"?>
<svg fill="#08495D" width="100pt" height="100pt" version="1.1" viewBox="0 0 100 100" xmlns="http://www.w3.org/2000/svg">
 <path d="m26.445 37.191 6.3359-3.0312c2.7539-1.3789 3.8555-4.4062 3.0312-7.1641l-8.2656-22.863c-0.55078-1.9297-2.2031-3.3047-4.4062-3.8555-7.1641-1.1016-12.949 0.82812-17.629 5.2344-3.8555 3.582-5.7852 8.2656-5.5078 13.5 2.2031 36.914 44.352 78.789 80.992 80.992 5.2344 0.55078 9.918-1.3789 13.773-5.2344 4.4062-4.6836 6.3359-10.469 4.957-17.906-0.27734-1.9297-1.6523-3.582-3.8555-4.4062l-22.863-7.9883c-2.7539-1.1016-5.7852 0.27734-7.1641 3.0312l-2.7539 6.0625c-16.805-6.0625-30.305-19.836-36.641-36.363z" fill-rule="evenodd"/>
</svg>
