<?xml version="1.0" encoding="UTF-8"?>
<svg fill="#08495D" width="100pt" height="100pt" version="1.1" viewBox="0 0 100 100" xmlns="http://www.w3.org/2000/svg">
 <g>
  <path d="m42.426 9.9453c0.50781 0 0.90234-0.41406 0.90234-0.90234 0-0.50781-0.41406-0.92188-0.90234-0.92188-0.50781 0-0.92188 0.41406-0.92188 0.92188 0.019532 0.48828 0.43359 0.90234 0.92188 0.90234z"/>
  <path d="m50 91.879c1.6719 0 3.0469-1.3711 3.0469-3.0469 0-1.6719-1.3711-3.0469-3.0469-3.0469-1.6719 0-3.0469 1.3711-3.0469 3.0469 0 1.6953 1.375 3.0469 3.0469 3.0469z"/>
  <path d="m40.074 12.066h19.867l3.8359-6.0508h-0.054688c-0.1875-0.019531-0.35547-0.019531-0.54688-0.019531h-26.371c-0.1875 0-0.35547 0-0.54688 0.019531h-0.054687zm7.8945-3.8711h10.996c0.46875 0 0.82812 0.375 0.82812 0.82813 0 0.46875-0.375 0.82812-0.82812 0.82812h-10.996c-0.46875 0-0.82812-0.375-0.82812-0.82812 0.003906-0.45313 0.37891-0.82813 0.82812-0.82813zm-5.543-1.7461c1.4297 0 2.5742 1.1641 2.5742 2.5742 0 1.4297-1.1641 2.5742-2.5742 2.5742-1.4297 0-2.5742-1.1641-2.5742-2.5742 0-1.4102 1.1641-2.5742 2.5742-2.5742z"/>
  <path d="m72.594 15.395c0-4.3594-2.9883-8.0469-7.0117-9.0977l-4.4922 7.0508c-0.14844 0.24609-0.41406 0.39453-0.71484 0.39453h-20.77c-0.28125 0-0.54688-0.14844-0.71484-0.39453l-4.4922-7.0508c-4.0234 1.0508-7.0117 4.7383-7.0117 9.0977v66.617h45.188v-66.617z"/>
  <path d="m27.406 84.605c0 5.1875 4.2109 9.418 9.3984 9.418h26.371c5.1875 0 9.3984-4.2305 9.3984-9.418v-0.92188h-45.168zm22.594-0.46875c2.5938 0 4.7188 2.1055 4.7188 4.7188s-2.125 4.7188-4.7188 4.7188-4.7188-2.1055-4.7188-4.7188 2.125-4.7188 4.7188-4.7188z"/>
 </g>
</svg>
