<?xml version="1.0" encoding="UTF-8"?>
<svg fill="#08495D" width="100pt" height="100pt" version="1.1" viewBox="0 0 100 100" xmlns="http://www.w3.org/2000/svg">
 <g>
  <path d="m32 50.699h-11.5c-8.3008 0-15.398 6.1992-16.398 14.5l-1.6016 13.402c-0.19922 1.6992 0.89844 3.3984 2.6016 3.8008 6.6992 1.3984 13.801 2.1992 21.102 2.1992 7.3984 0 14.5-0.80078 21.102-2.1992 1.6992-0.39844 2.8008-2 2.6016-3.8008l-1.6016-13.398c-0.90625-8.3047-7.9062-14.504-16.305-14.504z"/>
  <path d="m41.801 30.898c0 8.5625-6.9414 15.5-15.5 15.5-8.5625 0-15.5-6.9375-15.5-15.5 0-8.5586 6.9375-15.5 15.5-15.5 8.5586 0 15.5 6.9414 15.5 15.5"/>
  <path d="m95.699 43.801h-12v-12c0-1-0.80078-1.8008-1.8008-1.8008h-8.8008c-1 0-1.8008 0.80078-1.8008 1.8008v12h-12c-1 0-1.8008 0.80078-1.8008 1.8008v8.8008c0 1 0.80078 1.8008 1.8008 1.8008h12v12c0 1 0.80078 1.8008 1.8008 1.8008h8.8008c1 0 1.8008-0.80078 1.8008-1.8008v-12h12c1 0 1.8008-0.80078 1.8008-1.8008v-8.8008c0-1-0.80078-1.8008-1.8008-1.8008z"/>
 </g>
</svg>
