<?xml version="1.0" encoding="UTF-8"?>
<svg fill="#08495D" width="100pt" height="100pt" version="1.1" viewBox="0 0 100 100" xmlns="http://www.w3.org/2000/svg">
 <path d="m87.234 22.727c-0.15625-0.32031-0.42969-0.58594-0.78906-0.69531-0.039062-0.007812-0.070312-0.019531-0.10937-0.03125-0.078126-0.019531-0.15625-0.03125-0.24219-0.046875-4.5234-0.92969-8.9648-2.0703-13.312-3.6328-5.0586-1.8164-9.9297-4.1094-14.641-6.8945-2.3359-1.375-4.6094-2.8711-6.8047-4.4609-0.37109-0.27344-0.68359-0.48047-1.1719-0.49609-0.15625-0.007812-0.32031 0-0.48047 0-0.74219 0-1.2031 0.39062-1.7695 0.8125-1.1328 0.82812-2.2852 1.6406-3.4688 2.4141-4.4609 2.9297-9.375 5.4688-14.191 7.4023-5.3828 2.1562-10.957 3.7383-16.621 4.9297-0.625 0.125-1.0742 0.80078-1.0742 1.4141l0.007812 11.91c0 4.0156-0.007812 8.0273 0 12.031 0.019532 9.5508 3.3125 18.848 9.25 26.328 2.8594 3.6016 6.3477 6.7188 10.227 9.1992 1.2969 0.82812 2.6172 1.6406 3.9141 2.4531 4.1719 2.6094 8.3398 5.2031 12.5 7.8125 0.097657 0.058594 0.1875 0.11719 0.28125 0.17578 0.4375 0.27344 1.0469 0.26563 1.4766 0 3.75-2.2734 7.5-4.5508 11.242-6.8281 1.7773-1.0742 3.5547-2.1562 5.3203-3.2344 3.0078-1.8281 5.8125-3.9648 8.2891-6.4453 6.582-6.5938 10.781-15.266 11.984-24.473 0.3125-2.3906 0.35156-4.7852 0.35156-7.1953v-21.77c0.019531-0.24219-0.050782-0.47656-0.16797-0.67969zm-18.562 17.594c-0.89062 0.89063-1.7773 1.7773-2.6641 2.6641-3.8672 3.8672-7.7344 7.7344-11.602 11.602-2.4219 2.4297-4.8516 4.8516-7.2852 7.2852-1.125 1.125-3.0273 1.125-4.1406 0-0.48828-0.48828-0.96875-0.96875-1.4453-1.4453l-10.203-10.203c-1.1641-1.1523-1.0742-2.9766 0-4.1406 1.0742-1.1641 3.0547-1.0859 4.1406 0 0.48828 0.48828 0.96875 0.96875 1.4531 1.4453 2.7148 2.7148 5.4219 5.4219 8.1328 8.1328l19.473-19.473c1.1641-1.1641 2.9766-1.0742 4.1406 0 1.1719 1.0586 1.0938 3.0508 0 4.1328z"/>
</svg>
