<?xml version="1.0" encoding="UTF-8"?>
<svg width="99px" height="40px" viewBox="0 0 99 40" version="1.1" xmlns="http://www.w3.org/2000/svg" xmlns:xlink="http://www.w3.org/1999/xlink">
    <title>comming soon</title>
    <g id="Final-designs" stroke="none" stroke-width="1" fill="none" fill-rule="evenodd">
        <g id="02.Locations" transform="translate(-891.000000, -1096.000000)" fill="#08495D" fill-rule="nonzero">
            <g id="Contact-Pita-Pita-Cafe" transform="translate(290.000000, 640.000000)">
                <g id="2" transform="translate(0.000000, 426.000000)">
                    <g id="open" transform="translate(375.000000, 30.000000)">
                        <path d="M275.5,0 C276.558712,0 277.535985,0.416233091 278.22822,1.16545265 C278.783488,1.69520386 279.136841,2.39695221 279.288278,3.20815329 L279.327652,3.45473465 L290.199811,14.9843913 L322.156525,14.9843913 C322.88948,14.9843913 323.581715,15.3173777 324.070351,15.8168574 C324.514566,16.3087693 324.82417,16.9038794 324.876791,17.6021878 L324.884745,17.8147763 L324.884745,37.2112383 C324.884745,37.9604579 324.558988,38.6680541 324.070351,39.1675338 C323.626136,39.6216063 323.013658,39.938081 322.35529,39.9918692 L322.156525,40 L229.5,40 C228.767045,40 228.074811,39.6670135 227.586174,39.1675338 C227.141959,38.7134614 226.832355,38.0873917 226.779735,37.4144138 L226.77178,37.2112383 L226.77178,17.8147763 C226.77178,17.0655567 227.097538,16.3579605 227.586174,15.8584807 C228.030389,15.3665689 228.642867,15.0810537 229.301235,15.0332072 L229.5,15.0260146 L260.800189,15.0260146 L271.672348,3.45473465 C271.794508,2.58064516 272.160985,1.78980229 272.77178,1.16545265 C273.464015,0.4578564 274.441288,0 275.5,0 Z M275.993164,24.7197266 C275.69043,24.7197266 275.69043,24.7197266 275.512207,24.9272461 C275.363688,25.100179 275.363688,25.100179 275.338935,25.4172228 L275.333984,25.5498047 L275.333984,29.8076172 L272.545898,25.5888672 C272.428711,25.4033203 272.428711,25.4033203 272.318848,25.2324219 C272.208984,25.0615234 272.208984,25.0615234 272.104004,24.9541016 C271.999023,24.8466797 271.999023,24.8466797 271.859863,24.7832031 C271.720703,24.7197266 271.720703,24.7197266 271.525391,24.7197266 C271.276367,24.7197266 271.276367,24.7197266 271.061523,24.8588867 C270.84668,24.9980469 270.84668,24.9980469 270.753906,25.2177734 C270.691406,25.3779297 270.691406,25.3779297 270.678906,25.6349609 L270.675781,25.7695312 L270.675781,31.2919922 C270.675781,31.6972656 270.675781,31.6972656 270.861328,31.909668 C271.046875,32.1220703 271.046875,32.1220703 271.354492,32.1220703 C271.652344,32.1220703 271.652344,32.1220703 271.842773,31.9121094 C272.001465,31.7371419 272.001465,31.7371419 272.027913,31.42315 L272.033203,31.2919922 L272.033203,27.0976562 L274.75293,31.2675781 C274.870117,31.4384766 274.870117,31.4384766 274.987305,31.6020508 C275.104492,31.765625 275.104492,31.765625 275.241211,31.8876953 C275.37793,32.0097656 275.37793,32.0097656 275.53418,32.065918 C275.69043,32.1220703 275.69043,32.1220703 275.885742,32.1220703 C276.606896,32.1220703 276.606896,32.1220703 276.662369,31.3190932 L276.666992,31.1796875 L276.666992,25.5498047 C276.666992,25.1347656 276.666992,25.1347656 276.486328,24.9272461 C276.305664,24.7197266 276.305664,24.7197266 275.993164,24.7197266 Z M316.520508,24.7197266 C316.217773,24.7197266 316.217773,24.7197266 316.039551,24.9272461 C315.891032,25.100179 315.891032,25.100179 315.866279,25.4172228 L315.861328,25.5498047 L315.861328,29.8076172 L313.073242,25.5888672 C312.956055,25.4033203 312.956055,25.4033203 312.846191,25.2324219 C312.736328,25.0615234 312.736328,25.0615234 312.631348,24.9541016 C312.526367,24.8466797 312.526367,24.8466797 312.387207,24.7832031 C312.248047,24.7197266 312.248047,24.7197266 312.052734,24.7197266 C311.803711,24.7197266 311.803711,24.7197266 311.588867,24.8588867 C311.374023,24.9980469 311.374023,24.9980469 311.28125,25.2177734 C311.21875,25.3779297 311.21875,25.3779297 311.20625,25.6349609 L311.203125,25.7695312 L311.203125,31.2919922 C311.203125,31.6972656 311.203125,31.6972656 311.388672,31.909668 C311.574219,32.1220703 311.574219,32.1220703 311.881836,32.1220703 C312.179687,32.1220703 312.179687,32.1220703 312.370117,31.9121094 C312.528809,31.7371419 312.528809,31.7371419 312.555257,31.42315 L312.560547,31.2919922 L312.560547,27.0976562 L315.280273,31.2675781 C315.397461,31.4384766 315.397461,31.4384766 315.514648,31.6020508 C315.631836,31.765625 315.631836,31.765625 315.768555,31.8876953 C315.905273,32.0097656 315.905273,32.0097656 316.061523,32.065918 C316.217773,32.1220703 316.217773,32.1220703 316.413086,32.1220703 C317.13424,32.1220703 317.13424,32.1220703 317.189713,31.3190932 L317.194336,31.1796875 L317.194336,25.5498047 C317.194336,25.1347656 317.194336,25.1347656 317.013672,24.9272461 C316.833008,24.7197266 316.833008,24.7197266 316.520508,24.7197266 Z M238.673828,24.7197266 C237.960937,24.7197266 237.960937,24.7197266 237.331055,24.9736328 C236.701172,25.2275391 236.701172,25.2275391 236.232422,25.7133789 C235.763672,26.1992188 235.763672,26.1992188 235.512207,26.8828125 C235.260742,27.5664062 235.260742,27.5664062 235.260742,28.4306641 C235.260742,28.9628906 235.260742,28.9628906 235.36084,29.4365234 C235.460937,29.9101562 235.460937,29.9101562 235.661133,30.3276367 C235.861328,30.7451172 235.861328,30.7451172 236.144531,31.0820312 C236.461914,31.453125 236.461914,31.453125 236.840332,31.6801758 C237.21875,31.9072266 237.21875,31.9072266 237.682617,32.0146484 C238.146484,32.1220703 238.146484,32.1220703 238.712891,32.1220703 C239.459961,32.1220703 239.459961,32.1220703 240.021484,31.8828125 C240.583008,31.6435547 240.583008,31.6435547 240.944336,31.2602539 C241.305664,30.8769531 241.305664,30.8769531 241.474121,30.4790039 C241.642578,30.0810547 241.642578,30.0810547 241.642578,29.7392578 C241.642578,29.4707031 241.642578,29.4707031 241.457031,29.2900391 C241.271484,29.109375 241.271484,29.109375 241.012695,29.109375 C240.709961,29.109375 240.709961,29.109375 240.573242,29.2875977 C240.436523,29.4658203 240.436523,29.4658203 240.34375,29.7490234 C240.124023,30.3496094 240.124023,30.3496094 239.691895,30.659668 C239.259766,30.9697266 239.259766,30.9697266 238.634766,30.9697266 C238.058594,30.9697266 238.058594,30.9697266 237.628906,30.6962891 C237.199219,30.4228516 237.199219,30.4228516 236.964844,29.8686523 C236.730469,29.3144531 236.730469,29.3144531 236.730469,28.4794922 C236.730469,27.2294922 236.730469,27.2294922 237.260254,26.5507812 C237.790039,25.8720703 237.790039,25.8720703 238.683594,25.8720703 C239.245117,25.8720703 239.245117,25.8720703 239.628418,26.1357422 C240.011719,26.3994141 240.011719,26.3994141 240.294922,26.9316406 C240.46582,27.2539062 240.46582,27.2539062 240.60498,27.3857422 C240.744141,27.5175781 240.744141,27.5175781 241.022461,27.5175781 C241.271484,27.5175781 241.271484,27.5175781 241.447266,27.3271484 C241.623047,27.1367188 241.623047,27.1367188 241.623047,26.8876953 C241.623047,26.4335938 241.623047,26.4335938 241.261719,25.9233398 C240.900391,25.4130859 240.900391,25.4130859 240.22168,25.0664062 C239.542969,24.7197266 239.542969,24.7197266 238.673828,24.7197266 Z M246.095703,24.7197266 C245.275391,24.7197266 245.275391,24.7197266 244.630859,24.9760742 C243.986328,25.2324219 243.986328,25.2324219 243.537109,25.7158203 C243.087891,26.1992188 243.087891,26.1992188 242.851074,26.8876953 C242.614258,27.5761719 242.614258,27.5761719 242.614258,28.4013672 C242.614258,29.2070312 242.614258,29.2070312 242.841309,29.9003906 C243.068359,30.59375 243.068359,30.59375 243.512695,31.0869141 C243.957031,31.5800781 243.957031,31.5800781 244.621094,31.8510742 C245.285156,32.1220703 245.285156,32.1220703 246.125,32.1220703 C246.969727,32.1220703 246.969727,32.1220703 247.624023,31.8583984 C248.27832,31.5947266 248.27832,31.5947266 248.727539,31.0966797 C249.176758,30.5986328 249.176758,30.5986328 249.401367,29.9199219 C249.625977,29.2412109 249.625977,29.2412109 249.625977,28.4111328 C249.625977,27.2880859 249.625977,27.2880859 249.21582,26.4555664 C248.805664,25.6230469 248.805664,25.6230469 248.007324,25.1713867 C247.208984,24.7197266 247.208984,24.7197266 246.095703,24.7197266 Z M306.413086,24.7197266 C305.592773,24.7197266 305.592773,24.7197266 304.948242,24.9760742 C304.303711,25.2324219 304.303711,25.2324219 303.854492,25.7158203 C303.405273,26.1992188 303.405273,26.1992188 303.168457,26.8876953 C302.931641,27.5761719 302.931641,27.5761719 302.931641,28.4013672 C302.931641,29.2070312 302.931641,29.2070312 303.158691,29.9003906 C303.385742,30.59375 303.385742,30.59375 303.830078,31.0869141 C304.274414,31.5800781 304.274414,31.5800781 304.938477,31.8510742 C305.602539,32.1220703 305.602539,32.1220703 306.442383,32.1220703 C307.287109,32.1220703 307.287109,32.1220703 307.941406,31.8583984 C308.595703,31.5947266 308.595703,31.5947266 309.044922,31.0966797 C309.494141,30.5986328 309.494141,30.5986328 309.71875,29.9199219 C309.943359,29.2412109 309.943359,29.2412109 309.943359,28.4111328 C309.943359,27.2880859 309.943359,27.2880859 309.533203,26.4555664 C309.123047,25.6230469 309.123047,25.6230469 308.324707,25.1713867 C307.526367,24.7197266 307.526367,24.7197266 306.413086,24.7197266 Z M252.155273,24.8417969 L251.706055,24.8417969 C251.291016,24.8417969 251.291016,24.8417969 251.046875,25.0053711 C250.837612,25.1455776 250.837612,25.1455776 250.807717,25.5099948 L250.802734,25.6376953 L250.802734,31.3017578 C250.802734,31.7167969 250.802734,31.7167969 250.988281,31.9194336 C251.173828,32.1220703 251.173828,32.1220703 251.466797,32.1220703 C251.769531,32.1220703 251.769531,32.1220703 251.952637,31.9169922 C252.105225,31.7460938 252.105225,31.7460938 252.130656,31.4327799 L252.135742,31.3017578 L252.135742,26.3603516 L253.283203,30.9208984 C253.341797,31.1455078 253.341797,31.1455078 253.397949,31.3530273 C253.454102,31.5605469 253.454102,31.5605469 253.551758,31.7314453 C253.649414,31.9023438 253.649414,31.9023438 253.825195,32.012207 C254.000977,32.1220703 254.000977,32.1220703 254.254883,32.1220703 C254.591797,32.1220703 254.591797,32.1220703 254.782227,31.9511719 C254.972656,31.7802734 254.972656,31.7802734 255.043457,31.5727539 C255.100098,31.4067383 255.100098,31.4067383 255.183301,31.0891602 L255.226562,30.9208984 L256.374023,26.3603516 L256.374023,31.3017578 C256.374023,31.7119141 256.374023,31.7119141 256.55957,31.9169922 C256.745117,32.1220703 256.745117,32.1220703 257.033203,32.1220703 C257.34082,32.1220703 257.34082,32.1220703 257.523926,31.9169922 C257.676514,31.7460938 257.676514,31.7460938 257.701945,31.4327799 L257.707031,31.3017578 L257.707031,25.6376953 C257.707031,25.1689453 257.707031,25.1689453 257.462891,25.0053711 C257.267578,24.8745117 257.267578,24.8745117 256.962891,24.8483398 L256.803711,24.8417969 L256.354492,24.8417969 C255.949219,24.8417969 255.949219,24.8417969 255.766113,24.9150391 C255.583008,24.9882812 255.583008,24.9882812 255.495117,25.1787109 C255.424805,25.3310547 255.424805,25.3310547 255.338867,25.6365234 L255.294922,25.7988281 L254.254883,29.7197266 L253.214844,25.7988281 C253.102539,25.3691406 253.102539,25.3691406 253.014648,25.1787109 C252.926758,24.9882812 252.926758,24.9882812 252.743652,24.9150391 C252.597168,24.8564453 252.597168,24.8564453 252.308496,24.8447266 L252.155273,24.8417969 Z M298.493164,24.7197266 C297.672852,24.7197266 297.672852,24.7197266 297.02832,24.9760742 C296.383789,25.2324219 296.383789,25.2324219 295.93457,25.7158203 C295.485352,26.1992188 295.485352,26.1992188 295.248535,26.8876953 C295.011719,27.5761719 295.011719,27.5761719 295.011719,28.4013672 C295.011719,29.2070312 295.011719,29.2070312 295.23877,29.9003906 C295.46582,30.59375 295.46582,30.59375 295.910156,31.0869141 C296.354492,31.5800781 296.354492,31.5800781 297.018555,31.8510742 C297.682617,32.1220703 297.682617,32.1220703 298.522461,32.1220703 C299.367187,32.1220703 299.367187,32.1220703 300.021484,31.8583984 C300.675781,31.5947266 300.675781,31.5947266 301.125,31.0966797 C301.574219,30.5986328 301.574219,30.5986328 301.798828,29.9199219 C302.023437,29.2412109 302.023437,29.2412109 302.023437,28.4111328 C302.023437,27.2880859 302.023437,27.2880859 301.613281,26.4555664 C301.203125,25.6230469 301.203125,25.6230469 300.404785,25.1713867 C299.606445,24.7197266 299.606445,24.7197266 298.493164,24.7197266 Z M260.485352,24.8417969 L260.036133,24.8417969 C259.621094,24.8417969 259.621094,24.8417969 259.376953,25.0053711 C259.16769,25.1455776 259.16769,25.1455776 259.137795,25.5099948 L259.132812,25.6376953 L259.132812,31.3017578 C259.132812,31.7167969 259.132812,31.7167969 259.318359,31.9194336 C259.503906,32.1220703 259.503906,32.1220703 259.796875,32.1220703 C260.099609,32.1220703 260.099609,32.1220703 260.282715,31.9169922 C260.435303,31.7460938 260.435303,31.7460938 260.460734,31.4327799 L260.46582,31.3017578 L260.46582,26.3603516 L261.613281,30.9208984 C261.671875,31.1455078 261.671875,31.1455078 261.728027,31.3530273 C261.78418,31.5605469 261.78418,31.5605469 261.881836,31.7314453 C261.979492,31.9023438 261.979492,31.9023438 262.155273,32.012207 C262.331055,32.1220703 262.331055,32.1220703 262.584961,32.1220703 C262.921875,32.1220703 262.921875,32.1220703 263.112305,31.9511719 C263.302734,31.7802734 263.302734,31.7802734 263.373535,31.5727539 C263.430176,31.4067383 263.430176,31.4067383 263.513379,31.0891602 L263.556641,30.9208984 L264.704102,26.3603516 L264.704102,31.3017578 C264.704102,31.7119141 264.704102,31.7119141 264.889648,31.9169922 C265.075195,32.1220703 265.075195,32.1220703 265.363281,32.1220703 C265.670898,32.1220703 265.670898,32.1220703 265.854004,31.9169922 C266.006592,31.7460938 266.006592,31.7460938 266.032023,31.4327799 L266.037109,31.3017578 L266.037109,25.6376953 C266.037109,25.1689453 266.037109,25.1689453 265.792969,25.0053711 C265.597656,24.8745117 265.597656,24.8745117 265.292969,24.8483398 L265.133789,24.8417969 L264.68457,24.8417969 C264.279297,24.8417969 264.279297,24.8417969 264.096191,24.9150391 C263.913086,24.9882812 263.913086,24.9882812 263.825195,25.1787109 C263.754883,25.3310547 263.754883,25.3310547 263.668945,25.6365234 L263.625,25.7988281 L262.584961,29.7197266 L261.544922,25.7988281 C261.432617,25.3691406 261.432617,25.3691406 261.344727,25.1787109 C261.256836,24.9882812 261.256836,24.9882812 261.07373,24.9150391 C260.927246,24.8564453 260.927246,24.8564453 260.638574,24.8447266 L260.485352,24.8417969 Z M268.302734,24.7197266 C267.985352,24.7197266 267.985352,24.7197266 267.785156,24.9394531 C267.618327,25.1225586 267.618327,25.1225586 267.590522,25.458252 L267.584961,25.5986328 L267.584961,31.2382812 C267.584961,31.6777344 267.584961,31.6777344 267.787598,31.8999023 C267.990234,32.1220703 267.990234,32.1220703 268.302734,32.1220703 C268.629883,32.1220703 268.629883,32.1220703 268.83252,31.9023438 C269.001383,31.7192383 269.001383,31.7192383 269.029527,31.3801541 L269.035156,31.2382812 L269.035156,25.5986328 C269.035156,25.1542969 269.035156,25.1542969 268.83252,24.9370117 C268.629883,24.7197266 268.629883,24.7197266 268.302734,24.7197266 Z M291.251953,24.7197266 C290.426758,24.7197266 290.426758,24.7197266 289.816406,24.9663086 C289.206055,25.2128906 289.206055,25.2128906 288.883789,25.671875 C288.561523,26.1308594 288.561523,26.1308594 288.561523,26.7216797 C288.561523,27.3417969 288.561523,27.3417969 288.866699,27.7592773 C289.171875,28.1767578 289.171875,28.1767578 289.691895,28.418457 C290.211914,28.6601562 290.211914,28.6601562 290.983398,28.8408203 C291.55957,28.9726562 291.55957,28.9726562 291.903809,29.0898438 C292.248047,29.2070312 292.248047,29.2070312 292.465332,29.4291992 C292.682617,29.6513672 292.682617,29.6513672 292.682617,30.0078125 C292.682617,30.4570312 292.682617,30.4570312 292.279785,30.7573242 C291.876953,31.0576172 291.876953,31.0576172 291.232422,31.0576172 C290.763672,31.0576172 290.763672,31.0576172 290.475586,30.9086914 C290.1875,30.7597656 290.1875,30.7597656 290.028809,30.5302734 C289.870117,30.3007812 289.870117,30.3007812 289.733398,29.9589844 C289.621094,29.6708984 289.621094,29.6708984 289.462402,29.5244141 C289.303711,29.3779297 289.303711,29.3779297 289.074219,29.3779297 C288.791016,29.3779297 288.791016,29.3779297 288.60791,29.565918 C288.424805,29.7539062 288.424805,29.7539062 288.424805,30.0175781 C288.424805,30.4716797 288.424805,30.4716797 288.72998,30.9526367 C289.035156,31.4335938 289.035156,31.4335938 289.523437,31.7216797 C290.211914,32.1220703 290.211914,32.1220703 291.271484,32.1220703 C292.155273,32.1220703 292.155273,32.1220703 292.799805,31.8291016 C293.444336,31.5361328 293.444336,31.5361328 293.778809,31.0185547 C294.113281,30.5009766 294.113281,30.5009766 294.113281,29.8515625 C294.113281,29.3095703 294.113281,29.3095703 293.92041,28.9360352 C293.727539,28.5625 293.727539,28.5625 293.383301,28.3183594 C293.039062,28.0742188 293.039062,28.0742188 292.54834,27.9033203 C292.057617,27.7324219 292.057617,27.7324219 291.452148,27.5908203 C290.96875,27.46875 290.96875,27.46875 290.758789,27.4052734 C290.548828,27.3417969 290.548828,27.3417969 290.34375,27.2294922 C290.138672,27.1171875 290.138672,27.1171875 290.021484,26.9609375 C289.904297,26.8046875 289.904297,26.8046875 289.904297,26.5898438 C289.904297,26.2431641 289.904297,26.2431641 290.248535,25.996582 C290.592773,25.75 290.592773,25.75 291.154297,25.75 C291.759766,25.75 291.759766,25.75 292.033203,25.9770508 C292.306641,26.2041016 292.306641,26.2041016 292.501953,26.609375 C292.65332,26.8925781 292.65332,26.8925781 292.782715,27.0170898 C292.912109,27.1416016 292.912109,27.1416016 293.161133,27.1416016 C293.43457,27.1416016 293.43457,27.1416016 293.617676,26.934082 C293.800781,26.7265625 293.800781,26.7265625 293.800781,26.4677734 C293.800781,26.1845703 293.800781,26.1845703 293.654297,25.8867188 C293.507812,25.5888672 293.507812,25.5888672 293.19043,25.3178711 C292.873047,25.046875 292.873047,25.046875 292.39209,24.8833008 C291.911133,24.7197266 291.911133,24.7197266 291.251953,24.7197266 Z M281.691406,24.7197266 C280.8125,24.7197266 280.8125,24.7197266 280.119141,24.9760742 C279.425781,25.2324219 279.425781,25.2324219 278.942383,25.7158203 C278.458984,26.1992188 278.458984,26.1992188 278.209961,26.8925781 C277.960937,27.5859375 277.960937,27.5859375 277.960937,28.4208984 C277.960937,29.2705078 277.960937,29.2705078 278.217285,29.9589844 C278.473633,30.6474609 278.473633,30.6474609 278.952148,31.1308594 C279.430664,31.6142578 279.430664,31.6142578 280.109375,31.8681641 C280.788086,32.1220703 280.788086,32.1220703 281.613281,32.1220703 C282.321289,32.1220703 282.321289,32.1220703 282.921875,31.9609375 C283.522461,31.7998047 283.522461,31.7998047 284.171875,31.4482422 C284.396484,31.3261719 284.396484,31.3261719 284.540527,31.1943359 C284.68457,31.0625 284.68457,31.0625 284.738281,30.8989258 C284.778564,30.7762451 284.778564,30.7762451 284.788635,30.5917664 L284.791992,30.4619141 L284.791992,29.0898438 C284.791992,28.71875 284.791992,28.71875 284.662598,28.5332031 C284.533203,28.3476562 284.533203,28.3476562 284.323242,28.2939453 C284.165771,28.2536621 284.165771,28.2536621 283.956116,28.2435913 L283.810547,28.2402344 L282.165039,28.2402344 C281.867187,28.2402344 281.867187,28.2402344 281.693848,28.3964844 C281.520508,28.5527344 281.520508,28.5527344 281.520508,28.7919922 C281.520508,29.0849609 281.520508,29.0849609 281.728027,29.2070312 C281.894043,29.3046875 281.894043,29.3046875 282.186621,29.3242188 L282.34082,29.3291016 L283.463867,29.3291016 L283.463867,30.4912109 C283.009766,30.7353516 283.009766,30.7353516 282.567871,30.8671875 C282.125977,30.9990234 282.125977,30.9990234 281.623047,30.9990234 C280.587891,30.9990234 280.587891,30.9990234 280.009277,30.3203125 C279.430664,29.6416016 279.430664,29.6416016 279.430664,28.3818359 C279.430664,27.8007812 279.430664,27.8007812 279.57959,27.3222656 C279.728516,26.84375 279.728516,26.84375 280.009277,26.5141602 C280.290039,26.1845703 280.290039,26.1845703 280.685547,26.0112305 C281.081055,25.8378906 281.081055,25.8378906 281.583984,25.8378906 C282.072266,25.8378906 282.072266,25.8378906 282.387207,25.984375 C282.702148,26.1308594 282.702148,26.1308594 282.887695,26.3457031 C283.073242,26.5605469 283.073242,26.5605469 283.341797,26.9804688 C283.439453,27.1123047 283.439453,27.1123047 283.583496,27.1855469 C283.727539,27.2587891 283.727539,27.2587891 283.883789,27.2587891 C284.166992,27.2587891 284.166992,27.2587891 284.369629,27.065918 C284.572266,26.8730469 284.572266,26.8730469 284.572266,26.5996094 C284.572266,26.3457031 284.572266,26.3457031 284.396484,26.0185547 C284.220703,25.6914062 284.220703,25.6914062 283.874023,25.3984375 C283.527344,25.1054688 283.527344,25.1054688 282.970703,24.9125977 C282.414062,24.7197266 282.414062,24.7197266 281.691406,24.7197266 Z M306.413086,25.8720703 C307.023437,25.8720703 307.023437,25.8720703 307.494629,26.1674805 C307.96582,26.4628906 307.96582,26.4628906 308.219727,27.0390625 C308.473633,27.6152344 308.473633,27.6152344 308.473633,28.4013672 C308.473633,29.2509766 308.473633,29.2509766 308.197754,29.8320312 C307.921875,30.4130859 307.921875,30.4130859 307.455566,30.6914062 C306.989258,30.9697266 306.989258,30.9697266 306.432617,30.9697266 C305.998047,30.9697266 305.998047,30.9697266 305.634277,30.8085938 C305.270508,30.6474609 305.270508,30.6474609 304.989746,30.3227539 C304.708984,29.9980469 304.708984,29.9980469 304.555176,29.5048828 C304.401367,29.0117188 304.401367,29.0117188 304.401367,28.4013672 C304.401367,27.7958984 304.401367,27.7958984 304.555176,27.3100586 C304.708984,26.8242188 304.708984,26.8242188 304.975098,26.5117188 C305.241211,26.1992188 305.241211,26.1992188 305.609863,26.0356445 C305.978516,25.8720703 305.978516,25.8720703 306.413086,25.8720703 Z M246.095703,25.8720703 C246.706055,25.8720703 246.706055,25.8720703 247.177246,26.1674805 C247.648437,26.4628906 247.648437,26.4628906 247.902344,27.0390625 C248.15625,27.6152344 248.15625,27.6152344 248.15625,28.4013672 C248.15625,29.2509766 248.15625,29.2509766 247.880371,29.8320312 C247.604492,30.4130859 247.604492,30.4130859 247.138184,30.6914062 C246.671875,30.9697266 246.671875,30.9697266 246.115234,30.9697266 C245.680664,30.9697266 245.680664,30.9697266 245.316895,30.8085938 C244.953125,30.6474609 244.953125,30.6474609 244.672363,30.3227539 C244.391602,29.9980469 244.391602,29.9980469 244.237793,29.5048828 C244.083984,29.0117188 244.083984,29.0117188 244.083984,28.4013672 C244.083984,27.7958984 244.083984,27.7958984 244.237793,27.3100586 C244.391602,26.8242188 244.391602,26.8242188 244.657715,26.5117188 C244.923828,26.1992188 244.923828,26.1992188 245.29248,26.0356445 C245.661133,25.8720703 245.661133,25.8720703 246.095703,25.8720703 Z M298.493164,25.8720703 C299.103516,25.8720703 299.103516,25.8720703 299.574707,26.1674805 C300.045898,26.4628906 300.045898,26.4628906 300.299805,27.0390625 C300.553711,27.6152344 300.553711,27.6152344 300.553711,28.4013672 C300.553711,29.2509766 300.553711,29.2509766 300.277832,29.8320312 C300.001953,30.4130859 300.001953,30.4130859 299.535645,30.6914062 C299.069336,30.9697266 299.069336,30.9697266 298.512695,30.9697266 C298.078125,30.9697266 298.078125,30.9697266 297.714355,30.8085938 C297.350586,30.6474609 297.350586,30.6474609 297.069824,30.3227539 C296.789062,29.9980469 296.789062,29.9980469 296.635254,29.5048828 C296.481445,29.0117188 296.481445,29.0117188 296.481445,28.4013672 C296.481445,27.7958984 296.481445,27.7958984 296.635254,27.3100586 C296.789062,26.8242188 296.789062,26.8242188 297.055176,26.5117188 C297.321289,26.1992188 297.321289,26.1992188 297.689941,26.0356445 C298.058594,25.8720703 298.058594,25.8720703 298.493164,25.8720703 Z M272.242424,6.07700312 L263.854167,15.0676379 L287.105114,15.0676379 L278.716856,6.11862643 C278.594697,6.32674298 278.431818,6.53485952 278.22822,6.74297607 C278.1875,6.78459938 278.1875,6.78459938 278.14678,6.82622268 C277.454545,7.49219563 276.517992,7.90842872 275.5,7.90842872 C274.441288,7.90842872 273.464015,7.45057232 272.731061,6.70135276 C272.568182,6.53485952 272.405303,6.32674298 272.242424,6.07700312 Z" id="comming-soon"></path>
                    </g>
                </g>
            </g>
        </g>
    </g>
</svg>