<?xml version="1.0" encoding="UTF-8"?>
<svg width="20px" height="28px" viewBox="0 0 20 28" version="1.1" xmlns="http://www.w3.org/2000/svg" xmlns:xlink="http://www.w3.org/1999/xlink">
    <title>location_icon</title>
    <g id="Final-designs" stroke="none" stroke-width="1" fill="none" fill-rule="evenodd">
        <g id="02.Locations" transform="translate(-324.000000, -850.000000)" fill="#08495D" fill-rule="nonzero">
            <g id="Contact-Pita-Pita-Cafe" transform="translate(290.000000, 640.000000)">
                <g id="1" transform="translate(0.000000, 180.000000)">
                    <g id="address" transform="translate(34.000000, 30.000000)">
                        <path d="M18.6108433,4.7948586 C16.8456584,1.86229896 13.710329,0.0706835247 10.2237578,0.00221484159 C10.0749217,-0.000738280529 9.92511982,-0.000738280529 9.77622689,0.00221484159 C6.28971248,0.0706835247 3.15438312,1.86229896 1.38914134,4.7948586 C-0.415184119,7.79238692 -0.464549991,11.3930084 1.25706349,14.4265758 L8.46953669,27.1352274 C8.47277473,27.1408602 8.47601276,27.146493 8.47936442,27.1520711 C8.79669211,27.6830316 9.36516654,28 10.000106,28 C10.6349886,28 11.203463,27.6829769 11.5207339,27.1520711 C11.5240855,27.146493 11.5273236,27.1408602 11.5305616,27.1352274 L18.7430348,14.4265758 C20.4645347,11.3930084 20.4151688,7.79238692 18.6108433,4.7948586 Z M9.99999234,12.687515 C7.74467072,12.687515 5.90983953,10.9211651 5.90983953,8.7500188 C5.90983953,6.57887248 7.74467072,4.81252264 9.99999234,4.81252264 C12.255314,4.81252264 14.0901451,6.57887248 14.0901451,8.7500188 C14.0901451,10.9211651 12.2553708,12.687515 9.99999234,12.687515 Z" id="location_icon"></path>
                    </g>
                </g>
            </g>
        </g>
    </g>
</svg>