<?xml version="1.0" encoding="UTF-8"?>
<svg width="43px" height="40px" viewBox="0 0 43 40" version="1.1" xmlns="http://www.w3.org/2000/svg" xmlns:xlink="http://www.w3.org/1999/xlink">
    <title>open</title>
    <g id="Final-designs" stroke="none" stroke-width="1" fill="none" fill-rule="evenodd">
        <g id="02.Locations" transform="translate(-824.000000, -850.000000)" fill="#08495D" fill-rule="nonzero">
            <g id="Contact-Pita-Pita-Cafe" transform="translate(290.000000, 640.000000)">
                <g id="1" transform="translate(0.000000, 180.000000)">
                    <g id="open" transform="translate(375.000000, 30.000000)">
                        <path d="M180.5,0 C181.558712,0 182.535985,0.416233091 183.22822,1.16545265 C183.783488,1.69520386 184.136841,2.39695221 184.288278,3.20815329 L184.327652,3.45473465 L195.199811,14.9843913 L199.27178,14.9843913 C200.004735,14.9843913 200.69697,15.3173777 201.185606,15.8168574 C201.629821,16.3087693 201.939425,16.9038794 201.992046,17.6021878 L202,17.8147763 L202,37.2112383 C202,37.9604579 201.674242,38.6680541 201.185606,39.1675338 C200.741391,39.6216063 200.128913,39.938081 199.470545,39.9918692 L199.27178,40 L161.72822,40 C160.995265,40 160.30303,39.6670135 159.814394,39.1675338 C159.370179,38.7134614 159.060575,38.0873917 159.007954,37.4144138 L159,37.2112383 L159,17.8147763 C159,17.0655567 159.325758,16.3579605 159.814394,15.8584807 C160.258609,15.3665689 160.871087,15.0810537 161.529455,15.0332072 L161.72822,15.0260146 L165.800189,15.0260146 L176.672348,3.45473465 C176.794508,2.58064516 177.160985,1.78980229 177.77178,1.16545265 C178.464015,0.4578564 179.441288,0 180.5,0 Z M168.121212,22.4349636 C166.899621,22.4349636 165.75947,22.89282 164.822917,23.8917794 C164.33428,24.3912591 163.967803,24.9739854 163.723485,25.5983351 C163.479167,26.2226847 163.357008,26.930281 163.357008,27.7211238 C163.357008,29.1779396 163.845644,30.3433923 164.782197,31.2591051 C165.270833,31.7169615 165.75947,32.049948 166.329545,32.2580645 C166.899621,32.4661811 167.469697,32.591051 168.080492,32.591051 C168.772727,32.591051 169.383523,32.4661811 169.953598,32.2164412 C170.523674,31.9667014 171.05303,31.5920916 171.500947,31.0926119 C171.948864,30.5931322 172.315341,30.0104058 172.559659,29.4276795 C172.803977,28.8033299 172.926136,28.1373569 172.926136,27.4297607 C172.926136,26.0145682 172.4375,24.8074922 171.500947,23.8917794 C171.012311,23.3506764 170.523674,23.0176899 169.953598,22.7679501 C169.383523,22.5182102 168.772727,22.4349636 168.121212,22.4349636 Z M177.120265,22.4765869 C176.50947,22.4765869 176.020833,22.5182102 175.695076,22.5182102 L175.695076,22.5182102 L175.450758,22.5188606 C175.236979,22.5208117 175.11482,22.528616 175.08428,22.5598335 C174.514205,22.6014568 174.147727,22.89282 173.984848,23.3922997 C173.944129,23.4755463 173.944129,23.6004162 173.903409,23.7252862 L173.903409,23.7252862 L173.903141,26.9954059 C173.899623,29.3304641 173.862689,30.8349438 173.862689,31.508845 C173.862689,32.1748179 174.269886,32.5494277 175.043561,32.5494277 C175.410038,32.5494277 175.735795,32.4661811 175.939394,32.2996878 C176.142992,32.1331946 176.265152,31.8418314 176.265152,31.508845 L176.265152,31.508845 L176.265152,29.3860562 L176.590909,29.3860562 L176.854447,29.3857232 C177.198447,29.3843913 177.511174,29.3777315 177.77178,29.3444329 C178.097538,29.3444329 178.341856,29.3028096 178.504735,29.2611863 C178.871212,29.1779396 179.19697,29.0530697 179.522727,28.8449532 C179.807765,28.6368366 180.092803,28.3870968 180.296402,28.0541103 C180.54072,27.7627471 180.703598,27.4297607 180.825758,27.0551509 C180.947917,26.7221644 180.988636,26.3475546 181.029356,25.9729448 C181.070076,25.3485952 180.988636,24.8074922 180.744318,24.3080125 C180.5,23.8501561 180.174242,23.433923 179.685606,23.1425598 C179.319129,22.89282 178.952652,22.7263267 178.504735,22.6430801 C178.097538,22.5182102 177.608902,22.4765869 177.120265,22.4765869 Z M196.462121,22.4765869 C196.258523,22.4765869 196.095644,22.5182102 195.932765,22.5598335 C195.769886,22.6014568 195.647727,22.6847034 195.525568,22.8095734 C195.403409,22.9344433 195.362689,23.0593132 195.28125,23.2258065 C195.24053,23.3922997 195.199811,23.5587929 195.199811,23.8085328 L195.199811,23.8085328 L195.24053,26.4724246 L195.24053,28.0957336 L194.955492,27.6378772 L191.942235,23.3090531 L191.850238,23.1857247 C191.78388,23.1055613 191.71149,23.0315643 191.657197,22.9760666 C191.575758,22.89282 191.453598,22.7679501 191.372159,22.7263267 C191.29072,22.6430801 191.168561,22.6014568 191.046402,22.5598335 C190.924242,22.5182102 190.802083,22.5182102 190.679924,22.5182102 C190.354167,22.5182102 190.028409,22.6014568 189.784091,22.7679501 C189.621212,22.8511967 189.539773,22.9760666 189.458333,23.1009365 C189.376894,23.2258065 189.336174,23.3922997 189.336174,23.5587929 L189.336174,23.5587929 L189.336174,31.383975 L189.3419,31.5067313 C189.368623,31.7878512 189.488873,32.0291363 189.702652,32.1748179 C189.90625,32.3413111 190.191288,32.4245578 190.557765,32.4245578 C190.924242,32.4245578 191.20928,32.2996878 191.372159,32.0915713 C191.575758,31.8834547 191.657197,31.5920916 191.657197,31.2174818 L191.657197,31.2174818 L191.657197,26.5140479 L195.077652,31.508845 L195.199811,31.6961498 L195.199811,31.6961498 L195.32197,31.8834547 C195.403409,32.0083247 195.484848,32.0915713 195.566288,32.1331946 C195.647727,32.2164412 195.769886,32.2580645 195.892045,32.2996878 C196.014205,32.3413111 196.136364,32.3413111 196.258523,32.3413111 C196.625,32.3413111 196.910038,32.2580645 197.195076,32.049948 C197.317235,31.9667014 197.439394,31.8418314 197.520833,31.6753382 C197.602273,31.5504683 197.642992,31.383975 197.642992,31.2174818 L197.642992,31.2174818 L197.642992,29.3444329 L197.602273,28.8033299 L197.602273,23.6836629 L197.597968,23.5397799 C197.554872,22.8424168 197.187441,22.4765869 196.462121,22.4765869 Z M187.21875,22.5182102 L183.268939,22.5182102 L183.116864,22.5233069 C182.822685,22.5436939 182.588339,22.6252416 182.413826,22.7679501 C182.291667,22.8511967 182.210227,22.9760666 182.128788,23.1009365 C182.047348,23.2258065 182.047348,23.3922997 182.006629,23.5587929 L182.006629,23.5587929 L182.006629,31.1758585 L182.014264,31.3247919 C182.029534,31.4672216 182.067708,31.5920916 182.128788,31.7169615 C182.210227,31.8834547 182.332386,32.0083247 182.454545,32.0915713 C182.576705,32.1748179 182.739583,32.2164412 182.983902,32.2580645 C183.1366,32.289282 183.312204,32.2970864 183.510713,32.2990375 L183.510713,32.2990375 L187.463068,32.2996878 L187.599948,32.2922854 C187.867772,32.2631612 188.097132,32.1510331 188.236742,32.0083247 C188.399621,31.8002081 188.52178,31.5504683 188.52178,31.1758585 C188.52178,30.842872 188.440341,30.5931322 188.277462,30.3850156 C187.992424,30.3850156 187.748106,30.2601457 187.422348,30.2601457 L187.422348,30.2601457 L186.366568,30.2604787 C186.091629,30.2618106 185.785417,30.2684703 185.427083,30.301769 L185.427083,30.301769 L184.164773,30.301769 L184.164773,28.5952133 L186.607955,28.5952133 L186.764235,28.5882761 C187.01402,28.565152 187.211963,28.4842178 187.381629,28.3454735 C187.544508,28.1789802 187.666667,27.9292404 187.666667,27.5962539 C187.666667,27.1800208 187.585227,26.8886576 187.340909,26.7221644 C187.21875,26.6389178 187.096591,26.5972945 186.933712,26.5556712 C186.770833,26.5140479 186.607955,26.5140479 186.445076,26.5140479 C185.875,26.5140479 185.223485,26.5556712 184.449811,26.5556712 L184.449811,26.5556712 L184.246212,26.5556712 L184.286932,25.4318418 L184.286932,24.6826223 L186.966277,24.6821655 C187.29667,24.6805668 187.490215,24.6733726 187.585227,24.640999 L187.585227,24.640999 L187.625947,24.640999 L187.741319,24.5957143 C187.922296,24.5138166 188.046717,24.3981963 188.114583,24.2247659 C188.196023,24.0582726 188.277462,23.8085328 188.236742,23.5171696 C188.236742,23.3922997 188.196023,23.2258065 188.155303,23.1425598 C188.114583,23.0176899 188.033144,22.89282 187.951705,22.8095734 C187.870265,22.7263267 187.748106,22.6430801 187.625947,22.6014568 C187.503788,22.5598335 187.381629,22.5182102 187.21875,22.5182102 L187.21875,22.5182102 Z M168.039773,24.6826223 C168.40625,24.6826223 168.691288,24.7658689 169.017045,24.8491155 C169.302083,24.9739854 169.587121,25.182102 169.831439,25.4318418 C170.075758,25.6815817 170.279356,25.9729448 170.401515,26.3059313 C170.482955,26.6389178 170.564394,27.0135276 170.564394,27.4297607 C170.564394,27.8043704 170.523674,28.1789802 170.401515,28.5119667 C170.279356,28.8449532 170.116477,29.1779396 169.872159,29.4693028 C169.424242,30.0520291 168.854167,30.301769 168.202652,30.301769 C167.836174,30.301769 167.510417,30.2601457 167.225379,30.1352758 C166.940341,30.0104058 166.696023,29.8439126 166.451705,29.5525494 C166.207386,29.3028096 166.044508,29.0114464 165.922348,28.6784599 C165.800189,28.3454735 165.75947,27.9708637 165.75947,27.5546306 C165.75947,27.1383975 165.800189,26.7221644 165.922348,26.3891779 C166.044508,26.0561915 166.207386,25.723205 166.410985,25.4734651 C166.858902,24.9323621 167.388258,24.6826223 168.039773,24.6826223 Z M177.160985,24.640999 C177.608902,24.640999 177.934659,24.6826223 178.178977,24.8074922 C178.382576,24.8907388 178.545455,25.0156087 178.626894,25.182102 C178.708333,25.3485952 178.789773,25.5567118 178.789773,25.8064516 C178.789773,25.9729448 178.749053,26.1394381 178.708333,26.264308 C178.667614,26.3891779 178.586174,26.5140479 178.545455,26.6389178 C178.382576,26.8886576 178.219697,27.0135276 177.975379,27.0967742 C177.85322,27.1383975 177.690341,27.1383975 177.486742,27.1800208 L177.486742,27.1800208 L176.305871,27.1800208 L176.305871,24.640999 Z M177.242424,6.07700312 L168.854167,15.0676379 L192.105114,15.0676379 L183.716856,6.11862643 C183.594697,6.32674298 183.431818,6.53485952 183.22822,6.74297607 C183.1875,6.78459938 183.1875,6.78459938 183.14678,6.82622268 C182.454545,7.49219563 181.517992,7.90842872 180.5,7.90842872 C179.441288,7.90842872 178.464015,7.45057232 177.731061,6.70135276 C177.568182,6.53485952 177.405303,6.32674298 177.242424,6.07700312 Z"></path>
                    </g>
                </g>
            </g>
        </g>
    </g>
</svg>