<?xml version="1.0" encoding="UTF-8"?>
<svg width="28px" height="28px" viewBox="0 0 28 28" version="1.1" xmlns="http://www.w3.org/2000/svg" xmlns:xlink="http://www.w3.org/1999/xlink">
    <title>phone</title>
    <g id="Final-designs" stroke="none" stroke-width="1" fill="none" fill-rule="evenodd">
        <g id="02.Locations" transform="translate(-320.000000, -968.000000)" fill="#08495D" fill-rule="nonzero">
            <g id="Contact-Pita-Pita-Cafe" transform="translate(290.000000, 640.000000)">
                <g id="1" transform="translate(0.000000, 180.000000)">
                    <g id="Phone" transform="translate(30.000000, 148.000000)">
                        <path d="M25.7894719,18.4358046 C24.0622895,18.4358046 22.3705447,18.1661202 20.7671519,17.6370441 C19.984625,17.3673597 19.0959927,17.5751493 18.5816995,18.0998044 L15.40296,20.5004379 C11.7555886,18.5537225 9.42127091,16.2208554 7.50108183,12.6000104 L9.83685019,9.49642886 C10.4248507,8.90842838 10.6356107,8.04777307 10.3836105,7.24169017 C9.85011336,5.62800463 9.57897827,3.93474008 9.57897827,2.21052813 C9.57897827,0.991767263 8.58721101,0 7.36845014,0 L2.21052813,0 C0.991767263,0 0,0.991767263 0,2.21052813 C0,16.4300957 11.5699043,28 25.7894719,28 C27.0082327,28 28,27.0082327 28,25.7894719 L28,20.6463328 C28,19.4275719 27.0082327,18.4358046 25.7894719,18.4358046 Z" id="phone"></path>
                    </g>
                </g>
            </g>
        </g>
    </g>
</svg>