<?xml version="1.0" encoding="UTF-8"?>
<svg width="20px" height="20px" viewBox="0 0 20 20" version="1.1" xmlns="http://www.w3.org/2000/svg" xmlns:xlink="http://www.w3.org/1999/xlink">
    <title>fb</title>
    <g id="Final-designs" stroke="none" stroke-width="1" fill="none" fill-rule="evenodd">
        <g id="01.Final-Home-page" transform="translate(-846.000000, -5268.000000)" fill="#7DB7B8">
            <g id="footer" transform="translate(0.000000, 4900.000000)">
                <g id="social-link" transform="translate(846.000000, 368.000000)">
                    <path d="M14.3028166,2.30173027e-16 C16.2838514,-1.33737157e-16 17.0022225,0.206266851 17.7264592,0.593592879 C18.4506959,0.980918906 19.0190811,1.54930411 19.4064071,2.27354081 C19.7937331,2.99777751 20,3.71614859 20,5.69718337 L20,14.3028166 C20,16.2838514 19.7937331,17.0022225 19.4064071,17.7264592 C19.0190811,18.4506959 18.4506959,19.0190811 17.7264592,19.4064071 C17.0022225,19.7937331 16.2838514,20 14.3028166,20 L13.525447,20 L13.525447,12.5465278 L16.0030183,12.5465278 L16.3963188,9.58402778 L13.5247063,9.58402778 L13.5247063,7.54305556 C13.525447,6.68680556 13.7713524,6.10069444 15.0438389,6.10069444 L16.6666667,6.10069444 L16.6666667,3.45069444 C16.38669,3.41458333 15.4238073,3.33333333 14.3024192,3.33333333 C11.9626142,3.33333333 10.3597848,4.71319444 10.3597848,7.24930556 L10.3597848,9.58333333 L7.77777778,9.58333333 L7.77777778,12.5458333 L10.3597848,12.5458333 L10.3597848,20 L5.69718337,20 C3.71614859,20 2.99777751,19.7937331 2.27354081,19.4064071 C1.54930411,19.0190811 0.980918906,18.4506959 0.593592879,17.7264592 C0.206266851,17.0022225 8.91581047e-17,16.2838514 -1.53448685e-16,14.3028166 L1.53448685e-16,5.69718337 C-8.91581047e-17,3.71614859 0.206266851,2.99777751 0.593592879,2.27354081 C0.980918906,1.54930411 1.54930411,0.980918906 2.27354081,0.593592879 C2.99777751,0.206266851 3.71614859,1.33737157e-16 5.69718337,-2.30173027e-16 L14.3028166,2.30173027e-16 Z" id="fb"></path>
                </g>
            </g>
        </g>
    </g>
</svg>