<?xml version="1.0" encoding="UTF-8"?>
<svg width="20px" height="20px" viewBox="0 0 20 20" version="1.1" xmlns="http://www.w3.org/2000/svg" xmlns:xlink="http://www.w3.org/1999/xlink">
    <title>instagram</title>
    <g id="Final-designs" stroke="none" stroke-width="1" fill="none" fill-rule="evenodd">
        <g id="01.Final-Home-page" transform="translate(-1054.000000, -5268.000000)" fill="#7DB7B8">
            <g id="footer" transform="translate(0.000000, 4900.000000)">
                <g id="social-link" transform="translate(846.000000, 368.000000)">
                    <path d="M222.130754,0.0609527411 C223.193805,0.107812719 223.920826,0.279683499 224.557771,0.525889118 C225.222197,0.775910724 225.827998,1.17063343 226.328302,1.6786138 C226.840362,2.1788096 227.231201,2.78050992 227.485246,3.4525765 C227.704143,4.01537095 227.864293,4.65523084 227.930098,5.5369268 L227.968336,6.31346453 C227.98901,6.85578956 227.99677,7.30442226 227.999589,8.29506007 L227.995255,12.180672 C227.987817,13.0635409 227.972215,13.4477265 227.942497,14.1241328 C227.895627,15.1869535 227.723566,15.9138172 227.47746,16.5507769 C226.957613,17.8949101 225.894562,18.9577308 224.549985,19.4774643 C223.916857,19.7236699 223.186019,19.8955407 222.122967,19.9424007 L221.419985,19.9710668 C220.889249,19.9894067 220.345246,19.9974079 219.14551,20 L215.895526,19.9957898 C214.958322,19.9886428 214.571676,19.9730445 213.876268,19.9424007 C212.813064,19.8955407 212.086195,19.7236699 211.449098,19.4774643 C210.784672,19.2274427 210.178871,18.83272 209.678567,18.3247397 C209.170477,17.8245438 208.775821,17.2228435 208.521776,16.5507769 C208.275517,15.9176332 208.103456,15.1869535 208.056586,14.1241328 L208.029347,13.4603992 C208.012732,12.9925093 208.004204,12.5265774 208.000445,11.621559 L207.999589,8.6324767 C208.004226,7.12073201 208.019884,6.73185839 208.060555,5.8752521 C208.107426,4.81243138 208.279334,4.08572026 208.525593,3.44876051 C208.775821,2.7844785 209.170477,2.1788096 209.678567,1.6786138 C210.178871,1.16666485 210.780702,0.775910724 211.453067,0.521920541 C212.086195,0.275867512 212.817034,0.103844142 213.880085,0.056984164 L214.543962,0.0297512893 C215.011954,0.0131393121 215.477986,0.00461405224 216.383201,0.000855791536 L219.372931,0 C220.885004,0.00463531803 221.273962,0.0202898975 222.130754,0.0609527411 Z M218.003434,4.86325994 C215.166036,4.86325994 212.863904,7.16474072 212.863904,10.0016767 C212.863904,12.8386127 215.166036,15.1400935 218.003434,15.1400935 C220.840986,15.1400935 223.142965,12.8386127 223.142965,10.0016767 C223.142965,7.16474072 220.840986,4.86325994 218.003434,4.86325994 Z M218.003434,6.66851349 C219.844346,6.66851349 221.33732,8.16116374 221.33732,10.0016767 C221.33732,11.8421897 219.844346,13.33484 218.003434,13.33484 C216.162675,13.33484 214.669549,11.8421897 214.669549,10.0016767 C214.669549,8.16116374 216.162675,6.66851349 218.003434,6.66851349 Z M223.346171,3.46051366 C222.683577,3.46051366 222.146326,3.99749532 222.146326,4.66009831 C222.146326,5.32254867 222.683577,5.85968297 223.346171,5.85968297 C224.008918,5.85968297 224.546168,5.32254867 224.546168,4.66009831 C224.546168,3.99749532 224.008918,3.46051366 223.346171,3.46051366 Z" id="instagram"></path>
                </g>
            </g>
        </g>
    </g>
</svg>