<?xml version="1.0" encoding="UTF-8"?>
<svg width="20px" height="20px" viewBox="0 0 20 20" version="1.1" xmlns="http://www.w3.org/2000/svg" xmlns:xlink="http://www.w3.org/1999/xlink">
    <title>twitter</title>
    <g id="Final-designs" stroke="none" stroke-width="1" fill="none" fill-rule="evenodd">
        <g id="01.Final-Home-page" transform="translate(-898.000000, -5268.000000)" fill="#7DB7B8">
            <g id="footer" transform="translate(0.000000, 4900.000000)">
                <g id="social-link" transform="translate(846.000000, 368.000000)">
                    <path d="M66.3028166,2.30173027e-16 C68.2838514,-1.33737157e-16 69.0022225,0.206266851 69.7264592,0.593592879 C70.4506959,0.980918906 71.0190811,1.54930411 71.4064071,2.27354081 C71.7937331,2.99777751 72,3.71614859 72,5.69718337 L72,14.3028166 C72,16.2838514 71.7937331,17.0022225 71.4064071,17.7264592 C71.0190811,18.4506959 70.4506959,19.0190811 69.7264592,19.4064071 C69.0022225,19.7937331 68.2838514,20 66.3028166,20 L57.6971834,20 C55.7161486,20 54.9977775,19.7937331 54.2735408,19.4064071 C53.5493041,19.0190811 52.9809189,18.4506959 52.5935929,17.7264592 C52.2062669,17.0022225 52,16.2838514 52,14.3028166 L52,5.69718337 C52,3.71614859 52.2062669,2.99777751 52.5935929,2.27354081 C52.9809189,1.54930411 53.5493041,0.980918906 54.2735408,0.593592879 C54.9977775,0.206266851 55.7161486,1.33737157e-16 57.6971834,-2.30173027e-16 L66.3028166,2.30173027e-16 Z M64.5641667,4.44444444 C63.0508333,4.44444444 61.8325,5.67277778 61.8325,7.17861111 C61.8325,7.39527778 61.8508333,7.60361111 61.8958333,7.80194444 C59.6233333,7.69111111 57.6125,6.60194444 56.2616667,4.94277778 C56.0258333,5.35194444 55.8875,5.82027778 55.8875,6.32444444 C55.8875,7.27111111 56.375,8.11027778 57.1016667,8.59611111 C56.6625,8.58777778 56.2316667,8.46027778 55.8666667,8.25944444 L55.8666667,8.28944444 L55.8666667,8.28944444 C55.8666667,9.61777778 56.8141667,10.7211111 58.0566667,10.9752778 C57.8341667,11.0361111 57.5916667,11.0652778 57.34,11.0652778 C57.165,11.0652778 56.9883333,11.0552778 56.8225,11.0186111 C57.1766667,12.1011111 58.1816667,12.8969444 59.3766667,12.9227778 C58.4466667,13.6502778 57.2658333,14.0886111 55.9875,14.0886111 C55.7633333,14.0886111 55.5483333,14.0786111 55.3333333,14.0511111 C56.5441667,14.8319444 57.9791667,15.2777778 59.5266667,15.2777778 C64.5566667,15.2777778 67.3066667,11.1111111 67.3066667,7.49944444 C67.3066667,7.37861111 67.3025,7.26194444 67.2966667,7.14611111 C67.8391667,6.76111111 68.295,6.28027778 68.6666667,5.72694444 C68.1708333,5.94444444 67.6425,6.08861111 67.0916667,6.15861111 C67.6583333,5.82027778 68.0908333,5.28861111 68.2941667,4.64777778 C67.7658333,4.96277778 67.1825,5.18527778 66.5608333,5.30944444 C66.0591667,4.77527778 65.3441667,4.44444444 64.5641667,4.44444444 Z" id="twitter"></path>
                </g>
            </g>
        </g>
    </g>
</svg>