<?xml version="1.0" standalone="no"?>
<!DOCTYPE svg PUBLIC "-//W3C//DTD SVG 1.1//EN" "http://www.w3.org/Graphics/SVG/1.1/DTD/svg11.dtd" >
<svg xmlns="http://www.w3.org/2000/svg" xmlns:xlink="http://www.w3.org/1999/xlink" version="1.1">
<metadata>
Created by FontForge 20170731 at Mon Jan 11 13:54:27 2021
 By Aleksey,,,
(c) 2014 House Industries/Brand Design Co., Inc. All Rights Reserved.
</metadata>
<defs>
<font id="VeloSerifDisplay-Black" horiz-adv-x="1396" >
  <font-face 
    font-family="Velo Serif Display Bk"
    font-weight="900"
    font-stretch="normal"
    units-per-em="2048"
    panose-1="2 9 10 3 4 5 3 8 2 3"
    ascent="1638"
    descent="-410"
    x-height="1055"
    cap-height="1321"
    bbox="-381 -440 2879 1884"
    underline-thickness="40"
    underline-position="-312"
    unicode-range="U+0020-FB02"
  />
<missing-glyph horiz-adv-x="454" 
 />
    <glyph glyph-name="fi" unicode="fi" horiz-adv-x="1724" 
d="M1303 1438h49q109 0 168 -39t59 -131t-59 -131t-168 -39h-49q-109 0 -168.5 39t-59.5 131t59.5 131t168.5 39zM1708 119v-119h-764v119q86 0 117 27t31 112v524q0 85 -34 113.5t-114 28.5h-242q-47 0 -57 -8.5t-10 -47.5v-606q0 -50 8 -78t32.5 -42.5t55 -18.5t90.5 -4
v-119h-792v119q79 0 108 27t29 112v610q0 38 -10.5 47t-57.5 9h-94v131h94q46 0 57 8.5t11 38.5v8q0 153 115.5 217t363.5 64q153 0 237 -29t113 -81t29 -142h-313q0 86 -7.5 111.5t-29.5 25.5q-15 0 -22 -7.5t-12 -41t-5 -101.5v-20q0 -35 10.5 -43t56.5 -8h594
q181 0 265 16v-813q0 -86 30 -112.5t117 -26.5z" />
    <glyph glyph-name="fl" unicode="fl" horiz-adv-x="1744" 
d="M907 924h-205q-47 0 -57 -8.5t-10 -47.5v-606q0 -50 8 -78t32.5 -42.5t55 -18.5t90.5 -4v-119h-792v119q79 0 108 27t29 112v610q0 38 -10.5 47t-57.5 9h-94v131h94q46 0 57 8.5t11 38.5v8q0 153 114 217t357 64q113 0 186.5 -15t113.5 -48t55.5 -77t15.5 -112h-297
q0 86 -7.5 111.5t-29.5 25.5q-15 0 -22 -7.5t-12 -41t-5 -101.5v-20q0 -35 10.5 -43t56.5 -8h205v-131zM1729 119v-119h-764v119q86 0 116.5 27t30.5 112v844q0 60 -23.5 80t-68.5 20v119h561v-1063q0 -86 30.5 -112.5t117.5 -26.5z" />
    <glyph glyph-name="f_f" unicode="ff" horiz-adv-x="1859" 
d="M1827 924h-205q-47 0 -57.5 -9t-10.5 -47v-606q0 -50 8 -78t33 -42.5t55.5 -18.5t90.5 -4v-119h-793v119q79 0 108 27t29 112v610q0 39 -10 47.5t-57 8.5h-316q-47 0 -57 -8.5t-10 -47.5v-606q0 -50 8 -78t32.5 -42.5t55 -18.5t90.5 -4v-119h-792v119q79 0 108 27t29 112
v610q0 38 -10.5 47t-57.5 9h-94v131h94q46 0 57 8.5t11 38.5v8q0 153 115.5 217t363.5 64q153 0 237 -29t113 -81t29 -142h-313q0 86 -7.5 111.5t-29.5 25.5q-15 0 -22 -7.5t-12 -41t-5 -101.5v-20q0 -35 10.5 -43t56.5 -8h316q47 0 57 8.5t10 46.5v8q0 154 124 213.5
t407 59.5q119 0 198 -16t123.5 -49.5t62 -77.5t17.5 -109h-358q0 85 -10 111t-41 26q-30 0 -42 -29.5t-12 -122.5v-14q0 -38 10.5 -46.5t57.5 -8.5h205v-131z" />
    <glyph glyph-name="f_f_i" unicode="ffi" horiz-adv-x="2643" 
d="M2222 1438h49q109 0 168.5 -39t59.5 -131t-59.5 -131t-168.5 -39h-49q-109 0 -168 39t-59 131t59 131t168 39zM2628 119v-119h-764v119q86 0 116.5 27t30.5 112v524q0 85 -33.5 113.5t-113.5 28.5h-242q-47 0 -57.5 -9t-10.5 -47v-606q0 -50 8 -78t33 -42.5t55.5 -18.5
t90.5 -4v-119h-793v119q79 0 108 27t29 112v610q0 39 -10 47.5t-57 8.5h-316q-47 0 -57 -8.5t-10 -47.5v-606q0 -50 8 -78t32.5 -42.5t55 -18.5t90.5 -4v-119h-792v119q79 0 108 27t29 112v610q0 38 -10.5 47t-57.5 9h-94v131h94q46 0 57 8.5t11 38.5v8q0 153 115.5 217
t363.5 64q153 0 237 -29t113 -81t29 -142h-313q0 86 -7.5 111.5t-29.5 25.5q-15 0 -22 -7.5t-12 -41t-5 -101.5v-20q0 -35 10.5 -43t56.5 -8h316q46 0 56.5 8.5t10.5 38.5v8q0 153 116 217t364 64q153 0 237 -29t113 -81t29 -142h-314q0 86 -7.5 111.5t-29.5 25.5
q-15 0 -22 -7.5t-12 -41t-5 -101.5v-20q0 -35 11 -43t57 -8h594q180 0 264 16v-813q0 -86 30.5 -112.5t117.5 -26.5z" />
    <glyph glyph-name="f_f_l" unicode="ffl" horiz-adv-x="2664" 
d="M1827 924h-205q-47 0 -57.5 -9t-10.5 -47v-606q0 -50 8 -78t33 -42.5t55.5 -18.5t90.5 -4v-119h-793v119q79 0 108 27t29 112v610q0 39 -10 47.5t-57 8.5h-316q-47 0 -57 -8.5t-10 -47.5v-606q0 -50 8 -78t32.5 -42.5t55 -18.5t90.5 -4v-119h-792v119q79 0 108 27t29 112
v610q0 38 -10.5 47t-57.5 9h-94v131h94q46 0 57 8.5t11 38.5v8q0 153 115.5 217t363.5 64q153 0 237 -29t113 -81t29 -142h-313q0 86 -7.5 111.5t-29.5 25.5q-15 0 -22 -7.5t-12 -41t-5 -101.5v-20q0 -35 10.5 -43t56.5 -8h316q46 0 56.5 8.5t10.5 38.5v8q0 153 114 217
t357 64q113 0 186.5 -15t113.5 -48t55.5 -77t15.5 -112h-297q0 86 -7.5 111.5t-29.5 25.5q-15 0 -22 -7.5t-12 -41t-5 -101.5v-20q0 -35 11 -43t57 -8h205v-131zM2648 119v-119h-764v119q86 0 117 27t31 112v844q0 60 -24 80t-69 20v119h562v-1063q0 -86 30 -112.5
t117 -26.5z" />
    <glyph glyph-name=".notdef" horiz-adv-x="454" 
 />
    <glyph glyph-name=".null" horiz-adv-x="0" 
 />
    <glyph glyph-name="nonmarkingreturn" horiz-adv-x="682" 
 />
    <glyph glyph-name="space" unicode=" " horiz-adv-x="454" 
 />
    <glyph glyph-name="exclam" unicode="!" horiz-adv-x="634" 
d="M324 -25h-13q-221 0 -221 197t221 197h13q221 0 221 -197t-221 -197zM33 1321h569q-64 -210 -122 -475t-58 -387v-10h-209v10q0 122 -58 387t-122 475z" />
    <glyph glyph-name="quotedbl" unicode="&#x22;" horiz-adv-x="980" 
d="M432 799h-346v55q0 230 -29 467h404q-29 -237 -29 -467v-55zM895 799h-346v55q0 230 -29 467h404q-29 -237 -29 -467v-55z" />
    <glyph glyph-name="numbersign" unicode="#" horiz-adv-x="1124" 
d="M1004 494v-279h-170q-20 0 -27 -6t-10 -27l-29 -182h-147l28 180q3 20 -3 27.5t-28 7.5h-266q-20 0 -27 -6t-10 -27l-28 -182h-148l29 180q3 20 -3 27.5t-28 7.5h-108v279h157q20 0 27 5.5t10 26.5l45 273q3 20 -2.5 26t-27.5 6h-119v279h168q20 0 27 6t10 27l28 178h148
l-29 -178q-3 -20 3 -26.5t28 -6.5h266q20 0 27 6t10 27l29 178h147l-29 -178q-3 -20 3 -26.5t28 -6.5h111v-279h-160q-20 0 -27 -5.5t-10 -26.5l-45 -273q-3 -20 3 -26t28 -6h121zM668 494q20 0 27 5.5t10 26.5l45 273q3 20 -3 26t-28 6h-266q-20 0 -27 -5.5t-10 -26.5
l-45 -273q-3 -20 2.5 -26t27.5 -6h267z" />
    <glyph glyph-name="dollar" unicode="$" horiz-adv-x="1394" 
d="M1292 1030h-413q0 99 -21.5 146.5t-75.5 66.5q-32 10 -32 -22v-308q0 -14 5.5 -20.5t20.5 -7.5l107 -15q66 -9 112.5 -18.5t97 -25.5t84 -36.5t65.5 -52t50.5 -72.5t29.5 -97t11 -126q0 -133 -33.5 -223t-105.5 -143t-169 -78t-239 -31q-23 -1 -29.5 -8.5t-6.5 -26.5
q0 -48 8 -184h-146q9 153 9 184q0 20 -7.5 27.5t-29.5 7.5q-207 6 -327 47t-170 117.5t-50 204.5h426q0 -130 27.5 -185.5t97.5 -74.5q17 -6 25 -1.5t8 25.5v340q0 26 -27 29l-92 12q-110 15 -185 41.5t-131 73.5t-82 121.5t-26 181.5q0 122 30.5 206.5t95.5 137t156.5 78.5
t223.5 33q23 1 30 8.5t7 26.5q-2 73 -9 184h146q-8 -126 -8 -184q0 -19 6.5 -26.5t29.5 -8.5q145 -5 244.5 -29t156.5 -66.5t81 -97.5t24 -131zM907 254q0 87 -29 126t-104 60q-24 6 -24 -16v-326q0 -17 7.5 -21t24.5 -1q71 14 98 56t27 122zM496 1073q0 -78 21.5 -111.5
t76.5 -48.5q12 -3 19.5 1.5t7.5 15.5v287q0 21 -8 26t-25 -2q-53 -20 -72.5 -61t-19.5 -107z" />
    <glyph glyph-name="percent" unicode="%" horiz-adv-x="2037" 
d="M487 -18l754 1357h311l-753 -1357h-312zM457 1356q191 0 282 -56q131 -80 131 -325q0 -248 -131 -328q-90 -55 -282 -55q-193 0 -283 55q-131 80 -131 328q0 245 131 325q91 56 283 56zM457 1241q-40 0 -54 -33q-16 -46 -16 -233q0 -190 16 -236q8 -18 19.5 -25t34.5 -7
t34 7t19 25q16 46 16 236q0 187 -16 233q-14 33 -53 33zM1581 729q193 0 283 -55q131 -80 131 -326q0 -248 -131 -328q-90 -55 -283 -55t-283 55q-131 80 -131 328q0 246 131 326q90 55 283 55zM1581 614q-23 0 -34 -7t-19 -25q-17 -49 -17 -234q0 -186 17 -235
q14 -33 53 -33t53 33q17 49 17 235q0 185 -17 234q-8 18 -19 25t-34 7z" />
    <glyph glyph-name="ampersand" unicode="&#x26;" horiz-adv-x="1660" 
d="M1278 1026h-451q0 122 -16 167.5t-61 45.5q-37 0 -53.5 -26t-16.5 -83q0 -62 25 -105t112 -120l400 -356q9 -10 17.5 -7t8.5 19v31q0 53 -26 71.5t-95 18.5v109h385v-109q-69 0 -95 -23.5t-26 -87.5v-18q0 -44 -4 -90q-5 -33 -1 -48.5t24 -33.5l33 -29q76 -67 124 -158.5
t62 -193.5h-487q-13 21 -19 29q-13 18 -23.5 19.5t-31.5 -11.5q-132 -72 -393 -72q-309 0 -439 62q-96 45 -139 123t-43 198q0 159 62 238.5t229 115.5q38 9 8 39q-72 72 -100.5 137t-28.5 160q0 77 22 132t63 91t109.5 57t151 29.5t197.5 8.5q110 0 188 -8.5t143 -30
t104 -59t60 -94.5t21 -138zM979 180l-385 340q-47 42 -51 -22q-4 -62 -4 -133q0 -86 11.5 -138t41.5 -80q52 -49 194 -49q107 0 185 37q19 8 22 20t-14 25z" />
    <glyph glyph-name="quotesingle" unicode="'" horiz-adv-x="518" 
d="M432 799h-346v55q0 230 -29 467h404q-29 -237 -29 -467v-55z" />
    <glyph glyph-name="parenleft" unicode="(" horiz-adv-x="718" 
d="M702 1489v-133q-66 -11 -118.5 -48.5t-81.5 -97.5q-37 -77 -49.5 -221t-12.5 -385q0 -252 13 -402t51 -227q63 -126 207 -149v-133q-295 0 -437 133q-61 58 -102.5 142t-63 188t-30 207.5t-8.5 228.5t8.5 228.5t30 206.5t62.5 187t101 142q139 133 430 133z" />
    <glyph glyph-name="parenright" unicode=")" horiz-adv-x="718" 
d="M8 -307v133q69 11 123 47.5t84 97.5q64 131 64 607q0 246 -13 398t-49 230q-28 63 -81 101t-120 49v133q291 0 430 -133q80 -76 127 -204.5t61.5 -259.5t14.5 -302q0 -170 -15 -302t-62.5 -259.5t-127.5 -202.5q-142 -133 -436 -133z" />
    <glyph glyph-name="asterisk" unicode="*" horiz-adv-x="880" 
d="M606 1321q-63 -123 -88 -217q-2 -8 4 -11.5t13 3.5q63 65 135 176l166 -287q-129 -7 -207 -27q-9 -3 -9 -8t9 -8q78 -20 207 -27l-166 -286q-72 111 -133 174q-7 7 -13 3.5t-4 -11.5q22 -88 86 -211h-332q65 127 88 213q2 8 -3.5 11.5t-12.5 -3.5q-63 -65 -135 -176
l-166 286q129 7 207 27q9 3 9 8t-9 8q-75 20 -207 27l166 287q68 -104 135 -174q7 -7 12.5 -3.5t3.5 11.5q-22 88 -88 215h332z" />
    <glyph glyph-name="plus" unicode="+" horiz-adv-x="1126" 
d="M690 240h-256v276q0 22 -7 28.5t-34 6.5h-280v225h280q27 0 34 6.5t7 28.5v276h256v-276q0 -22 7 -28.5t34 -6.5h283v-225h-283q-27 0 -34 -6.5t-7 -28.5v-276z" />
    <glyph glyph-name="comma" unicode="," horiz-adv-x="573" 
d="M283 414h10q125 0 183.5 -63.5t58.5 -213.5q0 -120 -21 -200.5t-72 -136.5t-135 -80.5t-211 -24.5v106q134 0 204.5 41.5t70.5 137.5q0 43 -21 53t-78 -2q-111 -21 -164 27.5t-53 152.5q0 106 62.5 154.5t165.5 48.5z" />
    <glyph glyph-name="hyphen" unicode="-" horiz-adv-x="788" 
d="M504 469h-219q-109 0 -234 -8v235q125 -8 234 -8h219q108 0 233 8v-235q-125 8 -233 8z" />
    <glyph glyph-name="period" unicode="." horiz-adv-x="573" 
d="M293 -25h-12q-244 0 -244 220q0 219 244 219h12q244 0 244 -219q0 -220 -244 -220z" />
    <glyph glyph-name="slash" unicode="/" horiz-adv-x="983" 
d="M12 -195l627 1584h299l-627 -1584h-299z" />
    <glyph glyph-name="zero" unicode="0" horiz-adv-x="1441" 
d="M59 662q0 440 213 595q138 99 449 99q310 0 448 -99q213 -155 213 -598q0 -441 -213 -596q-137 -98 -448 -98q-312 0 -449 98q-213 155 -213 599zM721 1235q-48 0 -72 -17t-43 -55q-39 -90 -39 -501q0 -414 39 -504q19 -38 43 -55t72 -17t72 17t43 55q38 88 38 504
q0 413 -38 501q-19 38 -43 55t-72 17z" />
    <glyph glyph-name="one" unicode="1" horiz-adv-x="966" 
d="M70 0v113q78 0 119.5 4.5t68 20.5t34 41.5t7.5 72.5v692q0 33 -33 19q-75 -33 -192 -33h-17v129h25q282 0 330 262h376v-1069q0 -88 30 -113.5t134 -25.5v-113h-882z" />
    <glyph glyph-name="two" unicode="2" horiz-adv-x="1271" 
d="M53 0v313q0 70 9.5 122t33 93.5t55.5 71.5t84.5 55t111.5 43.5t145 38.5q89 21 141 44.5t79.5 62t35.5 81.5t8 119q0 118 -21 158q-12 22 -30 28.5t-50 6.5q-46 0 -69 -22.5t-36 -97.5t-13 -224h-459q0 98 9.5 165.5t36 121.5t66.5 86t106.5 53t150 29t204.5 8
q82 0 140.5 -3t120.5 -12.5t104 -26.5t81 -45.5t61.5 -69.5t36 -98.5t13.5 -131.5q0 -89 -16.5 -149.5t-52.5 -107t-102.5 -75t-158 -47t-227.5 -29.5q-73 -6 -130 -13t-102 -14t-78 -17t-56.5 -18t-38.5 -22t-24 -25t-13 -30.5t-5 -34t-1 -39.5v-4q0 -20 8.5 -26.5
t32.5 -6.5h622q40 0 67 14t39.5 39.5t17.5 52t5 62.5h217v-479h-1159z" />
    <glyph glyph-name="three" unicode="3" horiz-adv-x="1314" 
d="M551 969h-461q0 95 19 160.5t57 110.5t105.5 70t154.5 35.5t215 10.5q290 0 408 -56q85 -42 124 -110.5t39 -171.5q0 -131 -64 -212.5t-181 -88.5q-14 -1 -20.5 -9.5t-1 -17t21.5 -10.5q151 -15 224 -91.5t73 -232.5q0 -122 -44 -202t-141 -125q-131 -64 -448 -64
q-115 0 -196 7t-150.5 26t-112.5 51t-74 83t-44 120.5t-13 165.5h471q0 -147 10.5 -216.5t35.5 -94.5t79 -25q44 0 67 9.5t37 39.5q25 51 25 229q0 68 -1.5 109.5t-8.5 76t-16 51t-29 28t-43 14t-62 2.5q-166 0 -235 -10v137q71 -10 225 -10q23 0 37.5 1t28.5 6t22 11.5
t15 21t10.5 31t6 45t3 59t0.5 77.5q0 147 -17 188q-11 26 -25 33.5t-42 7.5q-37 0 -53.5 -21t-23.5 -76t-7 -173z" />
    <glyph glyph-name="four" unicode="4" horiz-adv-x="1376" 
d="M16 283v141q0 59 14.5 105.5t48.5 88.5t67 71.5t94 76.5q78 60 120.5 100t79 97t50.5 127t14 170v61h522v-47q0 -74 -13.5 -134.5t-43 -111t-68 -91.5t-98.5 -80.5t-124 -72t-153 -71.5q-213 -94 -289.5 -142.5t-76.5 -99.5v-8q0 -20 8.5 -26.5t32.5 -6.5h413
q23 0 31 6.5t8 28.5v149q0 34 8 49t33 25l449 184v-407q0 -22 8 -28.5t31 -6.5q98 0 166 16v-163h-166q-23 0 -31 -6.5t-8 -28.5v-19q0 -69 35 -92.5t143 -23.5v-113h-846v113q108 0 143 23.5t35 92.5v19q0 22 -8 28.5t-31 6.5h-598z" />
    <glyph glyph-name="five" unicode="5" horiz-adv-x="1312" 
d="M1214 1321v-422h-217q0 55 -22 71.5t-90 16.5h-584q-23 0 -31 -6.5t-8 -30.5v-274q1 -19 10.5 -19t22.5 15q135 157 432 157q276 0 395 -90q142 -109 142 -358q0 -127 -43.5 -209t-145.5 -141q-110 -66 -452 -66q-119 0 -200 7t-147 27t-105 51t-65 83.5t-35.5 120
t-9.5 164.5h465q0 -110 7.5 -179.5t24 -102.5t34.5 -43.5t47 -10.5q42 0 61.5 9.5t36.5 39.5q27 61 27 221q0 113 -10 171.5t-39 90.5q-25 26 -59 38t-97 12q-126 0 -209 -89q-20 -23 -37 -31.5t-45 -8.5h-147v786h1093z" />
    <glyph glyph-name="six" unicode="6" horiz-adv-x="1372" 
d="M1286 969h-450q0 162 -22 216t-91 54q-49 0 -78 -19.5t-47 -72.5q-29 -88 -29 -377q0 -10 5 -13t12 0t14 11q29 34 56.5 54t87.5 35t149 15q213 0 311 -79q121 -100 121 -363q0 -140 -41.5 -234t-130.5 -149q-137 -82 -459 -82q-327 0 -458 119q-175 160 -175 571
q0 444 215 598q142 103 457 103q120 0 202.5 -9t153 -33.5t111.5 -67.5t63.5 -111.5t22.5 -165.5zM707 705q-83 0 -110.5 -67.5t-27.5 -254.5q0 -182 25 -240q14 -35 38 -48t66 -13t66.5 12.5t38.5 46.5q22 50 22 254q0 121 -6.5 183.5t-30.5 91.5q-25 35 -81 35z" />
    <glyph glyph-name="seven" unicode="7" horiz-adv-x="1230" 
d="M1192 1321v-336q0 -170 -45 -261.5t-178 -172.5q-52 -31 -83 -58t-52.5 -56.5t-31 -74.5t-13 -94.5t-3.5 -134.5v-133h-481v113q0 101 9 171t34 133.5t71.5 109t118.5 85t177 74.5q93 30 144.5 49.5t94.5 40t61 41.5t27 46.5t9 62.5v12q0 20 -8.5 28.5t-32.5 8.5h-555
q-132 0 -169.5 -30.5t-37.5 -139.5h-215v516h1159z" />
    <glyph glyph-name="eight" unicode="8" horiz-adv-x="1388" 
d="M694 1356q301 0 424 -60q90 -45 131 -119t41 -186q0 -123 -68.5 -198t-191.5 -82q-14 -1 -20.5 -9.5t-1 -17t21.5 -10.5q156 -15 231.5 -88.5t75.5 -225.5q0 -124 -44 -204.5t-144 -126.5q-134 -64 -455 -64q-320 0 -454 64q-100 46 -144.5 127t-44.5 204
q0 152 74.5 225.5t230.5 88.5q16 2 21.5 10.5t-1 17t-20.5 9.5q-123 7 -191.5 82t-68.5 198q0 224 172 305q131 60 426 60zM694 1239q-35 0 -53.5 -8.5t-28.5 -34.5q-18 -42 -18 -205q0 -168 18 -205q10 -23 28 -29.5t54 -6.5t54 6.5t28 29.5q19 39 19 205q0 160 -19 205
q-10 26 -28.5 34.5t-53.5 8.5zM694 82q51 0 77 9.5t40 39.5q27 50 27 229q0 189 -27 232q-14 26 -40 33.5t-77 7.5t-76.5 -7.5t-39.5 -33.5q-27 -43 -27 -232q0 -179 27 -229q14 -30 40 -39.5t76 -9.5z" />
    <glyph glyph-name="nine" unicode="9" horiz-adv-x="1368" 
d="M66 350h452q0 -163 24 -215.5t99 -52.5q51 0 83 20t48 74q27 87 27 385q0 10 -5 13t-12.5 0t-13.5 -11q-28 -34 -54.5 -53.5t-85 -35t-143.5 -15.5q-210 0 -307 80q-119 94 -119 358q0 276 177 377q145 82 446 82q325 0 453 -119q172 -160 172 -571q0 -446 -211 -598
q-145 -103 -465 -103q-79 0 -138.5 3t-116.5 11t-98.5 21t-78 33.5t-60 49.5t-41 67.5t-25 88t-7.5 111.5zM668 627q78 0 104.5 66t26.5 249q0 181 -25 236q-13 35 -35.5 48t-62.5 13t-62.5 -12.5t-35.5 -46.5q-23 -50 -23 -248q0 -119 6 -180.5t29 -89.5q25 -35 78 -35z
" />
    <glyph glyph-name="colon" unicode=":" horiz-adv-x="577" 
d="M295 -25h-12q-232 0 -232 209t232 209h12q231 0 231 -209t-231 -209zM295 610h-12q-232 0 -232 209t232 209h12q231 0 231 -209t-231 -209z" />
    <glyph glyph-name="semicolon" unicode=";" horiz-adv-x="577" 
d="M301 610h-12q-232 0 -232 209t232 209h12q231 0 231 -209t-231 -209zM283 414h10q125 0 183.5 -63.5t58.5 -213.5q0 -120 -21 -200.5t-72 -136.5t-135 -80.5t-211 -24.5v106q134 0 204.5 41.5t70.5 137.5q0 43 -21 53t-78 -2q-111 -21 -164 27.5t-53 152.5
q0 106 62.5 154.5t165.5 48.5z" />
    <glyph glyph-name="less" unicode="&#x3c;" horiz-adv-x="1126" 
d="M160 569v179q0 39 14.5 57.5t50.5 34.5l717 315v-233l-547 -236q-21 -9 -21 -24.5t21 -24.5l547 -236v-245l-717 321q-36 17 -50.5 35t-14.5 57z" />
    <glyph glyph-name="equal" unicode="=" horiz-adv-x="1126" 
d="M1004 604v-219h-881v219h881zM1004 942v-219h-881v219h881z" />
    <glyph glyph-name="greater" unicode="&#x3e;" horiz-adv-x="1126" 
d="M967 748v-179q0 -38 -15 -56.5t-51 -35.5l-717 -321v243l547 236q21 9 21 24.5t-21 24.5l-547 236v235l717 -315q37 -16 51.5 -34.5t14.5 -57.5z" />
    <glyph glyph-name="question" unicode="?" horiz-adv-x="1185" 
d="M604 449h-174v43q0 106 13 165.5t41 96.5t87 80q33 23 48.5 45.5t23.5 67t8 126.5q0 91 -14 131q-7 19 -20 26t-37 7q-36 0 -51.5 -20.5t-23 -91t-7.5 -226.5h-478q0 100 11.5 170.5t40.5 122.5t69.5 83t109 49.5t147 25t194.5 6.5q278 0 391 -45q91 -36 131.5 -101
t40.5 -166q0 -80 -17.5 -133.5t-59 -88.5t-90.5 -55t-132 -40q-88 -22 -134 -38t-75 -42t-36 -56t-7 -85v-57zM524 -25h-12q-221 0 -221 197t221 197h12q221 0 221 -197t-221 -197z" />
    <glyph glyph-name="at" unicode="@" horiz-adv-x="1880" 
d="M1548 842l-123 -574q-20 -98 -1 -134t75 -36q101 0 147 90.5t46 268.5q0 371 -181 518q-92 74 -227.5 108.5t-343.5 34.5q-207 0 -345 -35t-228 -108q-96 -79 -137.5 -214.5t-41.5 -340.5q0 -203 40.5 -337.5t136.5 -209.5q94 -73 229.5 -109t335.5 -36q234 0 389 47
l29 -97q-168 -53 -416 -53q-434 0 -645 162q-122 95 -175 247.5t-53 385.5q0 242 53.5 398.5t180.5 248.5q222 162 647 162q421 0 647 -162q124 -90 179 -237t55 -367q0 -137 -20 -228t-70 -155.5t-136 -93.5t-217 -29q-139 0 -213 33.5t-114 122.5q-12 27 -29 4
q-57 -83 -132.5 -121.5t-203.5 -38.5q-213 0 -295.5 101.5t-44.5 336.5q40 244 153 364t332 120q119 0 178.5 -28t88.5 -91q5 -11 11.5 -11.5t12.5 11.5q26 47 59 64.5t83 17.5h284zM1030 518q23 123 7.5 165t-68.5 42q-45 0 -71.5 -25t-53 -110t-53.5 -254
q-23 -132 -13 -178.5t66 -46.5q58 0 89.5 47t57.5 172z" />
    <glyph glyph-name="A" unicode="A" horiz-adv-x="1624" 
d="M18 119q57 0 92.5 27t59.5 98l348 1005q15 45 33.5 58.5t71.5 13.5h385q53 0 70.5 -13.5t33.5 -58.5l342 -1005q26 -75 57 -100t93 -25v-119h-850v119q131 0 166 29t12 100l-33 108q-8 31 -45 31h-428q-20 0 -29.5 -6.5t-15.5 -24.5l-10 -30q-23 -74 -23 -113
q0 -55 42.5 -74.5t160.5 -19.5v-119h-533v119zM627 1120l-187 -579q-11 -33 25 -33h354q34 0 25 33l-178 579q-8 24 -19.5 24t-19.5 -24z" />
    <glyph glyph-name="B" unicode="B" horiz-adv-x="1546" 
d="M20 0v119q104 0 136 26t32 113v803q0 89 -31.5 115t-136.5 26v119h777q165 0 280.5 -14t186.5 -39t110 -68t52.5 -90.5t13.5 -118.5q0 -58 -11 -100.5t-41.5 -82.5t-91.5 -66.5t-153 -39.5q-23 -3 -22.5 -15.5t22.5 -14.5q191 -17 270.5 -87t79.5 -227
q0 -77 -13.5 -128.5t-53.5 -98.5t-112.5 -73.5t-190 -42t-285.5 -15.5h-818zM682 578v-412q0 -23 7.5 -29t31.5 -6h86q59 0 92.5 9.5t52 38t24 68t5.5 111.5q0 65 -3 102.5t-13 71t-30 48.5t-52 23.5t-82 8.5h-80q-23 0 -31 -6t-8 -28zM760 1190h-39q-23 0 -31 -6.5
t-8 -28.5v-377q0 -23 7.5 -29t31.5 -6h55q54 0 85 10t47.5 39.5t21 68.5t4.5 112q0 69 -5.5 106.5t-24 65t-52 36.5t-92.5 9z" />
    <glyph glyph-name="C" unicode="C" horiz-adv-x="1554" 
d="M993 899q0 190 -38 260t-154 70q-70 0 -106 -19t-64 -59q-58 -93 -58 -489q0 -388 58 -494q24 -38 62 -57t110 -19q124 0 164.5 79t40.5 298h499q0 -146 -42 -244t-133 -155.5t-218 -81t-313 -23.5q-354 0 -508 98q-244 153 -244 599q0 442 244 595q156 99 508 99
q162 0 280 -19t196 -54t124 -92.5t65 -127t19 -164.5h-492z" />
    <glyph glyph-name="D" unicode="D" horiz-adv-x="1658" 
d="M20 1321h852q346 0 500 -92q240 -146 240 -574q0 -114 -19 -213t-75 -197.5t-146 -154.5q-145 -90 -500 -90h-852v119q104 0 136 26t32 113v803q0 89 -31.5 115t-136.5 26v119zM735 131h117q74 0 112.5 17t65.5 53q62 83 62 458q0 379 -62 461q-27 36 -65.5 53t-112.5 17
h-117q-23 0 -31 -6.5t-8 -28.5v-989q0 -23 7.5 -29t31.5 -6z" />
    <glyph glyph-name="E" unicode="E" horiz-adv-x="1394" 
d="M1303 1321v-367h-285q0 79 -10.5 125t-40.5 71t-69.5 32.5t-111.5 7.5h-65q-23 0 -31 -6.5t-8 -28.5v-377q0 -23 7.5 -29t31.5 -6h70q81 0 107 25.5t26 114.5h221v-420h-221q0 95 -26 122t-107 27h-70q-23 0 -31 -6t-8 -28v-412q0 -23 7.5 -29t31.5 -6h72q60 0 97.5 3
t71 13t51 26.5t30.5 47.5t17.5 72t4.5 102h285v-395h-1330v119q104 0 136 26t32 113v803q0 89 -31.5 115t-136.5 26v119h1283z" />
    <glyph glyph-name="F" unicode="F" horiz-adv-x="1343" 
d="M1139 870v-444h-226q0 72 -12.5 106t-38.5 45t-82 11h-59q-23 0 -31 -6.5t-8 -28.5v-295q0 -49 6.5 -73.5t32 -41t66.5 -20.5t120 -4v-119h-887v119q104 0 136 26t32 113v803q0 89 -31.5 115t-136.5 26v119h1283v-375h-289q0 82 -10.5 129.5t-40.5 73.5t-69.5 33.5
t-111.5 7.5h-61q-23 0 -31 -6.5t-8 -28.5v-401q0 -23 7.5 -29t31.5 -6h59q56 0 82 9.5t38.5 41.5t12.5 100h226z" />
    <glyph glyph-name="G" unicode="G" horiz-adv-x="1603" 
d="M1006 899q0 195 -38.5 262.5t-164.5 67.5q-70 0 -107 -19t-65 -59q-58 -83 -58 -489q0 -388 58 -494q40 -76 174 -76t177.5 58t43.5 233v43q0 44 -6.5 68t-31 40t-64.5 20.5t-113 4.5h-25v113h803v-113q-63 0 -85.5 -26t-22.5 -89v-49q0 -101 -27.5 -174.5t-79.5 -123
t-136.5 -78.5t-188.5 -41.5t-246 -12.5q-359 0 -510 98q-244 156 -244 599t244 595q156 99 510 99q161 0 277 -18.5t191.5 -53t119.5 -92t61.5 -127t17.5 -166.5h-464z" />
    <glyph glyph-name="H" unicode="H" horiz-adv-x="1726" 
d="M20 0v119q104 0 136 26t32 113v803q0 89 -31.5 115t-136.5 26v119h809v-119q-95 0 -118 -25t-23 -118v-271q0 -28 11.5 -36.5t50.5 -8.5h225q39 0 50 8.5t11 36.5v271q0 93 -23 118t-118 25v119h811v-119q-105 0 -136.5 -26t-31.5 -115v-803q0 -87 32 -113t136 -26v-119
h-811v119q50 0 77 5t42 23t18.5 42.5t3.5 72.5v305q0 28 -11 36.5t-50 8.5h-225q-39 0 -50.5 -8.5t-11.5 -36.5v-305q0 -48 3.5 -72.5t18.5 -42.5t42 -23t77 -5v-119h-809z" />
    <glyph glyph-name="I" unicode="I" horiz-adv-x="905" 
d="M20 0v119q111 0 145 26t34 113v803q0 89 -33 115t-146 26v119h865v-119q-113 0 -145.5 -26t-32.5 -115v-803q0 -87 33.5 -113t144.5 -26v-119h-865z" />
    <glyph glyph-name="J" unicode="J" horiz-adv-x="1349" 
d="M430 1321h901v-119q-105 0 -136.5 -26t-31.5 -115v-612q0 -138 -30.5 -228t-103.5 -148.5t-188 -83t-290 -24.5q-141 0 -235.5 15.5t-164 55t-101.5 108.5t-32 173v152h439v-137q0 -139 20.5 -189.5t81.5 -50.5q23 0 39 6t27 25t16.5 40t9 66.5t4 87.5t0.5 119v627
q0 49 -6.5 73.5t-32 41t-66.5 20.5t-120 4v119z" />
    <glyph glyph-name="K" unicode="K" horiz-adv-x="1718" 
d="M682 1059v-316q0 -16 9.5 -20.5t21.5 6.5l301 277q79 71 103 100t24 51q0 15 -7.5 23t-31 13.5t-61.5 7t-105 1.5v119h659v-119q-75 0 -125.5 -18.5t-126.5 -85.5l-190 -170q-25 -25 -8 -56l385 -641q43 -69 76.5 -90.5t89.5 -21.5v-119h-819v119q60 0 83 9t23 36
q0 32 -35 96l-162 309q-18 34 -43 9l-36 -33q-25 -22 -25 -58v-225q0 -48 3.5 -72.5t18.5 -42.5t42 -23t77 -5v-119h-803v119q104 0 136 26t32 113v803q0 89 -31.5 115t-136.5 26v119h803v-119q-95 0 -118 -25t-23 -118z" />
    <glyph glyph-name="L" unicode="L" horiz-adv-x="1361" 
d="M20 0v119q104 0 136 26t32 113v803q0 89 -31.5 115t-136.5 26v119h895v-119q-77 0 -116.5 -4t-64.5 -20.5t-31.5 -42t-6.5 -74.5v-891q0 -23 7.5 -29t31.5 -6h25q63 0 99.5 3t71.5 15t51.5 32t30 59.5t17.5 91.5t4 133h297v-469h-1311z" />
    <glyph glyph-name="M" unicode="M" horiz-adv-x="2086" 
d="M16 1321h717q50 0 67.5 -12t24.5 -52l203 -1011q5 -22 15.5 -22.5t15.5 22.5l194 1011q7 40 25 52t68 12h720v-119q-105 0 -136.5 -26t-31.5 -115v-803q0 -87 32 -113t136 -26v-119h-813v119q41 0 67 1.5t44 10t27 15.5t14 28t5.5 36.5t0.5 51.5v885q0 15 -6.5 21
t-13.5 0.5t-9 -17.5l-208 -1088q-8 -38 -26 -50.5t-67 -12.5h-397q-50 0 -67.5 11.5t-24.5 51.5l-219 1086q-2 12 -9.5 17.5t-14.5 -0.5t-7 -21v-846q0 -63 6.5 -97.5t26.5 -53.5t46.5 -24t78.5 -5v-119h-484v119q75 0 108 12.5t46.5 49t13.5 118.5v762q0 89 -31.5 115
t-136.5 26v119z" />
    <glyph glyph-name="N" unicode="N" horiz-adv-x="1656" 
d="M20 1321h674q57 0 85.5 -15.5t49.5 -60.5l457 -975q8 -17 19.5 -17t11.5 19v750q0 44 -2.5 71.5t-13 49t-23.5 32t-41.5 17.5t-59.5 8.5t-85 1.5v119h550v-119q-57 0 -86.5 -5.5t-49.5 -26t-25.5 -53.5t-5.5 -95v-1022h-488q-57 0 -84.5 15t-50.5 61l-475 1022
q-7 17 -19 17t-12 -19v-797q0 -44 2.5 -71.5t13 -49t23.5 -32t41.5 -17.5t59.5 -8.5t85 -1.5v-119h-551v119q75 0 108 12.5t46.5 49t13.5 118.5v762q0 89 -31.5 115t-136.5 26v119z" />
    <glyph glyph-name="O" unicode="O" horiz-adv-x="1613" 
d="M807 1356q356 0 512 -99q246 -155 246 -595q0 -444 -246 -599q-159 -98 -512 -98q-358 0 -512 98q-246 153 -246 599q0 442 246 595q156 99 512 99zM807 1229q-72 0 -109.5 -18.5t-64.5 -57.5q-60 -91 -60 -491q0 -403 60 -494q27 -39 64.5 -57.5t109.5 -18.5t109.5 18.5
t64.5 57.5q59 89 59 494q0 402 -59 491q-27 39 -64.5 57.5t-109.5 18.5z" />
    <glyph glyph-name="P" unicode="P" horiz-adv-x="1515" 
d="M20 1202v119h768q131 0 233 -9.5t175.5 -25.5t125.5 -44t83.5 -59t49.5 -76.5t24 -90t6 -105.5q0 -90 -15.5 -151.5t-60 -115.5t-123.5 -85.5t-206.5 -49t-309.5 -17.5h-49q-23 0 -31 -6.5t-8 -28.5v-199q0 -49 6.5 -73.5t32 -41t66.5 -20.5t120 -4v-119h-887v119
q104 0 136 26t32 113v803q0 89 -31.5 115t-136.5 26zM762 1188h-41q-23 0 -31 -6.5t-8 -28.5v-498q0 -23 7.5 -28.5t31.5 -5.5h41q67 0 105.5 12.5t61 49t29.5 88.5t7 144q0 86 -6.5 133.5t-28.5 82t-61 46t-107 11.5z" />
    <glyph glyph-name="Q" unicode="Q" horiz-adv-x="1613" 
d="M807 1356q356 0 512 -99q246 -155 246 -595q0 -444 -246 -599q-74 -47 -184 -69q-20 -4 -25 -11.5t0 -23.5q10 -37 98 -37h303v-295h-204q-175 0 -252 74.5t-82 241.5q0 18 -6.5 23t-30.5 3q-62 -4 -129 -4q-358 0 -512 98q-246 153 -246 599q0 442 246 595
q156 99 512 99zM807 1229q-72 0 -110.5 -18.5t-63.5 -57.5q-60 -91 -60 -491q0 -403 60 -494q25 -39 63.5 -57.5t110.5 -18.5t110.5 18.5t63.5 57.5q59 89 59 494q0 402 -59 491q-25 39 -63.5 57.5t-110.5 18.5z" />
    <glyph glyph-name="R" unicode="R" horiz-adv-x="1644" 
d="M1616 125v-117q-105 -43 -252 -43q-203 0 -289 72t-108 262l-11 90q-13 124 -49.5 160.5t-142.5 36.5h-43q-23 0 -31 -6.5t-8 -28.5v-293q0 -61 14.5 -89t53.5 -39t124 -11v-119h-854v119q104 0 136 26t32 113v803q0 89 -31.5 115t-136.5 26v119h764q131 0 232.5 -8
t174.5 -22t124.5 -38.5t83 -52t49 -67.5t23.5 -80t6 -95q0 -126 -54 -198.5t-196 -95.5q-14 -2 -19 -9t1 -14t20 -10q67 -16 111.5 -35.5t82 -53t58 -85t26.5 -125.5l11 -127q5 -48 23.5 -64t74.5 -16zM682 1153v-403q0 -23 7.5 -29t31.5 -6h57q64 0 101 11.5t57.5 43.5
t26.5 75t6 120q0 70 -7 109t-29.5 67t-62 37.5t-106.5 9.5h-43q-23 0 -31 -6.5t-8 -28.5z" />
    <glyph glyph-name="S" unicode="S" horiz-adv-x="1441" 
d="M1352 1008h-445q0 132 -42.5 179.5t-151.5 47.5q-104 0 -146.5 -42.5t-42.5 -123.5q0 -50 9.5 -81t35 -49.5t56.5 -27.5t86 -16l200 -29q84 -12 141.5 -24t117 -33t97 -50.5t68 -72.5t44.5 -104t14 -140q0 -143 -40.5 -236.5t-129 -146.5t-208 -73.5t-298.5 -20.5
q-195 0 -324 21t-208.5 69t-112.5 120.5t-33 182.5h457q0 -88 11 -141t40 -82.5t68 -39t106 -9.5q119 0 167 41t48 131q0 100 -41.5 141.5t-171.5 61.5l-193 28q-126 19 -205 43.5t-139 70t-86 116t-26 176.5q0 133 38 222t121 142t199 75t285 22q184 0 309 -22t196 -68
t100.5 -108t29.5 -150z" />
    <glyph glyph-name="T" unicode="T" horiz-adv-x="1597" 
d="M328 119q76 0 116 4.5t64.5 21.5t30.5 41.5t6 71.5v891q0 24 -8 30.5t-31 6.5h-8q-59 0 -91 -9t-54 -40.5t-29 -86t-7 -151.5h-282v422h1528v-422h-283q0 98 -6.5 152.5t-29 86t-54 40t-90.5 8.5h-8q-23 0 -31 -6.5t-8 -30.5v-891q0 -47 6 -71.5t30.5 -41.5t64.5 -21.5
t116 -4.5v-119h-942v119z" />
    <glyph glyph-name="U" unicode="U" horiz-adv-x="1638" 
d="M920 1321v-119q-80 0 -121 -4.5t-66.5 -21.5t-32 -43t-6.5 -76v-543q0 -91 7 -151.5t25 -109.5t50.5 -75.5t82 -40.5t122.5 -14q179 0 247 82t68 297v520q0 44 -2.5 71.5t-13 49t-23.5 32t-41.5 17.5t-59.5 8.5t-85 1.5v119h551v-119q-75 0 -108 -12.5t-46.5 -49
t-13.5 -118.5v-512q0 -159 -31 -263t-103.5 -167.5t-179 -89t-268.5 -25.5q-361 0 -523.5 127.5t-162.5 403.5v565q0 89 -31.5 115t-136.5 26v119h902z" />
    <glyph glyph-name="V" unicode="V" horiz-adv-x="1595" 
d="M1042 1321h537v-119q-57 0 -92 -27.5t-60 -99.5l-340 -1003q-15 -46 -33 -59t-71 -13h-373q-53 0 -70.5 13.5t-33.5 58.5l-338 1005q-25 76 -56.5 100.5t-93.5 24.5v119h854v-119q-103 0 -151 -13.5t-55 -42.5t8 -75l266 -872q8 -24 19.5 -24t19.5 24l248 796
q22 75 22 113q0 56 -44.5 75t-162.5 19v119z" />
    <glyph glyph-name="W" unicode="W" horiz-adv-x="2328" 
d="M1853 1321h457v-119q-65 0 -99 -22.5t-48 -89.5l-205 -1027q-7 -40 -24.5 -51.5t-67.5 -11.5h-408q-50 0 -68 12.5t-24 50.5l-176 1055q-5 24 -18.5 25.5t-18.5 -25.5l-184 -1055q-8 -39 -25.5 -51t-66.5 -12h-428q-50 0 -68 12t-25 51l-190 1029q-13 67 -44 88.5
t-91 21.5v119h817v-119q-93 0 -130 -13t-41.5 -44.5t5.5 -85.5l123 -862q2 -15 10 -21.5t16 -1t11 22.5l198 1124h570l200 -1124q5 -24 18.5 -25.5t18.5 25.5l111 653q37 206 37 268q0 53 -30.5 68.5t-111.5 15.5v119z" />
    <glyph glyph-name="X" unicode="X" horiz-adv-x="1619" 
d="M23 119q71 0 112 26t107 105l313 368q13 15 14 25t-10 27l-266 391q-61 92 -95.5 116.5t-99.5 24.5v119h875v-119q-81 0 -116.5 -11.5t-35.5 -47.5q0 -39 35 -92l119 -183q11 -15 20 -15t21 15l135 185q35 49 35 90q0 32 -32 45.5t-99 13.5v119h497v-119q-48 0 -75 -11
t-51 -35.5t-80 -94.5l-250 -307q-12 -14 -11 -24.5t13 -29.5l295 -440q61 -92 98 -116.5t104 -24.5v-119h-893v119q81 0 119.5 12t38.5 45q0 37 -35 94l-145 232q-20 33 -41 2l-182 -246q-33 -44 -33 -80q0 -31 34 -45t111 -14v-119h-546v119z" />
    <glyph glyph-name="Y" unicode="Y" horiz-adv-x="1552" 
d="M1008 1321h528v-119q-53 0 -80.5 -23.5t-71.5 -103.5l-303 -559q-15 -27 -18.5 -42t-3.5 -44v-172q0 -87 33.5 -113t144.5 -26v-119h-864v119q111 0 144.5 26t33.5 113v86q0 28 -4 43t-19 43l-360 647q-25 45 -36 62.5t-29 35.5t-36.5 22.5t-48.5 4.5v119h850v-119
q-99 0 -146 -17.5t-48.5 -51t22.5 -80.5l232 -439q21 -42 41 0l205 381q38 72 38 129q0 51 -42.5 64.5t-161.5 13.5v119z" />
    <glyph glyph-name="Z" unicode="Z" horiz-adv-x="1372" 
d="M84 1321h1206v-117q0 -38 -10.5 -65t-44.5 -74l-637 -885q-15 -19 -12 -33t28 -14h195q56 0 89 3t64.5 15.5t46.5 33.5t27 60t15.5 91.5t3.5 132.5h266v-469h-1274v117q0 40 10 67.5t43 71.5l652 887q14 17 10.5 32t-29.5 15h-139q-55 0 -88.5 -3t-64 -14.5t-46.5 -29.5
t-27.5 -52t-15.5 -79t-4 -113h-264v422z" />
    <glyph glyph-name="bracketleft" unicode="[" horiz-adv-x="585" 
d="M61 -272v1740h510v-129h-104q-39 0 -50 -9t-11 -38v-1390q0 -28 11 -36.5t50 -8.5h111v-129h-517z" />
    <glyph glyph-name="backslash" unicode="\" horiz-adv-x="983" 
d="M340 1389l627 -1584h-308l-626 1584h307z" />
    <glyph glyph-name="bracketright" unicode="]" horiz-adv-x="585" 
d="M524 1468v-1740h-516v129h111q39 0 50 8.5t11 36.5v1390q0 29 -11 38t-50 9h-105v129h510z" />
    <glyph glyph-name="asciicircum" unicode="^" horiz-adv-x="1024" 
d="M680 1176l326 -635h-211l-263 536q-11 24 -26 24t-27 -24l-258 -536h-205l322 635q19 37 37.5 51t60.5 14h146q41 0 60 -14.5t38 -50.5z" />
    <glyph glyph-name="underscore" unicode="_" horiz-adv-x="1024" 
d="M1024 -117v-174h-1024v174h1024z" />
    <glyph glyph-name="grave" unicode="`" 
d="M997 1307l-61 -166l-612 133l120 319z" />
    <glyph glyph-name="a" unicode="a" horiz-adv-x="1404" 
d="M63 264q0 45 6 81t21 64.5t32.5 50t49.5 39.5t62 30t79 24t92.5 20t110.5 19l244 39q22 3 29.5 12t7.5 29v106q0 84 -12.5 127t-37 57.5t-71.5 14.5q-31 0 -50.5 -5.5t-36 -22t-25 -48.5t-13 -83.5t-4.5 -129.5h-430q0 152 56 238t182.5 125t349.5 39q213 0 330.5 -37.5
t166.5 -119t49 -228.5v-447q0 -90 23.5 -114.5t109.5 -24.5v-119h-561v96q0 14 -11 15t-17 -9q-59 -75 -131.5 -106t-217.5 -31q-209 0 -296 72t-87 227zM797 295v199q0 20 -7.5 26.5t-29.5 3.5l-88 -14q-76 -13 -102.5 -47.5t-26.5 -136.5q0 -95 24.5 -132.5t87.5 -37.5
q68 0 105 35t37 104z" />
    <glyph glyph-name="b" unicode="b" horiz-adv-x="1490" 
d="M631 715v-357q0 -114 34 -153t113 -39q55 0 84 11.5t49 37.5q41 59 41 317q0 270 -43 334q-19 29 -45 42.5t-78 13.5q-76 0 -115.5 -43.5t-39.5 -163.5zM608 102v-102h-579v119q74 0 103.5 27.5t29.5 111.5v803q0 84 -32 112.5t-105 28.5v119h606v-338q0 -12 8.5 -14
t17.5 8q46 53 116 83t198 30q202 0 311 -82q162 -122 162 -471q0 -367 -146 -488q-96 -84 -313 -84q-150 0 -225 35.5t-125 108.5q-11 14 -19 10.5t-8 -17.5z" />
    <glyph glyph-name="c" unicode="c" horiz-adv-x="1304" 
d="M834 688q0 162 -28.5 223.5t-115.5 61.5q-85 0 -117 -60q-36 -67 -36 -387q0 -308 36 -385q27 -59 117 -59q88 0 118 61t30 222h428q0 -114 -34.5 -191.5t-108.5 -123.5t-178.5 -65.5t-256.5 -19.5q-296 0 -438 82q-207 122 -207 479q0 362 207 482q141 82 438 82
q165 0 275.5 -24.5t174 -77.5t89.5 -124.5t26 -175.5h-419z" />
    <glyph glyph-name="d" unicode="d" horiz-adv-x="1492" 
d="M860 358v357q0 120 -39.5 163.5t-115.5 43.5q-50 0 -77 -13.5t-46 -40.5q-43 -64 -43 -327t41 -322q19 -27 49.5 -39t85.5 -12q77 0 111 39t34 151zM887 0v106q0 14 -8.5 17.5t-18.5 -10.5q-51 -75 -125.5 -111.5t-228.5 -36.5q-214 0 -311 82q-148 120 -148 479
q0 355 162 480q112 84 311 84q128 0 198 -30t116 -83q9 -10 17.5 -8t8.5 14v80q0 49 -7.5 75.5t-31.5 41.5t-56 18.5t-95 3.5v119h659v-1063q0 -86 30.5 -112.5t117.5 -26.5v-119h-590z" />
    <glyph glyph-name="e" unicode="e" horiz-adv-x="1370" 
d="M1319 494h-750q-22 0 -29.5 -7.5t-7.5 -27.5q6 -258 43 -318q22 -32 50.5 -46.5t83.5 -14.5q62 0 93 21.5t44.5 81.5t13.5 182h457q0 -115 -28 -189t-99 -122.5t-186.5 -68.5t-296.5 -20q-304 0 -449 82q-215 123 -215 477q0 362 209 484q141 82 434 82q311 0 451 -97
q57 -40 95 -97t56 -126.5t24.5 -133t6.5 -142.5zM569 920q-34 -71 -37 -291q0 -20 7.5 -25.5t31.5 -5.5h228q21 0 29 8t8 27q0 103 -12 179.5t-25 109.5q-25 57 -113 57q-48 0 -74.5 -14.5t-42.5 -44.5z" />
    <glyph glyph-name="f" unicode="f" horiz-adv-x="940" 
d="M907 924h-205q-47 0 -57 -8.5t-10 -47.5v-606q0 -50 8 -78t32.5 -42.5t55 -18.5t90.5 -4v-119h-792v119q79 0 108 27t29 112v610q0 38 -10.5 47t-57.5 9h-94v131h94q47 0 57.5 8.5t10.5 46.5v8q0 154 123.5 213.5t406.5 59.5q96 0 165.5 -10.5t115 -30.5t72.5 -52t38 -70
t11 -89h-359q0 85 -10 111t-41 26q-30 0 -41.5 -29.5t-11.5 -122.5v-14q0 -38 10 -46.5t57 -8.5h205v-131z" />
    <glyph glyph-name="g" unicode="g" horiz-adv-x="1372" 
d="M618 379q-156 0 -245 14q-48 8 -66 -4q-22 -14 -22 -41q0 -29 32.5 -37t149.5 -8h444q231 0 336 -70t105 -237q0 -83 -21 -141t-62.5 -97t-113.5 -61.5t-163 -31.5t-222 -9h-283q-194 0 -293.5 16t-135 49.5t-35.5 98.5q0 114 145 137q10 2 13 6.5t0 9.5t-11 9
q-115 61 -115 219q0 86 31.5 137t93.5 84q33 16 2 35q-66 43 -100.5 107.5t-34.5 170.5q0 223 166 295q135 60 405 60q347 0 449 -89q14 -14 25 -14q13 0 16 23q14 120 56.5 163.5t154.5 43.5v-291q-84 6 -116 -2t-32 -35q0 -11 10.5 -55.5t10.5 -98.5q0 -225 -166 -297
q-133 -59 -408 -59zM899 -70h-444q-108 0 -148.5 -16t-40.5 -59q0 -31 13.5 -46t66.5 -24.5t162 -9.5h264q138 0 205 9t85.5 25t18.5 50q0 23 -11.5 37t-53.5 24t-117 10zM618 999q-61 0 -81 -57q-23 -56 -23 -207q0 -153 23 -209q20 -57 81 -57q64 0 84 57q23 56 23 209
q0 151 -23 207q-20 57 -84 57z" />
    <glyph glyph-name="h" unicode="h" horiz-adv-x="1531" 
d="M631 1321v-342q0 -35 24 -4q47 58 121.5 86.5t220.5 28.5q115 0 188.5 -19.5t115.5 -65t57.5 -110t15.5 -166.5v-471q0 -90 23.5 -114.5t109.5 -24.5v-119h-714v119q69 0 90.5 27.5t21.5 115.5v467q0 90 -24.5 123t-96.5 33q-87 0 -120 -37.5t-33 -124.5v-461
q0 -90 20 -116.5t92 -26.5v-119h-718v119q79 0 108 27t29 112v803q0 84 -32 112.5t-105 28.5v119h606z" />
    <glyph glyph-name="i" unicode="i" horiz-adv-x="800" 
d="M362 1434h66q109 0 168 -39t59 -131t-59 -131t-168 -39h-66q-109 0 -168 39t-59 131t59 131t168 39zM784 119v-119h-764v119q86 0 117 27t31 112v530q0 87 -35 120t-123 36v119q160 -16 365 -16q164 0 262 16v-805q0 -86 30 -112.5t117 -26.5z" />
    <glyph glyph-name="j" unicode="j" horiz-adv-x="724" 
d="M-4 1063q160 -16 364 -16q165 0 263 16v-1071q0 -123 -50 -197.5t-168.5 -112.5t-320.5 -38q-182 0 -282 28t-141.5 88t-41.5 168h426q0 -111 9 -141.5t42 -30.5q34 0 46 28.5t12 125.5v878q0 87 -35 120t-123 36v119zM348 1434h66q109 0 168 -39t59 -131t-59 -131
t-168 -39h-66q-109 0 -168 39t-59 131t59 131t168 39z" />
    <glyph glyph-name="k" unicode="k" horiz-adv-x="1552" 
d="M25 119q86 0 116.5 27t30.5 112v803q0 84 -32 112.5t-105 28.5v119h596v-694q0 -15 8.5 -20t22.5 5l217 158q58 41 78 65t20 48q0 32 -37 42.5t-129 10.5v119h633v-119q-68 0 -110.5 -17.5t-139.5 -87.5l-107 -75q-27 -21 -8 -56l281 -473q41 -69 79.5 -88.5t100.5 -19.5
v-119h-764v119q66 0 78.5 26.5t-23.5 102.5l-112 233q-14 28 -43 6l-21 -14q-24 -17 -24 -57v-154q0 -89 17 -116t77 -27v-119h-700v119z" />
    <glyph glyph-name="l" unicode="l" horiz-adv-x="804" 
d="M788 119v-119h-763v119q86 0 116.5 27t30.5 112v803q0 84 -32 112.5t-105 28.5v119h606v-1063q0 -86 30 -112.5t117 -26.5z" />
    <glyph glyph-name="m" unicode="m" horiz-adv-x="2211" 
d="M610 1055v-113q0 -17 9 -17.5t18 13.5q45 74 125 113t221 39q142 0 216.5 -37.5t109.5 -116.5q13 -31 30 0q31 53 72 85t110.5 50.5t170.5 18.5q112 0 182.5 -19t110.5 -65.5t54.5 -110.5t14.5 -166v-471q0 -90 23.5 -114.5t109.5 -24.5v-119h-696v119q52 0 73 29t21 114
v467q0 91 -20 123.5t-84 32.5q-135 0 -135 -162v-461q0 -87 18.5 -115t73.5 -28v-119h-656v119q52 0 73.5 29.5t21.5 113.5v467q0 91 -20.5 123.5t-84.5 32.5q-135 0 -135 -162v-461q0 -87 18.5 -115t73.5 -28v-119h-698v119q79 0 108 27t29 112v537q0 85 -34 113t-114 28
v119h590z" />
    <glyph glyph-name="n" unicode="n" horiz-adv-x="1531" 
d="M31 0v119q79 0 108 27t29 112v537q0 85 -34 113t-114 28v119h590v-111q0 -17 9 -17.5t18 13.5q25 38 49.5 62t65 46t102 32t147.5 10q114 0 186 -19.5t114 -65t57.5 -110t15.5 -166.5v-471q0 -90 23.5 -114.5t109.5 -24.5v-119h-714v119q69 0 90.5 27.5t21.5 115.5v467
q0 90 -24 123t-95 33q-84 0 -116.5 -37.5t-32.5 -124.5v-461q0 -89 20.5 -116t92.5 -27v-119h-719z" />
    <glyph glyph-name="o" unicode="o" 
d="M698 1090q306 0 445 -82q211 -121 211 -482q0 -358 -211 -479q-139 -82 -445 -82q-305 0 -444 82q-211 121 -211 479q0 361 211 482q139 82 444 82zM698 973q-50 0 -75.5 -14.5t-44.5 -45.5q-41 -71 -41 -387q0 -314 41 -385q19 -31 44.5 -45t75.5 -14q51 0 76.5 14
t44.5 45q41 71 41 385q0 316 -41 387q-19 31 -45 45.5t-76 14.5z" />
    <glyph glyph-name="p" unicode="p" horiz-adv-x="1480" 
d="M621 690v-352q0 -120 39.5 -163.5t115.5 -43.5q51 0 77.5 12t45.5 39q43 59 43 328q0 271 -45 328q-20 27 -48.5 39t-82.5 12q-76 0 -110.5 -42.5t-34.5 -156.5zM594 1055v-111q0 -14 8 -17t19 11q20 30 37.5 49.5t46.5 40.5t63.5 33.5t87 20.5t119.5 8q212 0 311 -86
q148 -127 148 -502q0 -340 -164 -459q-110 -78 -309 -78q-128 0 -198 29t-116 80q-9 10 -17.5 8t-8.5 -14v-131q0 -34 3 -56t14 -38.5t24.5 -25t42 -13.5t57.5 -6t80 -1v-119h-828v119q79 0 108.5 27.5t29.5 112.5v858q0 85 -34 113t-114 28v119h590z" />
    <glyph glyph-name="q" unicode="q" horiz-adv-x="1484" 
d="M860 338v356q0 111 -34.5 152t-110.5 41q-53 0 -81.5 -13t-49.5 -40q-45 -57 -45 -328q0 -263 43 -322q19 -27 45.5 -39t77.5 -12q37 0 63.5 8t48 29.5t32.5 63t11 104.5zM883 1055h569v-119q-60 0 -91.5 -30t-31.5 -103v-866q0 -85 29 -112.5t108 -27.5v-119h-823v119
q50 0 78.5 1t56.5 6t41 13.5t24 25t14 38.5t3 56v131q0 12 -8.5 14t-17.5 -8q-46 -51 -116 -80t-198 -29q-201 0 -309 78q-164 118 -164 451q0 372 148 505q104 91 317 91q83 0 141 -9.5t96 -31t59.5 -43.5t47.5 -60q10 -14 18.5 -11t8.5 17v103z" />
    <glyph glyph-name="r" unicode="r" horiz-adv-x="1271" 
d="M1241 688h-436v86q0 62 -14 83.5t-50 21.5q-104 0 -104 -185v-432q0 -41 6 -65.5t17.5 -41t40.5 -24t63 -10t96 -2.5v-119h-829v119q79 0 108 27t29 112v537q0 85 -34 113t-114 28v119h586v-121q0 -11 4.5 -15.5t11 -1.5t11.5 13q22 40 43.5 65.5t56 49t84.5 34.5t119 11
q172 0 238.5 -62t66.5 -233v-107z" />
    <glyph glyph-name="s" unicode="s" horiz-adv-x="1296" 
d="M1206 809h-409q0 95 -34.5 133.5t-115.5 38.5q-88 0 -120.5 -29t-32.5 -90q0 -68 33.5 -96t134.5 -37l165 -16q88 -9 148.5 -21.5t116 -38t87.5 -63.5t51 -97t19 -139q0 -93 -24.5 -160t-71 -111.5t-123 -70.5t-170 -36.5t-223.5 -10.5q-229 0 -357 31.5t-181.5 98
t-53.5 184.5h428q0 -67 10 -108t34.5 -62t55 -28t82.5 -7q104 0 139 26.5t35 98.5q0 78 -35.5 111t-150.5 44l-162 17q-108 11 -180 32.5t-124 61.5t-75.5 102t-23.5 152q0 107 35 179t109.5 114.5t178 60t254.5 17.5q136 0 234 -12.5t159 -34.5t96.5 -58.5t48.5 -77.5
t13 -98z" />
    <glyph glyph-name="t" unicode="t" horiz-adv-x="950" 
d="M897 924h-244q-47 0 -57 -8.5t-10 -47.5v-567q0 -112 18.5 -150t77.5 -38q58 0 85.5 31t27.5 128v93h143v-86q0 -124 -33.5 -190t-114.5 -95t-233 -29q-242 0 -341 82t-99 270v551q0 38 -10.5 47t-57.5 9h-76v118q129 5 195.5 30.5t93.5 75.5t37 148h287v-186
q0 -38 10 -46.5t57 -8.5h244v-131z" />
    <glyph glyph-name="u" unicode="u" horiz-adv-x="1501" 
d="M1337 1055v-797q0 -86 30.5 -112.5t117.5 -26.5v-119h-590v111q0 17 -9 17.5t-18 -13.5q-25 -38 -49 -62t-64.5 -46t-101.5 -32t-147 -10q-150 0 -229.5 35t-109.5 107.5t-30 207.5v482q0 90 -23.5 114.5t-109.5 24.5v119h602v-725q0 -91 24 -125.5t93 -34.5
q81 0 113 37.5t32 124.5v461q0 89 -21.5 116t-98.5 27v119h589z" />
    <glyph glyph-name="v" unicode="v" horiz-adv-x="1423" 
d="M934 1055h469v-119q-61 0 -92 -22.5t-56 -90.5l-290 -760q-14 -39 -30 -51t-63 -12h-352q-48 0 -63 11.5t-29 51.5l-283 762q-26 68 -53 89.5t-82 21.5v119h781v-119q-100 0 -138.5 -15.5t-38.5 -50.5q0 -19 11 -53l215 -633q8 -24 20 -24t21 24l137 396q34 95 46.5 133
t25 84.5t12.5 70.5q0 43 -35.5 55.5t-132.5 12.5v119z" />
    <glyph glyph-name="w" unicode="w" horiz-adv-x="2078" 
d="M1622 1055h432v-119q-63 0 -97 -23t-48 -90l-158 -760q-9 -40 -26 -51.5t-66 -11.5h-361q-49 0 -66.5 12t-25.5 51l-147 803q-3 16 -10 20.5t-13.5 -2t-9.5 -20.5l-149 -801q-8 -38 -26 -50.5t-67 -12.5h-389q-50 0 -67.5 11.5t-24.5 51.5l-149 762q-13 67 -44 89t-90 22
v119h781v-119q-100 0 -134 -13t-34 -63q0 -23 8 -69l94 -596q5 -30 20 -30t21 30l162 860h518l164 -860q6 -30 20.5 -30t20.5 30l72 389q36 185 36 268q0 53 -31 68.5t-116 15.5v119z" />
    <glyph glyph-name="x" unicode="x" horiz-adv-x="1425" 
d="M25 119q63 0 100 21.5t98 86.5l252 267q14 15 15 25.5t-11 25.5l-223 282q-52 67 -85 88t-89 21v119h782v-119q-65 0 -93 -9.5t-28 -37.5t31 -70l96 -127q10 -15 19.5 -15t21.5 15l115 131q31 36 31 66q0 25 -22 36t-77 11v119h424v-119q-43 0 -68 -9t-46 -27t-72 -73
l-211 -223q-12 -13 -11.5 -23.5t13.5 -29.5l246 -324q52 -70 85.5 -89t92.5 -19v-119h-795v119q66 0 97.5 8.5t31.5 32.5q0 32 -32 76l-119 165q-19 27 -41 2l-147 -174q-27 -32 -27 -63q0 -29 24 -38t86 -9v-119h-464v119z" />
    <glyph glyph-name="y" unicode="y" horiz-adv-x="1456" 
d="M965 1055h475v-119q-62 0 -93.5 -22t-58.5 -91l-356 -905q-67 -172 -151.5 -229.5t-264.5 -57.5q-239 0 -334.5 62t-95.5 211h442q0 -83 21 -112.5t76 -29.5q68 0 101.5 33t74.5 135l8 21q12 29 5 39t-38 10h-295l-325 825q-26 67 -55 89t-87 22v119h783v-119
q-100 0 -139.5 -15.5t-39.5 -50.5q0 -19 11 -53l235 -635q8 -22 20.5 -22.5t20.5 22.5l144 398q86 232 86 288q0 43 -36 55.5t-134 12.5v119z" />
    <glyph glyph-name="z" unicode="z" horiz-adv-x="1216" 
d="M74 1055h1081v-140q0 -32 -11.5 -55.5t-41.5 -56.5l-555 -633q-15 -14 -12 -27.5t26 -13.5h170q78 0 123.5 10t73.5 38t37.5 71t9.5 117h209v-365h-1141v139q0 32 11.5 56t41.5 57l568 637q14 13 11 27t-26 14h-125q-77 0 -121 -9t-73 -36.5t-39 -73t-10 -123.5h-207v367
z" />
    <glyph glyph-name="braceleft" unicode="{" horiz-adv-x="720" 
d="M713 -272h-84q-93 0 -157 6t-126 24.5t-99 52t-59 90t-22 136.5v387q0 65 -22 84.5t-76 19.5q-36 0 -66 -6v148q27 -6 66 -6q50 0 74 18t24 70v389q0 62 11.5 110.5t31 82.5t52.5 58.5t69 39t87.5 23t100 11t115.5 2.5h72v-129h-48q-82 0 -114.5 -35t-32.5 -143v-340
q0 -108 -44 -153.5t-128 -55.5q-12 -1 -17.5 -7.5t-1 -14t18.5 -10.5q92 -18 132 -63t40 -142v-324q0 -64 7.5 -102.5t27.5 -59t44.5 -26.5t67.5 -6h56v-129z" />
    <glyph glyph-name="bar" unicode="|" horiz-adv-x="532" 
d="M408 -195h-283v1584h283v-1584z" />
    <glyph glyph-name="braceright" unicode="}" horiz-adv-x="720" 
d="M16 1468h76q93 0 157 -6t126 -24.5t99 -52t59 -90t22 -136.5v-391q0 -65 22 -84.5t76 -19.5q36 0 66 6v-148q-27 6 -66 6q-50 0 -74 -18t-24 -70v-385q0 -62 -11.5 -110.5t-31 -82.5t-52.5 -58.5t-69 -39t-87.5 -23t-100 -11t-115.5 -2.5h-80v129h55q82 0 115 35t33 143
v336q0 108 44 153.5t128 55.5q12 1 17.5 7.5t1 14t-18.5 10.5q-92 18 -132 63t-40 142v328q0 64 -8 103t-28 59t-44.5 26t-67.5 6h-47v129z" />
    <glyph glyph-name="asciitilde" unicode="~" horiz-adv-x="1024" 
d="M63 475q0 99 15.5 162.5t50.5 99t82.5 49t120.5 13.5q93 0 196 -41l70 -27q88 -35 141 -35q49 0 69.5 18.5t20.5 76.5h129q0 -80 -10.5 -136t-30.5 -93t-53.5 -58t-74.5 -29t-99 -8q-93 0 -196 41l-70 27q-86 34 -141 34q-50 0 -70 -18t-20 -76h-130z" />
    <glyph glyph-name="uni00A0" unicode="&#xa0;" horiz-adv-x="454" 
 />
    <glyph glyph-name="exclamdown" unicode="&#xa1;" horiz-adv-x="634" 
d="M606 -266h-569q64 210 122 475t58 387v10h209v-10q0 -122 58 -387t122 -475zM328 686h-13q-221 0 -221 197q0 196 221 196h13q221 0 221 -196q0 -197 -221 -197z" />
    <glyph glyph-name="cent" unicode="&#xa2;" horiz-adv-x="1331" 
d="M866 815q0 124 -14 188t-53 93q-13 10 -23 6t-10 -19v-843q0 -15 10 -18.5t23 5.5q38 27 54.5 87.5t16.5 195.5h414q0 -112 -31 -189t-95 -123t-148.5 -68t-206.5 -28q-23 -1 -30 -8t-7 -26q0 -78 8 -185h-145q8 99 8 185q0 19 -7 26t-30 8q-133 9 -203.5 26t-134.5 54
q-207 122 -207 480q0 361 207 481q116 65 338 78q23 1 30 8t7 26q0 43 -8 187h145q-8 -101 -8 -185q0 -19 7 -26t30 -8q134 -7 225 -34.5t144.5 -80t76.5 -123t23 -170.5h-406zM571 266q12 -25 33 -39q17 -10 25 -4.5t8 19.5v839q0 15 -7 20.5t-26 -5.5q-19 -13 -33 -37
q-41 -65 -41 -397q0 -308 41 -396z" />
    <glyph glyph-name="sterling" unicode="&#xa3;" horiz-adv-x="1316" 
d="M754 618h-35q-21 0 -28 -5t-11 -27q-22 -107 -101.5 -162.5t-240.5 -77.5q-12 -2 -16.5 -9t0 -13.5t16.5 -6.5h590q71 0 102 31.5t31 95.5h217v-444h-1241v307q99 11 140.5 73.5t41.5 207.5v4q0 15 -6 20.5t-23 5.5q-67 0 -165 -8v156q68 -8 153 -8q28 0 19 24
l-10.5 31.5t-12.5 40.5t-10.5 41.5t-9 54.5t-2.5 60q0 108 37 177.5t120 108.5q126 60 383 60q149 0 246 -17.5t164 -61.5t96 -118.5t29 -189.5h-432q0 158 -17.5 212t-72.5 54q-47 0 -66 -31q-18 -33 -18 -125q0 -60 9.5 -110t25.5 -102t22 -83q3 -16 9.5 -21t27.5 -5h39
q108 0 233 8v-156q-125 8 -233 8z" />
    <glyph glyph-name="yen" unicode="&#xa5;" horiz-adv-x="1449" 
d="M1081 338h-63q-17 0 -23 -6t-6 -21v-59q0 -87 33.5 -113t144.5 -26v-113h-848v113q111 0 145 26t34 113v59q0 15 -6 21t-23 6h-104q-109 0 -234 -8v133q125 -8 234 -8h69q30 0 17 26l-62 123q-7 17 -17 22t-30 5q-99 0 -211 -8v133q57 -6 145 -6q21 0 26.5 6t-3.5 28
l-147 297q-38 79 -65 103t-83 24v113h836v-113q-79 0 -125.5 -9t-63 -29t-15 -44t18.5 -61l207 -459q19 -46 41 0l191 393q39 79 39 131q0 51 -44.5 64.5t-170.5 13.5v113h524v-113q-54 0 -83 -25t-67 -104l-145 -297q-9 -22 -3.5 -28t25.5 -6q55 0 146 8v-133
q-125 8 -207 8q-20 0 -30 -5t-17 -22l-60 -121q-6 -12 -2 -20t19 -8h63q109 0 234 8v-133q-125 8 -234 8z" />
    <glyph glyph-name="brokenbar" unicode="&#xa6;" horiz-adv-x="532" 
d="M408 -195h-283v631h283v-631zM408 758h-283v631h283v-631z" />
    <glyph glyph-name="section" unicode="&#xa7;" horiz-adv-x="1351" 
d="M1253 1081h-426q0 104 -36 137t-138 33q-91 0 -124 -31t-33 -85q0 -69 41.5 -97t144.5 -37l166 -16q84 -9 140.5 -18t114 -24.5t92.5 -38.5t64 -57.5t41.5 -83t12.5 -112.5q0 -117 -44.5 -190t-135.5 -113q-15 -6 -16.5 -15.5t11.5 -15.5q78 -35 117 -103t39 -183
q0 -93 -26 -160.5t-73.5 -111t-125 -69.5t-170.5 -36t-221 -10q-246 0 -384.5 30t-198.5 95.5t-60 181.5h430q0 -66 11.5 -106t41 -61.5t68.5 -28.5t106 -7q123 0 166 28t43 103q0 72 -41 100.5t-160 40.5l-164 17q-117 12 -195 32t-138 58t-87.5 99.5t-27.5 150.5
q0 222 190 295q10 4 14 9.5t1.5 11t-11.5 9.5q-87 37 -126.5 105t-39.5 184q0 107 34 178t107.5 112t175 58t251.5 17q171 0 285.5 -17.5t178 -54.5t89.5 -85t26 -118zM938 367q35 32 35 102q0 76 -53 107.5t-207 46.5l-160 16q-57 5 -84 12q-57 -31 -57 -110q0 -73 54 -101
t191 -41l166 -16q68 -6 115 -16z" />
    <glyph glyph-name="dieresis" unicode="&#xa8;" 
d="M461 1458h12q170 0 170 -151q0 -77 -45 -115.5t-125 -38.5h-12q-81 0 -126.5 38.5t-45.5 115.5q0 151 172 151zM926 1458h12q170 0 170 -151q0 -77 -45 -115.5t-125 -38.5h-12q-81 0 -126.5 38.5t-45.5 115.5q0 151 172 151z" />
    <glyph glyph-name="copyright" unicode="&#xa9;" horiz-adv-x="1626" 
d="M53 662q0 202 48.5 338.5t156.5 216.5q188 139 555 139q371 0 555 -139q107 -80 156 -217t49 -338q0 -197 -50 -333t-155 -223q-170 -141 -555 -141q-379 0 -555 141q-106 85 -155.5 221t-49.5 335zM160 662q0 -336 164 -480q141 -129 489 -129q336 0 490 129
q163 135 163 480q0 344 -163 477q-157 129 -490 129q-332 0 -489 -129q-87 -69 -125.5 -186t-38.5 -291zM901 778q0 113 -15.5 156t-58.5 43q-36 0 -49 -23q-15 -27 -19.5 -87t-4.5 -208q0 -145 4.5 -204t19.5 -86q13 -23 49 -23q46 0 61 41.5t15 155.5h385
q0 -186 -109 -258t-352 -72q-236 0 -346 70q-162 101 -162 376q0 129 34.5 227.5t127.5 153.5q123 70 346 70q133 0 221.5 -20t138.5 -63.5t70.5 -102.5t20.5 -146h-377z" />
    <glyph glyph-name="ordfeminine" unicode="&#xaa;" horiz-adv-x="950" 
d="M47 852q0 99 55.5 142t204.5 67l156 24q18 3 24.5 11t6.5 24v23q0 76 -10.5 98.5t-39.5 22.5q-27 0 -37 -26t-10 -116h-317q0 127 83.5 180.5t297.5 53.5q206 0 287 -53.5t81 -192.5v-236q0 -49 19 -64t67 -15v-99h-403v45q0 12 -9 14t-18 -7q-36 -41 -83.5 -56.5
t-133.5 -15.5q-123 0 -172 43t-49 133zM494 881v90q0 17 -5.5 21t-23.5 1l-19 -4q-29 -7 -38 -25.5t-9 -62.5q0 -42 8.5 -60t32.5 -18q22 0 38 14.5t16 43.5zM664 500h-361q-101 0 -221 -8v108q120 -8 221 -8h361q101 0 221 8v-108q-120 8 -221 8z" />
    <glyph glyph-name="guillemotleft" unicode="&#xab;" horiz-adv-x="1085" 
d="M571 877l-165 -320q-10 -22 -10 -33.5t10 -34.5l165 -321h-292l-230 260q-31 36 -31 74v45q0 38 31 74l230 256h292zM1051 877l-166 -320q-11 -22 -11 -33.5t11 -34.5l166 -321h-293l-230 260q-30 34 -30 74v45q0 39 30 74l230 256h293z" />
    <glyph glyph-name="registered" unicode="&#xae;" horiz-adv-x="892" 
d="M143 1286q94 70 303 70q210 0 304 -70q110 -80 110 -311t-110 -311q-94 -70 -304 -70q-209 0 -303 70q-110 80 -110 311t110 311zM446 1288q-180 0 -251 -57q-43 -37 -61.5 -96.5t-18.5 -159.5t18.5 -159.5t61.5 -96.5q71 -57 251 -57q181 0 252 57q43 37 61.5 96.5
t18.5 159.5t-18.5 159.5t-61.5 96.5q-71 57 -252 57zM698 836v-54q-32 -14 -86 -14q-57 0 -82 21.5t-32 76.5l-4 33q-4 30 -14.5 38.5t-39.5 8.5h-6q-10 0 -13 -3t-3 -13v-51q0 -28 8 -35.5t45 -7.5v-58h-258v58q32 0 39.5 7.5t7.5 35.5v202q0 27 -8 35t-39 8v56h240
q64 0 105.5 -7.5t62.5 -23.5t28.5 -34.5t7.5 -47.5q0 -72 -67 -84q-6 -1 -8.5 -4t-0.5 -6.5t9 -5.5q40 -11 57 -29t21 -59l2 -19q2 -15 6.5 -19.5t21.5 -4.5zM418 1102v-80q0 -10 3 -13t13 -3h12q30 0 40 12.5t10 44.5q0 31 -9.5 43t-37.5 12h-15q-10 0 -13 -3t-3 -13z" />
    <glyph glyph-name="macron" unicode="&#xaf;" 
d="M838 1180h-279q-92 0 -233 -9v213q125 -8 233 -8h279q108 0 233 8v-213q-141 9 -233 9z" />
    <glyph glyph-name="degree" unicode="&#xb0;" horiz-adv-x="790" 
d="M752 1061q0 -191 -117 -254q-75 -41 -240 -41q-164 0 -239 41q-117 63 -117 254t117 254q75 41 239 41q165 0 240 -41q117 -63 117 -254zM352 874q14 -14 43 -14t43 14q15 15 20 54.5t5 132.5q0 92 -5 131.5t-20 54.5t-43 15t-43 -15t-19.5 -53.5t-4.5 -132.5t4.5 -133
t19.5 -54z" />
    <glyph glyph-name="twosuperior" unicode="&#xb2;" horiz-adv-x="897" 
d="M78 565v207q0 60 16 99.5t54.5 65.5t84.5 41t125 30q52 10 81.5 22t44.5 32.5t18.5 42t3.5 62.5q0 58 -9.5 74t-31.5 16q-26 0 -35.5 -28t-9.5 -129h-330q0 105 31.5 158t111 75.5t236.5 22.5q72 0 124 -5.5t98 -19.5t74 -39t44 -64.5t16 -94.5q0 -84 -29 -131.5
t-107 -74t-222 -32.5q-72 -3 -123 -10t-78 -14.5t-42 -19.5t-18 -21t-3 -23v-6q0 -14 6.5 -19.5t23.5 -5.5h338q46 0 65 17t19 65h166v-293h-743z" />
    <glyph glyph-name="threesuperior" unicode="&#xb3;" horiz-adv-x="911" 
d="M406 1116h-328q0 142 79.5 191t295.5 49q112 0 186 -13t115 -39.5t57 -61.5t16 -85q0 -149 -151 -172q-19 -3 -19.5 -14.5t19.5 -14.5q90 -16 132 -57t42 -129q0 -57 -17.5 -96t-62 -69.5t-126.5 -45t-206 -14.5q-90 0 -151 7.5t-108 25t-73.5 50t-39.5 80t-13 117.5h334
q0 -84 5 -121.5t16 -50t36 -12.5q33 0 43.5 27t10.5 127q0 90 -16.5 111.5t-86.5 21.5q-75 0 -137 -10v114q52 -10 139 -10q55 0 67.5 16t12.5 88q0 59 -4.5 89t-11 37.5t-19.5 7.5q-15 0 -21.5 -7.5t-10.5 -38.5t-4 -98z" />
    <glyph glyph-name="acute" unicode="&#xb4;" 
d="M477 1141l-61 166l553 286l121 -319z" />
    <glyph glyph-name="paragraph" unicode="&#xb6;" horiz-adv-x="1335" 
d="M803 -322h-481v111q62 0 94 2t61.5 9t41 23t18 40t6.5 65v434q0 20 -12.5 27.5t-38.5 9.5q-101 5 -178 22.5t-128.5 47.5t-86 67t-53 88.5t-25.5 103.5t-7 120q0 65 5.5 115t21.5 101t44 88.5t73 70.5t107.5 53.5t150 32.5t198.5 12h580v-1393q0 -85 29 -112t108 -27
v-111h-397v1463q0 38 -9 46.5t-48 8.5h-17q-39 0 -48 -8.5t-9 -46.5v-1463z" />
    <glyph glyph-name="periodcentered" unicode="&#xb7;" horiz-adv-x="573" 
d="M293 379h-12q-244 0 -244 219t244 219h12q244 0 244 -219t-244 -219z" />
    <glyph glyph-name="cedilla" unicode="&#xb8;" 
d="M655 -166v160h101v-72q147 0 215.5 -35.5t68.5 -119.5q0 -91 -77.5 -124.5t-264.5 -33.5q-175 0 -243 32t-68 119h264q0 -50 10.5 -67t49.5 -17q32 0 46.5 16.5t14.5 61.5q0 41 -16.5 60.5t-61.5 19.5h-39z" />
    <glyph glyph-name="onesuperior" unicode="&#xb9;" horiz-adv-x="733" 
d="M578 1333v-573q0 -60 19.5 -79t76.5 -19v-97h-576v97q83 0 108 20t25 80v395q0 32 -32 12l-86 -51q-19 -12 -41 -12h-6v113l131 81q31 19 51.5 26t56.5 7h273z" />
    <glyph glyph-name="ordmasculine" unicode="&#xba;" horiz-adv-x="950" 
d="M639 500h-328q-101 0 -221 -8v108q120 -8 221 -8h328q101 0 221 8v-108q-120 8 -221 8zM477 1356q193 0 283 -47q141 -72 141 -293t-141 -293q-90 -47 -285 -47t-285 47q-141 72 -141 293t141 293q90 47 287 47zM475 1262q-26 0 -41 -17q-24 -32 -24 -229q0 -198 24 -230
q14 -16 41 -16t41 16q25 34 25 230q0 195 -25 229q-15 17 -41 17z" />
    <glyph glyph-name="guillemotright" unicode="&#xbb;" horiz-adv-x="1085" 
d="M680 557l-166 320h293l229 -256q31 -36 31 -74v-45q0 -38 -31 -74l-229 -260h-293l166 321q10 23 10 34.5t-10 33.5zM201 557l-166 320h293l229 -256q31 -36 31 -74v-45q0 -38 -31 -74l-229 -260h-293l166 321q11 23 11 34.5t-11 33.5z" />
    <glyph glyph-name="onequarter" unicode="&#xbc;" horiz-adv-x="1939" 
d="M535 1333v-573q0 -60 19.5 -79t76.5 -19v-97h-576v97q83 0 108 20t25 80v395q0 32 -32 12l-86 -51q-19 -12 -41 -12h-6v113l131 81q31 19 51.5 26t56.5 7h273zM1452 141v4q0 17 -6.5 23t-24.5 6h-374v92q0 26 1 36.5t8.5 28t24.5 40.5l265 352q20 26 38.5 35.5t53.5 9.5
h354v-446q0 -17 6.5 -23t24.5 -6q50 0 84 10v-129h-84q-18 0 -24.5 -6t-6.5 -23v-2q0 -27 20 -39t76 -12v-92h-526v92q52 0 71 11t19 38zM1452 627q0 12 -9.5 12.5t-15.5 -8.5l-233 -305q-10 -12 -7 -22.5t21 -10.5h213q18 0 24.5 6t6.5 23v305zM414 -18l671 1357h287
l-672 -1357h-286z" />
    <glyph glyph-name="onehalf" unicode="&#xbd;" horiz-adv-x="1892" 
d="M410 -18l671 1357h287l-672 -1357h-286zM535 1333v-573q0 -60 19.5 -79t76.5 -19v-97h-576v97q83 0 108 20t25 80v395q0 32 -32 12l-86 -51q-19 -12 -41 -12h-6v113l131 81q31 19 51.5 26t56.5 7h273zM1100 0v207q0 48 11.5 83t31.5 58.5t57 41.5t77 29t103 23
q52 10 81.5 22t44.5 33t18.5 42.5t3.5 62.5q0 58 -9.5 74t-31.5 16q-26 0 -35.5 -28t-9.5 -129h-330q0 105 31.5 158t111 75.5t236.5 22.5q90 0 151.5 -9t110 -33t71.5 -69t23 -113q0 -84 -29 -131t-107 -73.5t-222 -32.5q-72 -3 -123 -10t-78 -14.5t-42 -19.5t-18 -21
t-3 -23v-6q0 -14 6.5 -19.5t23.5 -5.5h338q46 0 65 17t19 65h166v-293h-743z" />
    <glyph glyph-name="threequarters" unicode="&#xbe;" horiz-adv-x="2056" 
d="M571 -18l672 1357h287l-672 -1357h-287zM395 1116h-327q0 142 79 191t295 49q112 0 186.5 -13t115 -39.5t57 -61.5t16.5 -85q0 -149 -151 -172q-19 -3 -19.5 -14.5t19.5 -14.5q90 -16 132 -57t42 -129q0 -57 -17.5 -96t-62 -69.5t-126.5 -45t-206 -14.5q-90 0 -151 7.5
t-108 25t-73.5 50t-39.5 80t-13 117.5h334q0 -84 5 -121.5t16 -50t36 -12.5q22 0 32.5 9.5t15.5 42t5 102.5q0 90 -16 111.5t-86 21.5q-75 0 -137 -10v114q52 -10 139 -10q55 0 67.5 16t12.5 88q0 59 -4.5 89t-11 37.5t-19.5 7.5q-15 0 -22 -7.5t-11 -39t-4 -97.5zM1569 141
v4q0 17 -6.5 23t-24.5 6h-375v92q0 35 5.5 53.5t29.5 51.5l264 352q20 26 38.5 35.5t53.5 9.5h355v-446q0 -17 6.5 -23t23.5 -6q50 0 84 10v-129h-84q-17 0 -23.5 -6t-6.5 -23v-2q0 -27 20 -39t76 -12v-92h-526v92q53 0 71.5 11t18.5 38zM1569 627q0 12 -9.5 12.5
t-15.5 -8.5l-233 -305q-10 -12 -7 -22.5t21 -10.5h213q18 0 24.5 6t6.5 23v305z" />
    <glyph glyph-name="questiondown" unicode="&#xbf;" horiz-adv-x="1185" 
d="M668 1079h12q221 0 221 -196q0 -197 -221 -197h-12q-222 0 -222 197q0 196 222 196zM588 606h174v-43q0 -106 -13 -165.5t-41 -96.5t-87 -80q-33 -23 -48.5 -45.5t-23.5 -67t-8 -126.5q0 -92 14 -132q7 -19 19.5 -25.5t37.5 -6.5q36 0 51.5 20.5t23 91t7.5 226.5h477
q0 -100 -11.5 -170.5t-40.5 -122.5t-69.5 -83t-108.5 -49.5t-146.5 -25t-194.5 -6.5q-278 0 -391 45q-91 36 -131.5 100.5t-40.5 165.5q0 80 17.5 134t59 89t90.5 55t132 40q88 22 134 38t75 42t36 56t7 85v57z" />
    <glyph glyph-name="Agrave" unicode="&#xc0;" horiz-adv-x="1624" 
d="M18 119q57 0 92.5 27t59.5 98l348 1005q15 45 33.5 58.5t71.5 13.5h385q53 0 70.5 -13.5t33.5 -58.5l342 -1005q26 -75 57 -100t93 -25v-119h-850v119q131 0 166 29t12 100l-33 108q-8 31 -45 31h-428q-20 0 -29.5 -6.5t-15.5 -24.5l-10 -30q-23 -74 -23 -113
q0 -55 42.5 -74.5t160.5 -19.5v-119h-533v119zM627 1120l-187 -579q-11 -33 25 -33h354q34 0 25 33l-178 579q-8 24 -19.5 24t-19.5 -24zM1040 1552l-61 -166l-612 134l120 319z" />
    <glyph glyph-name="Aacute" unicode="&#xc1;" horiz-adv-x="1624" 
d="M18 119q57 0 92.5 27t59.5 98l348 1005q15 45 33.5 58.5t71.5 13.5h385q53 0 70.5 -13.5t33.5 -58.5l342 -1005q26 -75 57 -100t93 -25v-119h-850v119q131 0 166 29t12 100l-33 108q-8 31 -45 31h-428q-20 0 -29.5 -6.5t-15.5 -24.5l-10 -30q-23 -74 -23 -113
q0 -55 42.5 -74.5t160.5 -19.5v-119h-533v119zM627 1120l-187 -579q-11 -33 25 -33h354q34 0 25 33l-178 579q-8 24 -19.5 24t-19.5 -24zM655 1386l-61 166l553 287l121 -319z" />
    <glyph glyph-name="Acircumflex" unicode="&#xc2;" horiz-adv-x="1624" 
d="M18 119q57 0 92.5 27t59.5 98l348 1005q15 45 33.5 58.5t71.5 13.5h385q53 0 70.5 -13.5t33.5 -58.5l342 -1005q26 -75 57 -100t93 -25v-119h-850v119q131 0 166 29t12 100l-33 108q-8 31 -45 31h-428q-20 0 -29.5 -6.5t-15.5 -24.5l-10 -30q-23 -74 -23 -113
q0 -55 42.5 -74.5t160.5 -19.5v-119h-533v119zM627 1120l-187 -579q-11 -33 25 -33h354q34 0 25 33l-178 579q-8 24 -19.5 24t-19.5 -24zM393 1542l299 227h254l295 -225l-100 -162l-273 109q-39 16 -55.5 16.5t-58.5 -16.5l-265 -109z" />
    <glyph glyph-name="Atilde" unicode="&#xc3;" horiz-adv-x="1624" 
d="M18 119q57 0 92.5 27t59.5 98l348 1005q15 45 33.5 58.5t71.5 13.5h385q53 0 70.5 -13.5t33.5 -58.5l342 -1005q26 -75 57 -100t93 -25v-119h-850v119q131 0 166 29t12 100l-33 108q-8 31 -45 31h-428q-20 0 -29.5 -6.5t-15.5 -24.5l-10 -30q-23 -74 -23 -113
q0 -55 42.5 -74.5t160.5 -19.5v-119h-533v119zM627 1120l-187 -579q-11 -33 25 -33h354q34 0 25 33l-178 579q-8 24 -19.5 24t-19.5 -24zM399 1419q0 185 53 257.5t179 72.5q86 0 209 -49l41 -17q101 -41 153 -41q45 0 62.5 18t17.5 75h119q0 -185 -53 -257.5t-179 -72.5
q-51 0 -95 11t-113 38l-41 16q-101 41 -154 41q-46 0 -63 -17.5t-17 -74.5h-119z" />
    <glyph glyph-name="Adieresis" unicode="&#xc4;" horiz-adv-x="1624" 
d="M18 119q57 0 92.5 27t59.5 98l348 1005q15 45 33.5 58.5t71.5 13.5h385q53 0 70.5 -13.5t33.5 -58.5l342 -1005q26 -75 57 -100t93 -25v-119h-850v119q131 0 166 29t12 100l-33 108q-8 31 -45 31h-428q-20 0 -29.5 -6.5t-15.5 -24.5l-10 -30q-23 -74 -23 -113
q0 -55 42.5 -74.5t160.5 -19.5v-119h-533v119zM627 1120l-187 -579q-11 -33 25 -33h354q34 0 25 33l-178 579q-8 24 -19.5 24t-19.5 -24zM578 1704h12q170 0 170 -152q0 -77 -44.5 -115t-125.5 -38h-12q-81 0 -126.5 38t-45.5 115q0 152 172 152zM1042 1704h13
q170 0 170 -152q0 -77 -44.5 -115t-125.5 -38h-13q-81 0 -126.5 38t-45.5 115q0 152 172 152z" />
    <glyph glyph-name="Aring" unicode="&#xc5;" horiz-adv-x="1624" 
d="M553 1413q0 107 59.5 149t202.5 42q144 0 204 -42t60 -149q0 -43 -8 -70q-7 -24 -7 -35t9 -42l381 -1022q27 -75 58 -100t92 -25v-119h-850v119q131 0 166 29t12 100l-33 108q-8 31 -45 31h-428q-20 0 -29.5 -6.5t-15.5 -24.5l-10 -30q-23 -74 -23 -113q0 -55 42.5 -74.5
t160.5 -19.5v-119h-533v119q57 0 92 27t60 98l381 1032q17 44 10 67q-8 27 -8 70zM627 1120l-187 -579q-11 -33 25 -33h354q34 0 25 33l-178 579q-8 24 -19.5 24t-19.5 -24zM815 1505q-53 0 -71.5 -20.5t-18.5 -71.5t18.5 -71.5t71.5 -20.5q54 0 73 20.5t19 71.5t-19 71.5
t-73 20.5z" />
    <glyph glyph-name="AE" unicode="&#xc6;" horiz-adv-x="2174" 
d="M2083 1321v-367h-285q0 79 -10.5 125t-40 71t-69 32.5t-111.5 7.5h-66q-23 0 -31 -6.5t-8 -28.5v-377q0 -23 7.5 -29t31.5 -6h70q81 0 107 25.5t26 114.5h221v-420h-221q0 95 -26 122t-107 27h-70q-23 0 -31 -6t-8 -28v-412q0 -23 7.5 -29t31.5 -6h72q60 0 97.5 3t71 13
t51 26.5t30.5 47.5t17.5 72t4.5 102h285v-395h-1352v119q86 0 124.5 11t52.5 38.5t14 89.5v107q0 23 -7.5 28.5t-31.5 5.5h-395q-37 0 -54 -28l-28 -45q-50 -74 -50 -121q0 -51 48 -68.5t167 -17.5v-119h-606v119q53 0 97.5 25.5t87.5 86.5l645 928q9 12 5 21t-18 12
q-49 11 -143 14v115h1397zM932 1065l-332 -512q-9 -12 -5.5 -22.5t21.5 -10.5h314q23 0 31 6.5t8 28.5v504q0 22 -11.5 24.5t-25.5 -18.5z" />
    <glyph glyph-name="Ccedilla" unicode="&#xc7;" horiz-adv-x="1554" 
d="M475 -240h264q0 -50 10.5 -67t49.5 -17q32 0 46.5 16.5t14.5 61.5q0 41 -16.5 60.5t-61.5 19.5h-39v96q0 23 -7 29.5t-38 7.5q-272 12 -405 96q-244 153 -244 599q0 442 244 595q156 99 508 99q162 0 280 -19t196 -54t124 -92.5t65 -127t19 -164.5h-492q0 190 -38 260
t-154 70q-70 0 -106 -19t-64 -59q-58 -93 -58 -489q0 -388 58 -494q24 -38 62 -57t110 -19q124 0 164.5 79t40.5 298h499q0 -268 -147.5 -380.5t-470.5 -121.5q-31 -1 -38 -7.5t-7 -29.5v-8q150 0 220.5 -35.5t70.5 -119.5q0 -91 -79 -124.5t-270 -33.5q-175 0 -243 32
t-68 119z" />
    <glyph glyph-name="Egrave" unicode="&#xc8;" horiz-adv-x="1394" 
d="M1303 1321v-367h-285q0 79 -10.5 125t-40.5 71t-69.5 32.5t-111.5 7.5h-65q-23 0 -31 -6.5t-8 -28.5v-377q0 -23 7.5 -29t31.5 -6h70q81 0 107 25.5t26 114.5h221v-420h-221q0 95 -26 122t-107 27h-70q-23 0 -31 -6t-8 -28v-412q0 -23 7.5 -29t31.5 -6h72q60 0 97.5 3
t71 13t51 26.5t30.5 47.5t17.5 72t4.5 102h285v-395h-1330v119q104 0 136 26t32 113v803q0 89 -31.5 115t-136.5 26v119h1283zM924 1552l-62 -166l-612 134l121 319z" />
    <glyph glyph-name="Eacute" unicode="&#xc9;" horiz-adv-x="1394" 
d="M1303 1321v-367h-285q0 79 -10.5 125t-40.5 71t-69.5 32.5t-111.5 7.5h-65q-23 0 -31 -6.5t-8 -28.5v-377q0 -23 7.5 -29t31.5 -6h70q81 0 107 25.5t26 114.5h221v-420h-221q0 95 -26 122t-107 27h-70q-23 0 -31 -6t-8 -28v-412q0 -23 7.5 -29t31.5 -6h72q60 0 97.5 3
t71 13t51 26.5t30.5 47.5t17.5 72t4.5 102h285v-395h-1330v119q104 0 136 26t32 113v803q0 89 -31.5 115t-136.5 26v119h1283zM541 1386l-62 166l553 287l121 -319z" />
    <glyph glyph-name="Ecircumflex" unicode="&#xca;" horiz-adv-x="1394" 
d="M1303 1321v-367h-285q0 79 -10.5 125t-40.5 71t-69.5 32.5t-111.5 7.5h-65q-23 0 -31 -6.5t-8 -28.5v-377q0 -23 7.5 -29t31.5 -6h70q81 0 107 25.5t26 114.5h221v-420h-221q0 95 -26 122t-107 27h-70q-23 0 -31 -6t-8 -28v-412q0 -23 7.5 -29t31.5 -6h72q60 0 97.5 3
t71 13t51 26.5t30.5 47.5t17.5 72t4.5 102h285v-395h-1330v119q104 0 136 26t32 113v803q0 89 -31.5 115t-136.5 26v119h1283zM279 1542l299 227h253l295 -225l-100 -162l-272 109q-39 16 -56 16.5t-59 -16.5l-264 -109z" />
    <glyph glyph-name="Edieresis" unicode="&#xcb;" horiz-adv-x="1394" 
d="M1303 1321v-367h-285q0 79 -10.5 125t-40.5 71t-69.5 32.5t-111.5 7.5h-65q-23 0 -31 -6.5t-8 -28.5v-377q0 -23 7.5 -29t31.5 -6h70q81 0 107 25.5t26 114.5h221v-420h-221q0 95 -26 122t-107 27h-70q-23 0 -31 -6t-8 -28v-412q0 -23 7.5 -29t31.5 -6h72q60 0 97.5 3
t71 13t51 26.5t30.5 47.5t17.5 72t4.5 102h285v-395h-1330v119q104 0 136 26t32 113v803q0 89 -31.5 115t-136.5 26v119h1283zM463 1704h12q170 0 170 -152q0 -77 -44.5 -115t-125.5 -38h-12q-81 0 -126.5 38t-45.5 115q0 152 172 152zM928 1704h12q170 0 170 -152
q0 -77 -44.5 -115t-125.5 -38h-12q-81 0 -126.5 38t-45.5 115q0 152 172 152z" />
    <glyph glyph-name="Igrave" unicode="&#xcc;" horiz-adv-x="905" 
d="M20 0v119q111 0 145 26t34 113v803q0 89 -33 115t-146 26v119h865v-119q-113 0 -145.5 -26t-32.5 -115v-803q0 -87 33.5 -113t144.5 -26v-119h-865zM686 1552l-61 -166l-613 134l121 319z" />
    <glyph glyph-name="Iacute" unicode="&#xcd;" horiz-adv-x="905" 
d="M20 0v119q111 0 145 26t34 113v803q0 89 -33 115t-146 26v119h865v-119q-113 0 -145.5 -26t-32.5 -115v-803q0 -87 33.5 -113t144.5 -26v-119h-865zM283 1407l-62 166l553 287l121 -320z" />
    <glyph glyph-name="Icircumflex" unicode="&#xce;" horiz-adv-x="905" 
d="M20 0v119q111 0 145 26t34 113v803q0 89 -33 115t-146 26v119h865v-119q-113 0 -145.5 -26t-32.5 -115v-803q0 -87 33.5 -113t144.5 -26v-119h-865zM29 1542l299 227h254l295 -225l-101 -162l-272 109q-39 16 -56 16.5t-59 -16.5l-264 -109z" />
    <glyph glyph-name="Idieresis" unicode="&#xcf;" horiz-adv-x="905" 
d="M20 0v119q111 0 145 26t34 113v803q0 89 -33 115t-146 26v119h865v-119q-113 0 -145.5 -26t-32.5 -115v-803q0 -87 33.5 -113t144.5 -26v-119h-865zM215 1704h12q170 0 170 -152q0 -77 -44.5 -115t-125.5 -38h-12q-81 0 -126.5 38t-45.5 115q0 152 172 152zM680 1704h12
q170 0 170 -152q0 -77 -44.5 -115t-125.5 -38h-12q-81 0 -126.5 38t-45.5 115q0 152 172 152z" />
    <glyph glyph-name="Eth" unicode="&#xd0;" horiz-adv-x="1658" 
d="M70 623v122h51q47 0 57 8.5t10 47.5v260q0 89 -31.5 115t-136.5 26v119h852q346 0 500 -92q240 -146 240 -574q0 -114 -19 -213t-75 -197.5t-146 -154.5q-145 -90 -500 -90h-852v119q104 0 136 26t32 113v309q0 39 -10 47.5t-57 8.5h-51zM735 131h117q74 0 112.5 17
t65.5 53q62 83 62 458q0 379 -62 461q-27 36 -65.5 53t-112.5 17h-117q-23 0 -31 -6.5t-8 -28.5v-354q0 -38 10.5 -47t57.5 -9h147v-122h-147q-47 0 -57.5 -9t-10.5 -47v-401q0 -23 7.5 -29t31.5 -6z" />
    <glyph glyph-name="Ntilde" unicode="&#xd1;" horiz-adv-x="1656" 
d="M20 1321h674q57 0 85.5 -15.5t49.5 -60.5l457 -975q8 -17 19.5 -17t11.5 19v750q0 44 -2.5 71.5t-13 49t-23.5 32t-41.5 17.5t-59.5 8.5t-85 1.5v119h550v-119q-57 0 -86.5 -5.5t-49.5 -26t-25.5 -53.5t-5.5 -95v-1022h-488q-57 0 -84.5 15t-50.5 61l-475 1022
q-7 17 -19 17t-12 -19v-797q0 -44 2.5 -71.5t13 -49t23.5 -32t41.5 -17.5t59.5 -8.5t85 -1.5v-119h-551v119q75 0 108 12.5t46.5 49t13.5 118.5v762q0 89 -31.5 115t-136.5 26v119zM416 1419q0 186 52.5 258t178.5 72q86 0 209 -49l41 -17q101 -41 154 -41q45 0 62 18t17 75
h119q0 -186 -52.5 -258t-178.5 -72q-86 0 -209 49l-41 16q-101 41 -154 41q-45 0 -62 -17.5t-17 -74.5h-119z" />
    <glyph glyph-name="Ograve" unicode="&#xd2;" horiz-adv-x="1613" 
d="M807 1356q356 0 512 -99q246 -155 246 -595q0 -444 -246 -599q-159 -98 -512 -98q-358 0 -512 98q-246 153 -246 599q0 442 246 595q156 99 512 99zM807 1229q-72 0 -109.5 -18.5t-64.5 -57.5q-60 -91 -60 -491q0 -403 60 -494q27 -39 64.5 -57.5t109.5 -18.5t109.5 18.5
t64.5 57.5q59 89 59 494q0 402 -59 491q-27 39 -64.5 57.5t-109.5 18.5zM1042 1563l-61 -166l-612 133l120 319z" />
    <glyph glyph-name="Oacute" unicode="&#xd3;" horiz-adv-x="1613" 
d="M807 1356q356 0 512 -99q246 -155 246 -595q0 -444 -246 -599q-159 -98 -512 -98q-358 0 -512 98q-246 153 -246 599q0 442 246 595q156 99 512 99zM807 1229q-72 0 -109.5 -18.5t-64.5 -57.5q-60 -91 -60 -491q0 -403 60 -494q27 -39 64.5 -57.5t109.5 -18.5t109.5 18.5
t64.5 57.5q59 89 59 494q0 402 -59 491q-27 39 -64.5 57.5t-109.5 18.5zM643 1397l-61 166l553 286l120 -319z" />
    <glyph glyph-name="Ocircumflex" unicode="&#xd4;" horiz-adv-x="1613" 
d="M807 1356q356 0 512 -99q246 -155 246 -595q0 -444 -246 -599q-159 -98 -512 -98q-358 0 -512 98q-246 153 -246 599q0 442 246 595q156 99 512 99zM807 1229q-72 0 -109.5 -18.5t-64.5 -57.5q-60 -91 -60 -491q0 -403 60 -494q27 -39 64.5 -57.5t109.5 -18.5t109.5 18.5
t64.5 57.5q59 89 59 494q0 402 -59 491q-27 39 -64.5 57.5t-109.5 18.5zM383 1542l299 227h254l295 -225l-101 -162l-272 109q-39 16 -56 16.5t-59 -16.5l-264 -109z" />
    <glyph glyph-name="Otilde" unicode="&#xd5;" horiz-adv-x="1613" 
d="M807 1356q356 0 512 -99q246 -155 246 -595q0 -444 -246 -599q-159 -98 -512 -98q-358 0 -512 98q-246 153 -246 599q0 442 246 595q156 99 512 99zM807 1229q-72 0 -109.5 -18.5t-64.5 -57.5q-60 -91 -60 -491q0 -403 60 -494q27 -39 64.5 -57.5t109.5 -18.5t109.5 18.5
t64.5 57.5q59 89 59 494q0 402 -59 491q-27 39 -64.5 57.5t-109.5 18.5zM391 1419q0 185 53 257.5t179 72.5q51 0 95 -11t113 -38l41 -17q101 -41 154 -41q45 0 62.5 18t17.5 75h119q0 -185 -53 -257.5t-179 -72.5q-86 0 -209 49l-41 16q-101 41 -153 41q-46 0 -63 -17.5
t-17 -74.5h-119z" />
    <glyph glyph-name="Odieresis" unicode="&#xd6;" horiz-adv-x="1613" 
d="M807 1356q356 0 512 -99q246 -155 246 -595q0 -444 -246 -599q-159 -98 -512 -98q-358 0 -512 98q-246 153 -246 599q0 442 246 595q156 99 512 99zM807 1229q-72 0 -109.5 -18.5t-64.5 -57.5q-60 -91 -60 -491q0 -403 60 -494q27 -39 64.5 -57.5t109.5 -18.5t109.5 18.5
t64.5 57.5q59 89 59 494q0 402 -59 491q-27 39 -64.5 57.5t-109.5 18.5zM569 1704h13q170 0 170 -152q0 -77 -44.5 -115t-125.5 -38h-13q-81 0 -126.5 38t-45.5 115q0 152 172 152zM1034 1704h13q170 0 170 -152q0 -77 -44.5 -115t-125.5 -38h-13q-81 0 -126.5 38t-45.5 115
q0 152 172 152z" />
    <glyph glyph-name="multiply" unicode="&#xd7;" horiz-adv-x="1126" 
d="M836 221l-244 248q-19 18 -29 18t-26 -16l-246 -250l-170 170l248 244q18 19 18 29t-16 26l-250 246l170 170l244 -248q19 -18 29 -18t26 16l246 250l170 -170l-248 -244q-18 -19 -18 -29t16 -26l250 -246z" />
    <glyph glyph-name="Oslash" unicode="&#xd8;" horiz-adv-x="1622" 
d="M72 27l104 100q23 23 2 49q-125 168 -125 486q0 442 246 595q156 99 512 99q176 0 290 -20t202 -66q21 -12 32 -11t31 19l107 102l79 -84l-106 -102q-23 -23 -2 -49q125 -170 125 -483q0 -444 -246 -599q-159 -98 -512 -98q-335 0 -492 86q-21 13 -33 11.5t-30 -19.5
l-104 -100zM811 1229q-72 0 -109.5 -18.5t-64.5 -57.5q-59 -89 -59 -491q0 -64 2 -97q3 -40 36 -12l381 369q22 21 28.5 36t2.5 41q-17 115 -43 154q-26 41 -63.5 58.5t-110.5 17.5zM1044 662q0 63 -2 94q-3 40 -36 12l-381 -369q-21 -19 -27.5 -34t-3.5 -41
q11 -109 43 -156q27 -39 64.5 -57.5t109.5 -18.5t109.5 18.5t64.5 57.5q59 89 59 494z" />
    <glyph glyph-name="Ugrave" unicode="&#xd9;" horiz-adv-x="1638" 
d="M920 1321v-119q-80 0 -121 -4.5t-66.5 -21.5t-32 -43t-6.5 -76v-543q0 -91 7 -151.5t25 -109.5t50.5 -75.5t82 -40.5t122.5 -14q179 0 247 82t68 297v520q0 44 -2.5 71.5t-13 49t-23.5 32t-41.5 17.5t-59.5 8.5t-85 1.5v119h551v-119q-75 0 -108 -12.5t-46.5 -49
t-13.5 -118.5v-512q0 -159 -31 -263t-103.5 -167.5t-179 -89t-268.5 -25.5q-361 0 -523.5 127.5t-162.5 403.5v565q0 89 -31.5 115t-136.5 26v119h902zM1200 1552l-61 -166l-613 134l121 319z" />
    <glyph glyph-name="Uacute" unicode="&#xda;" horiz-adv-x="1638" 
d="M920 1321v-119q-80 0 -121 -4.5t-66.5 -21.5t-32 -43t-6.5 -76v-543q0 -91 7 -151.5t25 -109.5t50.5 -75.5t82 -40.5t122.5 -14q179 0 247 82t68 297v520q0 44 -2.5 71.5t-13 49t-23.5 32t-41.5 17.5t-59.5 8.5t-85 1.5v119h551v-119q-75 0 -108 -12.5t-46.5 -49
t-13.5 -118.5v-512q0 -159 -31 -263t-103.5 -167.5t-179 -89t-268.5 -25.5q-361 0 -523.5 127.5t-162.5 403.5v565q0 89 -31.5 115t-136.5 26v119h902zM811 1386l-61 166l553 287l120 -319z" />
    <glyph glyph-name="Ucircumflex" unicode="&#xdb;" horiz-adv-x="1638" 
d="M920 1321v-119q-80 0 -121 -4.5t-66.5 -21.5t-32 -43t-6.5 -76v-543q0 -91 7 -151.5t25 -109.5t50.5 -75.5t82 -40.5t122.5 -14q179 0 247 82t68 297v520q0 44 -2.5 71.5t-13 49t-23.5 32t-41.5 17.5t-59.5 8.5t-85 1.5v119h551v-119q-75 0 -108 -12.5t-46.5 -49
t-13.5 -118.5v-512q0 -159 -31 -263t-103.5 -167.5t-179 -89t-268.5 -25.5q-361 0 -523.5 127.5t-162.5 403.5v565q0 89 -31.5 115t-136.5 26v119h902zM545 1542l299 227h254l295 -225l-101 -162l-272 109q-39 16 -56 16.5t-59 -16.5l-264 -109z" />
    <glyph glyph-name="Udieresis" unicode="&#xdc;" horiz-adv-x="1638" 
d="M920 1321v-119q-80 0 -121 -4.5t-66.5 -21.5t-32 -43t-6.5 -76v-543q0 -91 7 -151.5t25 -109.5t50.5 -75.5t82 -40.5t122.5 -14q179 0 247 82t68 297v520q0 44 -2.5 71.5t-13 49t-23.5 32t-41.5 17.5t-59.5 8.5t-85 1.5v119h551v-119q-75 0 -108 -12.5t-46.5 -49
t-13.5 -118.5v-512q0 -159 -31 -263t-103.5 -167.5t-179 -89t-268.5 -25.5q-361 0 -523.5 127.5t-162.5 403.5v565q0 89 -31.5 115t-136.5 26v119h902zM731 1704h12q170 0 170 -152q0 -77 -44.5 -115t-125.5 -38h-12q-81 0 -126.5 38t-45.5 115q0 152 172 152zM1196 1704h12
q170 0 170 -152q0 -77 -44.5 -115t-125.5 -38h-12q-81 0 -126.5 38t-45.5 115q0 152 172 152z" />
    <glyph glyph-name="Yacute" unicode="&#xdd;" horiz-adv-x="1552" 
d="M1008 1321h528v-119q-53 0 -80.5 -23.5t-71.5 -103.5l-303 -559q-15 -27 -18.5 -42t-3.5 -44v-172q0 -87 33.5 -113t144.5 -26v-119h-864v119q111 0 144.5 26t33.5 113v86q0 28 -4 43t-19 43l-360 647q-25 45 -36 62.5t-29 35.5t-36.5 22.5t-48.5 4.5v119h850v-119
q-99 0 -146 -17.5t-48.5 -51t22.5 -80.5l232 -439q21 -42 41 0l205 381q38 72 38 129q0 51 -42.5 64.5t-161.5 13.5v119zM758 1386l-62 166l553 287l121 -319z" />
    <glyph glyph-name="Thorn" unicode="&#xde;" horiz-adv-x="1445" 
d="M889 0h-869v119q104 0 136 26t32 113v805q0 87 -32 113t-136 26v119h867v-119q-49 0 -78 -1.5t-54.5 -7t-38 -13.5t-21 -24.5t-11 -36.5t-2.5 -52v-27q0 -22 8 -28t31 -6h63q171 0 290 -15.5t189.5 -41t109.5 -71t51 -93t12 -119.5q0 -75 -14.5 -126.5t-56 -97
t-115.5 -71.5t-193.5 -41t-290.5 -15h-45q-23 0 -31 -6t-8 -28v-27q0 -32 2.5 -52t11.5 -36.5t21 -24.5t37.5 -13.5t55.5 -7t79 -1.5v-119zM756 872h-35q-23 0 -31 -6t-8 -28v-359q0 -23 7.5 -29t31.5 -6h35q105 0 136.5 44.5t31.5 181.5q0 64 -5.5 99.5t-23.5 60.5
t-50.5 33.5t-88.5 8.5z" />
    <glyph glyph-name="germandbls" unicode="&#xdf;" horiz-adv-x="1458" 
d="M729 1241q-41 0 -62 -17t-32.5 -72.5t-11.5 -164.5v-987h-607v119q80 0 109 27t29 112v680q0 101 20.5 172t61.5 119.5t113 76t164.5 39t225.5 11.5q68 0 119.5 -2.5t112 -10.5t104 -22.5t87 -40.5t70.5 -61.5t43.5 -87.5t16.5 -117q0 -119 -56 -194.5t-157 -82.5
q-14 -1 -20.5 -9.5t-1 -17t21.5 -10.5q165 -15 243.5 -95t78.5 -249q0 -100 -28 -173.5t-70 -114t-105 -65t-118.5 -31.5t-125.5 -7q-167 0 -221.5 55.5t-54.5 221.5h108q0 -79 14.5 -108.5t49.5 -29.5q51 0 66.5 57.5t15.5 213.5q0 94 -8 151.5t-28.5 87t-46 39t-69.5 9.5
q-40 0 -63 -5v125q16 -4 45 -4q32 0 47 14.5t23 59.5t8 137q0 109 -9.5 161t-32 71.5t-69.5 19.5z" />
    <glyph glyph-name="agrave" unicode="&#xe0;" horiz-adv-x="1404" 
d="M63 264q0 45 6 81t21 64.5t32.5 50t49.5 39.5t62 30t79 24t92.5 20t110.5 19l244 39q22 3 29.5 12t7.5 29v106q0 84 -12.5 127t-37 57.5t-71.5 14.5q-31 0 -50.5 -5.5t-36 -22t-25 -48.5t-13 -83.5t-4.5 -129.5h-430q0 152 56 238t182.5 125t349.5 39q213 0 330.5 -37.5
t166.5 -119t49 -228.5v-447q0 -90 23.5 -114.5t109.5 -24.5v-119h-561v96q0 14 -11 15t-17 -9q-59 -75 -131.5 -106t-217.5 -31q-209 0 -296 72t-87 227zM797 295v199q0 20 -7.5 26.5t-29.5 3.5l-88 -14q-76 -13 -102.5 -47.5t-26.5 -136.5q0 -95 24.5 -132.5t87.5 -37.5
q68 0 105 35t37 104zM928 1307l-62 -166l-612 133l121 319z" />
    <glyph glyph-name="aacute" unicode="&#xe1;" horiz-adv-x="1404" 
d="M63 264q0 45 6 81t21 64.5t32.5 50t49.5 39.5t62 30t79 24t92.5 20t110.5 19l244 39q22 3 29.5 12t7.5 29v106q0 84 -12.5 127t-37 57.5t-71.5 14.5q-31 0 -50.5 -5.5t-36 -22t-25 -48.5t-13 -83.5t-4.5 -129.5h-430q0 152 56 238t182.5 125t349.5 39q213 0 330.5 -37.5
t166.5 -119t49 -228.5v-447q0 -90 23.5 -114.5t109.5 -24.5v-119h-561v96q0 14 -11 15t-17 -9q-59 -75 -131.5 -106t-217.5 -31q-209 0 -296 72t-87 227zM797 295v199q0 20 -7.5 26.5t-29.5 3.5l-88 -14q-76 -13 -102.5 -47.5t-26.5 -136.5q0 -95 24.5 -132.5t87.5 -37.5
q68 0 105 35t37 104zM508 1141l-62 166l553 286l121 -319z" />
    <glyph glyph-name="acircumflex" unicode="&#xe2;" horiz-adv-x="1404" 
d="M63 264q0 45 6 81t21 64.5t32.5 50t49.5 39.5t62 30t79 24t92.5 20t110.5 19l244 39q22 3 29.5 12t7.5 29v106q0 84 -12.5 127t-37 57.5t-71.5 14.5q-31 0 -50.5 -5.5t-36 -22t-25 -48.5t-13 -83.5t-4.5 -129.5h-430q0 152 56 238t182.5 125t349.5 39q213 0 330.5 -37.5
t166.5 -119t49 -228.5v-447q0 -90 23.5 -114.5t109.5 -24.5v-119h-561v96q0 14 -11 15t-17 -9q-59 -75 -131.5 -106t-217.5 -31q-209 0 -296 72t-87 227zM797 295v199q0 20 -7.5 26.5t-29.5 3.5l-88 -14q-76 -13 -102.5 -47.5t-26.5 -136.5q0 -95 24.5 -132.5t87.5 -37.5
q68 0 105 35t37 104zM254 1296l299 228h254l295 -226l-101 -161l-272 108q-39 16 -56 16.5t-59 -16.5l-264 -108z" />
    <glyph glyph-name="atilde" unicode="&#xe3;" horiz-adv-x="1404" 
d="M63 264q0 45 6 81t21 64.5t32.5 50t49.5 39.5t62 30t79 24t92.5 20t110.5 19l244 39q22 3 29.5 12t7.5 29v106q0 84 -12.5 127t-37 57.5t-71.5 14.5q-31 0 -50.5 -5.5t-36 -22t-25 -48.5t-13 -83.5t-4.5 -129.5h-430q0 152 56 238t182.5 125t349.5 39q213 0 330.5 -37.5
t166.5 -119t49 -228.5v-447q0 -90 23.5 -114.5t109.5 -24.5v-119h-561v96q0 14 -11 15t-17 -9q-59 -75 -131.5 -106t-217.5 -31q-209 0 -296 72t-87 227zM797 295v199q0 20 -7.5 26.5t-29.5 3.5l-88 -14q-76 -13 -102.5 -47.5t-26.5 -136.5q0 -95 24.5 -132.5t87.5 -37.5
q68 0 105 35t37 104zM262 1174q0 185 53 257t179 72q51 0 95 -11t113 -38l41 -16q101 -41 154 -41q46 0 63 17.5t17 74.5h119q0 -185 -53 -257.5t-179 -72.5q-86 0 -209 49l-41 17q-101 41 -153 41q-46 0 -63 -17.5t-17 -74.5h-119z" />
    <glyph glyph-name="adieresis" unicode="&#xe4;" horiz-adv-x="1404" 
d="M63 264q0 45 6 81t21 64.5t32.5 50t49.5 39.5t62 30t79 24t92.5 20t110.5 19l244 39q22 3 29.5 12t7.5 29v106q0 84 -12.5 127t-37 57.5t-71.5 14.5q-31 0 -50.5 -5.5t-36 -22t-25 -48.5t-13 -83.5t-4.5 -129.5h-430q0 152 56 238t182.5 125t349.5 39q213 0 330.5 -37.5
t166.5 -119t49 -228.5v-447q0 -90 23.5 -114.5t109.5 -24.5v-119h-561v96q0 14 -11 15t-17 -9q-59 -75 -131.5 -106t-217.5 -31q-209 0 -296 72t-87 227zM797 295v199q0 20 -7.5 26.5t-29.5 3.5l-88 -14q-76 -13 -102.5 -47.5t-26.5 -136.5q0 -95 24.5 -132.5t87.5 -37.5
q68 0 105 35t37 104zM440 1458h13q170 0 170 -151q0 -77 -45 -115.5t-125 -38.5h-13q-81 0 -126.5 38.5t-45.5 115.5q0 151 172 151zM905 1458h13q169 0 169 -151q0 -77 -44.5 -115.5t-124.5 -38.5h-13q-81 0 -126.5 38.5t-45.5 115.5q0 151 172 151z" />
    <glyph glyph-name="aring" unicode="&#xe5;" horiz-adv-x="1404" 
d="M63 264q0 45 6 81t21 64.5t32.5 50t49.5 39.5t62 30t79 24t92.5 20t110.5 19l244 39q22 3 29.5 12t7.5 29v106q0 84 -12.5 127t-37 57.5t-71.5 14.5q-31 0 -50.5 -5.5t-36 -22t-25 -48.5t-13 -83.5t-4.5 -129.5h-430q0 152 56 238t182.5 125t349.5 39q213 0 330.5 -37.5
t166.5 -119t49 -228.5v-447q0 -90 23.5 -114.5t109.5 -24.5v-119h-561v96q0 14 -11 15t-17 -9q-59 -75 -131.5 -106t-217.5 -31q-209 0 -296 72t-87 227zM797 295v199q0 20 -7.5 26.5t-29.5 3.5l-88 -14q-76 -13 -102.5 -47.5t-26.5 -136.5q0 -95 24.5 -132.5t87.5 -37.5
q68 0 105 35t37 104zM416 1331q0 107 59.5 149t202.5 42q144 0 204 -42t60 -149t-60 -148.5t-204 -41.5q-143 0 -202.5 41.5t-59.5 148.5zM678 1423q-53 0 -71.5 -20.5t-18.5 -71.5t18.5 -71.5t71.5 -20.5q54 0 73 20.5t19 71.5t-19 71.5t-73 20.5z" />
    <glyph glyph-name="ae" unicode="&#xe6;" horiz-adv-x="2088" 
d="M2038 494h-750q-22 0 -29.5 -7.5t-7.5 -27.5q6 -258 43 -318q22 -32 50 -46.5t83 -14.5q63 0 93.5 21.5t44.5 81.5t14 182h457q0 -116 -28 -190t-99.5 -122.5t-187 -68t-296.5 -19.5q-86 0 -154.5 6t-149.5 22.5t-147 54.5t-110 95q-17 22 -28 0q-45 -83 -132.5 -130.5
t-244.5 -47.5q-215 0 -305.5 70.5t-90.5 228.5q0 45 6 81t21 64.5t32.5 50t49.5 39.5t62 30t79 24t92.5 20t110.5 19l244 39q22 3 29.5 12t7.5 29v106q0 124 -25 161.5t-102 37.5q-50 0 -74.5 -20.5t-36.5 -82t-12 -186.5h-430q0 115 28.5 189.5t97.5 123t178 69t277 20.5
q127 0 202.5 -13t135.5 -51q17 -11 37 0q62 36 131 50t201 14q310 0 450 -97q57 -40 95 -97t56 -126.5t25 -133t7 -142.5zM1288 920q-34 -71 -37 -291q0 -20 7.5 -25.5t31.5 -5.5h228q21 0 28.5 8t7.5 27q0 103 -12 180t-24 109q-25 57 -113 57q-48 0 -74.5 -14.5
t-42.5 -44.5zM797 295v199q0 20 -7.5 26.5t-29.5 3.5l-88 -14q-76 -13 -102.5 -47.5t-26.5 -136.5q0 -95 24.5 -132.5t87.5 -37.5q68 0 105 35t37 104z" />
    <glyph glyph-name="ccedilla" unicode="&#xe7;" horiz-adv-x="1304" 
d="M637 -166v96q0 23 -7 29.5t-38 7.5q-222 11 -342 80q-207 122 -207 479q0 362 207 482q141 82 438 82q165 0 275.5 -24.5t174 -77.5t89.5 -124.5t26 -175.5h-419q0 162 -28.5 223.5t-115.5 61.5q-85 0 -117 -60q-36 -67 -36 -387q0 -308 36 -385q27 -59 117 -59
q88 0 118 61t30 222h428q0 -208 -116.5 -297.5t-367.5 -100.5q-31 -1 -38 -7.5t-7 -29.5v-8q147 0 216 -35.5t69 -119.5q0 -91 -77.5 -124.5t-264.5 -33.5q-175 0 -243 32t-68 119h264q0 -51 10 -67.5t49 -16.5q33 0 47.5 16.5t14.5 61.5q0 41 -16.5 60.5t-61.5 19.5h-39z
" />
    <glyph glyph-name="egrave" unicode="&#xe8;" horiz-adv-x="1370" 
d="M1319 494h-750q-22 0 -29.5 -7.5t-7.5 -27.5q6 -258 43 -318q22 -32 50.5 -46.5t83.5 -14.5q62 0 93 21.5t44.5 81.5t13.5 182h457q0 -115 -28 -189t-99 -122.5t-186.5 -68.5t-296.5 -20q-304 0 -449 82q-215 123 -215 477q0 362 209 484q141 82 434 82q311 0 451 -97
q57 -40 95 -97t56 -126.5t24.5 -133t6.5 -142.5zM569 920q-34 -71 -37 -291q0 -20 7.5 -25.5t31.5 -5.5h228q21 0 29 8t8 27q0 103 -12 179.5t-25 109.5q-25 57 -113 57q-48 0 -74.5 -14.5t-42.5 -44.5zM922 1307l-62 -166l-612 133l121 319z" />
    <glyph glyph-name="eacute" unicode="&#xe9;" horiz-adv-x="1370" 
d="M1319 494h-750q-22 0 -29.5 -7.5t-7.5 -27.5q6 -258 43 -318q22 -32 50.5 -46.5t83.5 -14.5q62 0 93 21.5t44.5 81.5t13.5 182h457q0 -115 -28 -189t-99 -122.5t-186.5 -68.5t-296.5 -20q-304 0 -449 82q-215 123 -215 477q0 362 209 484q141 82 434 82q311 0 451 -97
q57 -40 95 -97t56 -126.5t24.5 -133t6.5 -142.5zM569 920q-34 -71 -37 -291q0 -20 7.5 -25.5t31.5 -5.5h228q21 0 29 8t8 27q0 103 -12 179.5t-25 109.5q-25 57 -113 57q-48 0 -74.5 -14.5t-42.5 -44.5zM518 1141l-61 166l553 286l120 -319z" />
    <glyph glyph-name="ecircumflex" unicode="&#xea;" horiz-adv-x="1370" 
d="M1319 494h-750q-22 0 -29.5 -7.5t-7.5 -27.5q6 -258 43 -318q22 -32 50.5 -46.5t83.5 -14.5q62 0 93 21.5t44.5 81.5t13.5 182h457q0 -115 -28 -189t-99 -122.5t-186.5 -68.5t-296.5 -20q-304 0 -449 82q-215 123 -215 477q0 362 209 484q141 82 434 82q311 0 451 -97
q57 -40 95 -97t56 -126.5t24.5 -133t6.5 -142.5zM569 920q-34 -71 -37 -291q0 -20 7.5 -25.5t31.5 -5.5h228q21 0 29 8t8 27q0 103 -12 179.5t-25 109.5q-25 57 -113 57q-48 0 -74.5 -14.5t-42.5 -44.5zM260 1296l299 228h254l295 -226l-100 -161l-273 108
q-39 16 -55.5 16.5t-58.5 -16.5l-265 -108z" />
    <glyph glyph-name="edieresis" unicode="&#xeb;" horiz-adv-x="1370" 
d="M1319 494h-750q-22 0 -29.5 -7.5t-7.5 -27.5q6 -258 43 -318q22 -32 50.5 -46.5t83.5 -14.5q62 0 93 21.5t44.5 81.5t13.5 182h457q0 -115 -28 -189t-99 -122.5t-186.5 -68.5t-296.5 -20q-304 0 -449 82q-215 123 -215 477q0 362 209 484q141 82 434 82q311 0 451 -97
q57 -40 95 -97t56 -126.5t24.5 -133t6.5 -142.5zM569 920q-34 -71 -37 -291q0 -20 7.5 -25.5t31.5 -5.5h228q21 0 29 8t8 27q0 103 -12 179.5t-25 109.5q-25 57 -113 57q-48 0 -74.5 -14.5t-42.5 -44.5zM446 1458h13q170 0 170 -151q0 -77 -45 -115.5t-125 -38.5h-13
q-81 0 -126.5 38.5t-45.5 115.5q0 151 172 151zM911 1458h13q170 0 170 -151q0 -77 -45 -115.5t-125 -38.5h-13q-81 0 -126.5 38.5t-45.5 115.5q0 151 172 151z" />
    <glyph glyph-name="igrave" unicode="&#xec;" horiz-adv-x="800" 
d="M784 119v-119h-764v119q86 0 117 27t31 112v530q0 87 -35 120t-123 36v119q160 -16 365 -16q164 0 262 16v-805q0 -86 30 -112.5t117 -26.5zM653 1307l-61 -166l-612 133l120 319z" />
    <glyph glyph-name="iacute" unicode="&#xed;" horiz-adv-x="800" 
d="M784 119v-119h-764v119q86 0 117 27t31 112v530q0 87 -35 120t-123 36v119q160 -16 365 -16q164 0 262 16v-805q0 -86 30 -112.5t117 -26.5zM186 1141l-61 166l553 286l121 -319z" />
    <glyph glyph-name="icircumflex" unicode="&#xee;" horiz-adv-x="800" 
d="M784 119v-119h-764v119q86 0 117 27t31 112v530q0 87 -35 120t-123 36v119q160 -16 365 -16q164 0 262 16v-805q0 -86 30 -112.5t117 -26.5zM-35 1296l299 228h254l295 -226l-100 -161l-273 108q-39 16 -55.5 16.5t-58.5 -16.5l-265 -108z" />
    <glyph glyph-name="idieresis" unicode="&#xef;" horiz-adv-x="800" 
d="M784 119v-119h-764v119q86 0 117 27t31 112v530q0 87 -35 120t-123 36v119q160 -16 365 -16q164 0 262 16v-805q0 -86 30 -112.5t117 -26.5zM152 1458h12q170 0 170 -151q0 -77 -45 -115.5t-125 -38.5h-12q-81 0 -126.5 38.5t-45.5 115.5q0 151 172 151zM616 1458h13
q170 0 170 -151q0 -77 -45 -115.5t-125 -38.5h-13q-81 0 -126.5 38.5t-45.5 115.5q0 151 172 151z" />
    <glyph glyph-name="eth" unicode="&#xf0;" horiz-adv-x="1339" 
d="M414 965l-64 96l199 129q29 19 -2 33q-92 39 -273 71l17 97q260 -24 414 -72q28 -8 51 6l182 119l66 -96l-107 -70q-29 -19 2 -33q202 -95 295.5 -263t93.5 -421q0 -334 -147 -467q-144 -129 -500 -129q-296 0 -426 68q-58 31 -97 74t-58.5 96t-27 105t-7.5 116
q0 274 145 373q95 65 295 65q129 0 198.5 -28.5t110.5 -83.5q9 -11 20 -11.5t11 19.5q-9 259 -111 358q-19 19 -41 4zM643 694q-67 0 -90 -30q-26 -28 -33.5 -86t-7.5 -166q0 -215 25 -271q16 -35 41.5 -47t72.5 -12q45 0 71.5 12.5t43.5 46.5q27 55 27 236q0 184 -30 250.5
t-120 66.5z" />
    <glyph glyph-name="ntilde" unicode="&#xf1;" horiz-adv-x="1531" 
d="M31 0v119q79 0 108 27t29 112v537q0 85 -34 113t-114 28v119h590v-111q0 -17 9 -17.5t18 13.5q25 38 49.5 62t65 46t102 32t147.5 10q114 0 186 -19.5t114 -65t57.5 -110t15.5 -166.5v-471q0 -90 23.5 -114.5t109.5 -24.5v-119h-714v119q69 0 90.5 27.5t21.5 115.5v467
q0 90 -24 123t-95 33q-84 0 -116.5 -37.5t-32.5 -124.5v-461q0 -89 20.5 -116t92.5 -27v-119h-719zM336 1174q0 185 52.5 257t178.5 72q86 0 209 -49l41 -16q101 -41 154 -41q46 0 63 17.5t17 74.5h118q0 -186 -52.5 -258t-178.5 -72q-86 0 -209 49l-41 17q-101 41 -153 41
q-46 0 -63 -17.5t-17 -74.5h-119z" />
    <glyph glyph-name="ograve" unicode="&#xf2;" 
d="M698 1090q306 0 445 -82q211 -121 211 -482q0 -358 -211 -479q-139 -82 -445 -82q-305 0 -444 82q-211 121 -211 479q0 361 211 482q139 82 444 82zM698 973q-50 0 -75.5 -14.5t-44.5 -45.5q-41 -71 -41 -387q0 -314 41 -385q19 -31 44.5 -45t75.5 -14q51 0 76.5 14
t44.5 45q41 71 41 385q0 316 -41 387q-19 31 -45 45.5t-76 14.5zM948 1307l-61 -166l-613 133l121 319z" />
    <glyph glyph-name="oacute" unicode="&#xf3;" 
d="M698 1090q306 0 445 -82q211 -121 211 -482q0 -358 -211 -479q-139 -82 -445 -82q-305 0 -444 82q-211 121 -211 479q0 361 211 482q139 82 444 82zM698 973q-50 0 -75.5 -14.5t-44.5 -45.5q-41 -71 -41 -387q0 -314 41 -385q19 -31 44.5 -45t75.5 -14q51 0 76.5 14
t44.5 45q41 71 41 385q0 316 -41 387q-19 31 -45 45.5t-76 14.5zM504 1141l-62 166l553 286l121 -319z" />
    <glyph glyph-name="ocircumflex" unicode="&#xf4;" 
d="M698 1090q306 0 445 -82q211 -121 211 -482q0 -358 -211 -479q-139 -82 -445 -82q-305 0 -444 82q-211 121 -211 479q0 361 211 482q139 82 444 82zM698 973q-50 0 -75.5 -14.5t-44.5 -45.5q-41 -71 -41 -387q0 -314 41 -385q19 -31 44.5 -45t75.5 -14q51 0 76.5 14
t44.5 45q41 71 41 385q0 316 -41 387q-19 31 -45 45.5t-76 14.5zM274 1296l299 228h254l295 -226l-100 -161l-272 108q-39 16 -56 16.5t-59 -16.5l-264 -108z" />
    <glyph glyph-name="otilde" unicode="&#xf5;" 
d="M698 1090q306 0 445 -82q211 -121 211 -482q0 -358 -211 -479q-139 -82 -445 -82q-305 0 -444 82q-211 121 -211 479q0 361 211 482q139 82 444 82zM698 973q-50 0 -75.5 -14.5t-44.5 -45.5q-41 -71 -41 -387q0 -314 41 -385q19 -31 44.5 -45t75.5 -14q51 0 76.5 14
t44.5 45q41 71 41 385q0 316 -41 387q-19 31 -45 45.5t-76 14.5zM283 1174q0 185 52.5 257t178.5 72q86 0 209 -49l41 -16q101 -41 154 -41q45 0 62 17.5t17 74.5h119q0 -186 -52.5 -258t-178.5 -72q-86 0 -209 49l-41 17q-101 41 -154 41q-46 0 -63 -17.5t-17 -74.5h-118z
" />
    <glyph glyph-name="odieresis" unicode="&#xf6;" 
d="M698 1090q306 0 445 -82q211 -121 211 -482q0 -358 -211 -479q-139 -82 -445 -82q-305 0 -444 82q-211 121 -211 479q0 361 211 482q139 82 444 82zM698 973q-50 0 -75.5 -14.5t-44.5 -45.5q-41 -71 -41 -387q0 -314 41 -385q19 -31 44.5 -45t75.5 -14q51 0 76.5 14
t44.5 45q41 71 41 385q0 316 -41 387q-19 31 -45 45.5t-76 14.5zM461 1458h12q170 0 170 -151q0 -77 -45 -115.5t-125 -38.5h-12q-81 0 -126.5 38.5t-45.5 115.5q0 151 172 151zM926 1458h12q170 0 170 -151q0 -77 -45 -115.5t-125 -38.5h-12q-81 0 -126.5 38.5t-45.5 115.5
q0 151 172 151z" />
    <glyph glyph-name="oslash" unicode="&#xf8;" horiz-adv-x="1400" 
d="M59 25l86 77q21 19 2 41q-102 127 -102 383q0 361 211 482q139 82 444 82q302 0 414 -68q32 -19 62 8l92 82l73 -86l-84 -76q-19 -17 -2 -41q101 -130 101 -383q0 -358 -211 -479q-139 -82 -445 -82q-279 0 -411 66q-17 9 -30.5 8t-31.5 -16l-94 -84zM700 973
q-50 0 -75.5 -14.5t-44.5 -45.5q-41 -71 -41 -387v-24q0 -19 9.5 -23t26.5 10l246 222q23 20 28.5 33t2.5 40q-5 47 -12 75.5t-22 57.5t-44.5 42.5t-73.5 13.5zM862 526v25q0 19 -10 23t-27 -11l-245 -223q-23 -20 -28.5 -33.5t-2.5 -40.5q10 -97 39.5 -140.5t111.5 -43.5
q51 0 76.5 14t44.5 45q41 71 41 385z" />
    <glyph glyph-name="ugrave" unicode="&#xf9;" horiz-adv-x="1501" 
d="M1337 1055v-797q0 -86 30.5 -112.5t117.5 -26.5v-119h-590v111q0 17 -9 17.5t-18 -13.5q-25 -38 -49 -62t-64.5 -46t-101.5 -32t-147 -10q-150 0 -229.5 35t-109.5 107.5t-30 207.5v482q0 90 -23.5 114.5t-109.5 24.5v119h602v-725q0 -91 24 -125.5t93 -34.5
q81 0 113 37.5t32 124.5v461q0 89 -21.5 116t-98.5 27v119h589zM952 1307l-61 -166l-612 133l120 319z" />
    <glyph glyph-name="uacute" unicode="&#xfa;" horiz-adv-x="1501" 
d="M1337 1055v-797q0 -86 30.5 -112.5t117.5 -26.5v-119h-590v111q0 17 -9 17.5t-18 -13.5q-25 -38 -49 -62t-64.5 -46t-101.5 -32t-147 -10q-150 0 -229.5 35t-109.5 107.5t-30 207.5v482q0 90 -23.5 114.5t-109.5 24.5v119h602v-725q0 -91 24 -125.5t93 -34.5
q81 0 113 37.5t32 124.5v461q0 89 -21.5 116t-98.5 27v119h589zM549 1141l-62 166l553 286l121 -319z" />
    <glyph glyph-name="ucircumflex" unicode="&#xfb;" horiz-adv-x="1501" 
d="M1337 1055v-797q0 -86 30.5 -112.5t117.5 -26.5v-119h-590v111q0 17 -9 17.5t-18 -13.5q-25 -38 -49 -62t-64.5 -46t-101.5 -32t-147 -10q-150 0 -229.5 35t-109.5 107.5t-30 207.5v482q0 90 -23.5 114.5t-109.5 24.5v119h602v-725q0 -91 24 -125.5t93 -34.5
q81 0 113 37.5t32 124.5v461q0 89 -21.5 116t-98.5 27v119h589zM295 1296l299 228h254l295 -226l-101 -161l-272 108q-39 16 -56 16.5t-59 -16.5l-264 -108z" />
    <glyph glyph-name="udieresis" unicode="&#xfc;" horiz-adv-x="1501" 
d="M1337 1055v-797q0 -86 30.5 -112.5t117.5 -26.5v-119h-590v111q0 17 -9 17.5t-18 -13.5q-25 -38 -49 -62t-64.5 -46t-101.5 -32t-147 -10q-150 0 -229.5 35t-109.5 107.5t-30 207.5v482q0 90 -23.5 114.5t-109.5 24.5v119h602v-725q0 -91 24 -125.5t93 -34.5
q81 0 113 37.5t32 124.5v461q0 89 -21.5 116t-98.5 27v119h589zM479 1458h13q170 0 170 -151q0 -77 -45 -115.5t-125 -38.5h-13q-81 0 -126.5 38.5t-45.5 115.5q0 151 172 151zM944 1458h12q170 0 170 -151q0 -77 -45 -115.5t-125 -38.5h-12q-81 0 -126.5 38.5t-45.5 115.5
q0 151 172 151z" />
    <glyph glyph-name="yacute" unicode="&#xfd;" horiz-adv-x="1456" 
d="M965 1055h475v-119q-62 0 -93.5 -22t-58.5 -91l-356 -905q-67 -172 -151.5 -229.5t-264.5 -57.5q-239 0 -334.5 62t-95.5 211h442q0 -83 21 -112.5t76 -29.5q68 0 101.5 33t74.5 135l8 21q12 29 5 39t-38 10h-295l-325 825q-26 67 -55 89t-87 22v119h783v-119
q-100 0 -139.5 -15.5t-39.5 -50.5q0 -19 11 -53l235 -635q8 -22 20.5 -22.5t20.5 22.5l144 398q86 232 86 288q0 43 -36 55.5t-134 12.5v119zM700 1141l-61 166l553 286l121 -319z" />
    <glyph glyph-name="thorn" unicode="&#xfe;" horiz-adv-x="1452" 
d="M592 690v-352q0 -120 40 -163.5t116 -43.5q51 0 77 12t45 39q43 59 43 328q0 271 -45 328q-20 27 -48.5 39t-82.5 12q-76 0 -110.5 -42.5t-34.5 -156.5zM-14 -322v119q79 0 108 27.5t29 112.5v1124q0 84 -32 112.5t-105 28.5v119h606v-342q0 -12 8.5 -14t17.5 8
q46 58 118 87.5t210 29.5q212 0 311 -86q148 -127 148 -502q0 -340 -164 -459q-110 -78 -309 -78q-128 0 -198 29t-116 80q-9 10 -17.5 8t-8.5 -14v-131q0 -34 3 -56t14 -38.5t24.5 -25t42 -13.5t57.5 -6t80 -1v-119h-827z" />
    <glyph glyph-name="ydieresis" unicode="&#xff;" horiz-adv-x="1456" 
d="M965 1055h475v-119q-62 0 -93.5 -22t-58.5 -91l-356 -905q-67 -172 -151.5 -229.5t-264.5 -57.5q-239 0 -334.5 62t-95.5 211h442q0 -83 21 -112.5t76 -29.5q68 0 101.5 33t74.5 135l8 21q12 29 5 39t-38 10h-295l-325 825q-26 67 -55 89t-87 22v119h783v-119
q-100 0 -139.5 -15.5t-39.5 -50.5q0 -19 11 -53l235 -635q8 -22 20.5 -22.5t20.5 22.5l144 398q86 232 86 288q0 43 -36 55.5t-134 12.5v119zM629 1458h12q170 0 170 -151q0 -77 -45 -115.5t-125 -38.5h-12q-81 0 -126.5 38.5t-45.5 115.5q0 151 172 151zM1094 1458h12
q170 0 170 -151q0 -77 -45 -115.5t-125 -38.5h-12q-81 0 -126.5 38.5t-45.5 115.5q0 151 172 151z" />
    <glyph glyph-name="Amacron" unicode="&#x100;" horiz-adv-x="1624" 
d="M18 119q57 0 92.5 27t59.5 98l348 1005q15 45 33.5 58.5t71.5 13.5h385q53 0 70.5 -13.5t33.5 -58.5l342 -1005q26 -75 57 -100t93 -25v-119h-850v119q131 0 166 29t12 100l-33 108q-8 31 -45 31h-428q-20 0 -29.5 -6.5t-15.5 -24.5l-10 -30q-23 -74 -23 -113
q0 -55 42.5 -74.5t160.5 -19.5v-119h-533v119zM627 1120l-187 -579q-11 -33 25 -33h354q34 0 25 33l-178 579q-8 24 -19.5 24t-19.5 -24zM954 1425h-278q-109 0 -234 -8v213q125 -8 234 -8h278q109 0 234 8v-213q-125 8 -234 8z" />
    <glyph glyph-name="amacron" unicode="&#x101;" horiz-adv-x="1404" 
d="M63 264q0 45 6 81t21 64.5t32.5 50t49.5 39.5t62 30t79 24t92.5 20t110.5 19l244 39q22 3 29.5 12t7.5 29v106q0 84 -12.5 127t-37 57.5t-71.5 14.5q-31 0 -50.5 -5.5t-36 -22t-25 -48.5t-13 -83.5t-4.5 -129.5h-430q0 152 56 238t182.5 125t349.5 39q213 0 330.5 -37.5
t166.5 -119t49 -228.5v-447q0 -90 23.5 -114.5t109.5 -24.5v-119h-561v96q0 14 -11 15t-17 -9q-59 -75 -131.5 -106t-217.5 -31q-209 0 -296 72t-87 227zM797 295v199q0 20 -7.5 26.5t-29.5 3.5l-88 -14q-76 -13 -102.5 -47.5t-26.5 -136.5q0 -95 24.5 -132.5t87.5 -37.5
q68 0 105 35t37 104zM817 1180h-278q-93 0 -234 -9v213q125 -8 234 -8h278q109 0 234 8v-213q-141 9 -234 9z" />
    <glyph glyph-name="Abreve" unicode="&#x102;" horiz-adv-x="1624" 
d="M18 119q57 0 92.5 27t59.5 98l348 1005q15 45 33.5 58.5t71.5 13.5h385q53 0 70.5 -13.5t33.5 -58.5l342 -1005q26 -75 57 -100t93 -25v-119h-850v119q131 0 166 29t12 100l-33 108q-8 31 -45 31h-428q-20 0 -29.5 -6.5t-15.5 -24.5l-10 -30q-23 -74 -23 -113
q0 -55 42.5 -74.5t160.5 -19.5v-119h-533v119zM627 1120l-187 -579q-11 -33 25 -33h354q34 0 25 33l-178 579q-8 24 -19.5 24t-19.5 -24zM543 1782q0 -54 21.5 -82t80.5 -40.5t176 -12.5q112 0 168 12.5t77 40.5t21 82h123q0 -77 -6.5 -131t-23.5 -99.5t-45 -73.5
t-73.5 -47.5t-106.5 -27.5t-146 -8q-121 0 -195.5 18.5t-118.5 66t-59.5 117.5t-15.5 185h123z" />
    <glyph glyph-name="abreve" unicode="&#x103;" horiz-adv-x="1404" 
d="M63 264q0 45 6 81t21 64.5t32.5 50t49.5 39.5t62 30t79 24t92.5 20t110.5 19l244 39q22 3 29.5 12t7.5 29v106q0 84 -12.5 127t-37 57.5t-71.5 14.5q-31 0 -50.5 -5.5t-36 -22t-25 -48.5t-13 -83.5t-4.5 -129.5h-430q0 152 56 238t182.5 125t349.5 39q213 0 330.5 -37.5
t166.5 -119t49 -228.5v-447q0 -90 23.5 -114.5t109.5 -24.5v-119h-561v96q0 14 -11 15t-17 -9q-59 -75 -131.5 -106t-217.5 -31q-209 0 -296 72t-87 227zM797 295v199q0 20 -7.5 26.5t-29.5 3.5l-88 -14q-76 -13 -102.5 -47.5t-26.5 -136.5q0 -95 24.5 -132.5t87.5 -37.5
q68 0 105 35t37 104zM406 1536q0 -54 21.5 -82t80.5 -40.5t176 -12.5q112 0 168 12.5t77 40.5t21 82h123q0 -77 -6.5 -131t-23.5 -99.5t-45 -73.5t-73.5 -47.5t-106.5 -27.5t-146 -8q-121 0 -195.5 18.5t-118.5 66t-59.5 117.5t-15.5 185h123z" />
    <glyph glyph-name="Aogonek" unicode="&#x104;" horiz-adv-x="1624" 
d="M18 119q57 0 92.5 27t59.5 98l348 1005q15 45 33.5 58.5t71.5 13.5h385q53 0 70.5 -13.5t33.5 -58.5l342 -1005q26 -75 57 -100t93 -25v-119h-19q-70 0 -112 -9t-82 -30q-81 -41 -103 -83.5t-22 -119.5q0 -48 13.5 -65t47.5 -17q42 0 53 20.5t11 76.5h264q0 -61 -28 -95
t-101 -51.5t-205 -17.5q-177 0 -250.5 32t-73.5 121q0 84 72.5 134.5t226.5 85.5q10 2 13.5 6.5t-0.5 8t-15 3.5h-540v119q131 0 166 29t12 100l-33 108q-8 31 -45 31h-428q-20 0 -29.5 -6.5t-15.5 -24.5l-10 -30q-23 -74 -23 -113q0 -55 42.5 -74.5t160.5 -19.5v-119h-533
v119zM627 1120l-187 -579q-11 -33 25 -33h354q34 0 25 33l-178 579q-8 24 -19.5 24t-19.5 -24z" />
    <glyph glyph-name="aogonek" unicode="&#x105;" horiz-adv-x="1404" 
d="M1384 119v-119q-61 -23 -101.5 -45t-63.5 -41t-34.5 -46t-14.5 -49.5t-3 -60.5q0 -48 14 -65t48 -17q42 0 52.5 20.5t10.5 76.5h264q0 -61 -27.5 -95t-100.5 -51.5t-205 -17.5q-177 0 -250.5 32t-73.5 121q0 85 74.5 135.5t230.5 84.5q10 2 13.5 6.5t-0.5 8t-15 3.5h-379
v96q0 14 -11 15t-17 -9q-59 -75 -131.5 -106t-217.5 -31q-209 0 -296 72t-87 227q0 45 6 81t21 64.5t32.5 50t49.5 39.5t62 30t79 24t92.5 20t110.5 19l244 39q22 3 29.5 12t7.5 29v106q0 84 -12.5 127t-37 57.5t-71.5 14.5q-31 0 -50.5 -5.5t-36 -22t-25 -48.5t-13 -83.5
t-4.5 -129.5h-430q0 152 56 238t182.5 125t349.5 39q213 0 330.5 -37.5t166.5 -119t49 -228.5v-447q0 -90 23.5 -114.5t109.5 -24.5zM797 295v199q0 20 -7.5 26.5t-29.5 3.5l-88 -14q-76 -13 -102.5 -47.5t-26.5 -136.5q0 -95 24.5 -132.5t87.5 -37.5q68 0 105 35t37 104z
" />
    <glyph glyph-name="Cacute" unicode="&#x106;" horiz-adv-x="1554" 
d="M993 899q0 190 -38 260t-154 70q-70 0 -106 -19t-64 -59q-58 -93 -58 -489q0 -388 58 -494q24 -38 62 -57t110 -19q124 0 164.5 79t40.5 298h499q0 -146 -42 -244t-133 -155.5t-218 -81t-313 -23.5q-354 0 -508 98q-244 153 -244 599q0 442 244 595q156 99 508 99
q162 0 280 -19t196 -54t124 -92.5t65 -127t19 -164.5h-492zM633 1397l-62 166l553 286l121 -319z" />
    <glyph glyph-name="cacute" unicode="&#x107;" horiz-adv-x="1304" 
d="M834 688q0 162 -28.5 223.5t-115.5 61.5q-85 0 -117 -60q-36 -67 -36 -387q0 -308 36 -385q27 -59 117 -59q88 0 118 61t30 222h428q0 -114 -34.5 -191.5t-108.5 -123.5t-178.5 -65.5t-256.5 -19.5q-296 0 -438 82q-207 122 -207 479q0 362 207 482q141 82 438 82
q165 0 275.5 -24.5t174 -77.5t89.5 -124.5t26 -175.5h-419zM489 1141l-61 166l553 286l121 -319z" />
    <glyph glyph-name="Ccircumflex" unicode="&#x108;" horiz-adv-x="1554" 
d="M993 899q0 190 -38 260t-154 70q-70 0 -106 -19t-64 -59q-58 -93 -58 -489q0 -388 58 -494q24 -38 62 -57t110 -19q124 0 164.5 79t40.5 298h499q0 -146 -42 -244t-133 -155.5t-218 -81t-313 -23.5q-354 0 -508 98q-244 153 -244 599q0 442 244 595q156 99 508 99
q162 0 280 -19t196 -54t124 -92.5t65 -127t19 -164.5h-492zM375 1542l299 227h254l295 -225l-101 -162l-272 109q-39 16 -56 16.5t-59 -16.5l-264 -109z" />
    <glyph glyph-name="ccircumflex" unicode="&#x109;" horiz-adv-x="1304" 
d="M834 688q0 162 -28.5 223.5t-115.5 61.5q-85 0 -117 -60q-36 -67 -36 -387q0 -308 36 -385q27 -59 117 -59q88 0 118 61t30 222h428q0 -114 -34.5 -191.5t-108.5 -123.5t-178.5 -65.5t-256.5 -19.5q-296 0 -438 82q-207 122 -207 479q0 362 207 482q141 82 438 82
q165 0 275.5 -24.5t174 -77.5t89.5 -124.5t26 -175.5h-419zM256 1296l299 228h254l295 -226l-100 -161l-273 108q-39 16 -56 16.5t-59 -16.5l-264 -108z" />
    <glyph glyph-name="Cdotaccent" unicode="&#x10a;" horiz-adv-x="1554" 
d="M993 899q0 190 -38 260t-154 70q-70 0 -106 -19t-64 -59q-58 -93 -58 -489q0 -388 58 -494q24 -38 62 -57t110 -19q124 0 164.5 79t40.5 298h499q0 -146 -42 -244t-133 -155.5t-218 -81t-313 -23.5q-354 0 -508 98q-244 153 -244 599q0 442 244 595q156 99 508 99
q162 0 280 -19t196 -54t124 -92.5t65 -127t19 -164.5h-492zM791 1724h16q199 0 199 -157q0 -158 -199 -158h-16q-199 0 -199 158q0 157 199 157z" />
    <glyph glyph-name="cdotaccent" unicode="&#x10b;" horiz-adv-x="1304" 
d="M834 688q0 162 -28.5 223.5t-115.5 61.5q-85 0 -117 -60q-36 -67 -36 -387q0 -308 36 -385q27 -59 117 -59q88 0 118 61t30 222h428q0 -114 -34.5 -191.5t-108.5 -123.5t-178.5 -65.5t-256.5 -19.5q-296 0 -438 82q-207 122 -207 479q0 362 207 482q141 82 438 82
q165 0 275.5 -24.5t174 -77.5t89.5 -124.5t26 -175.5h-419zM672 1468h16q199 0 199 -157q0 -158 -199 -158h-16q-199 0 -199 158q0 157 199 157z" />
    <glyph glyph-name="Ccaron" unicode="&#x10c;" horiz-adv-x="1554" 
d="M993 899q0 190 -38 260t-154 70q-70 0 -106 -19t-64 -59q-58 -93 -58 -489q0 -388 58 -494q24 -38 62 -57t110 -19q124 0 164.5 79t40.5 298h499q0 -146 -42 -244t-133 -155.5t-218 -81t-313 -23.5q-354 0 -508 98q-244 153 -244 599q0 442 244 595q156 99 508 99
q162 0 280 -19t196 -54t124 -92.5t65 -127t19 -164.5h-492zM1223 1638l-299 -227h-254l-295 225l100 162l273 -108q39 -16 55.5 -16.5t58.5 16.5l264 108z" />
    <glyph glyph-name="ccaron" unicode="&#x10d;" horiz-adv-x="1304" 
d="M834 688q0 162 -28.5 223.5t-115.5 61.5q-85 0 -117 -60q-36 -67 -36 -387q0 -308 36 -385q27 -59 117 -59q88 0 118 61t30 222h428q0 -114 -34.5 -191.5t-108.5 -123.5t-178.5 -65.5t-256.5 -19.5q-296 0 -438 82q-207 122 -207 479q0 362 207 482q141 82 438 82
q165 0 275.5 -24.5t174 -77.5t89.5 -124.5t26 -175.5h-419zM1104 1382l-299 -227h-254l-295 225l100 162l273 -108q39 -16 55.5 -16.5t58.5 16.5l265 108z" />
    <glyph glyph-name="Dcaron" unicode="&#x10e;" horiz-adv-x="1658" 
d="M20 1321h852q346 0 500 -92q240 -146 240 -574q0 -114 -19 -213t-75 -197.5t-146 -154.5q-145 -90 -500 -90h-852v119q104 0 136 26t32 113v803q0 89 -31.5 115t-136.5 26v119zM735 131h117q74 0 112.5 17t65.5 53q62 83 62 458q0 379 -62 461q-27 36 -65.5 53t-112.5 17
h-117q-23 0 -31 -6.5t-8 -28.5v-989q0 -23 7.5 -29t31.5 -6zM1280 1628l-299 -227h-254l-295 225l100 162l273 -109q39 -16 56 -16.5t59 16.5l264 109z" />
    <glyph glyph-name="dcaron" unicode="&#x10f;" horiz-adv-x="1492" 
d="M860 358v357q0 120 -39.5 163.5t-115.5 43.5q-50 0 -77 -13.5t-46 -40.5q-43 -64 -43 -327t41 -322q19 -27 49.5 -39t85.5 -12q77 0 111 39t34 151zM887 0v106q0 14 -8.5 17.5t-18.5 -10.5q-51 -75 -125.5 -111.5t-228.5 -36.5q-214 0 -311 82q-148 120 -148 479
q0 355 162 480q112 84 311 84q128 0 198 -30t116 -83q9 -10 17.5 -8t8.5 14v80q0 49 -7.5 75.5t-31.5 41.5t-56 18.5t-95 3.5v119h659v-1063q0 -86 30.5 -112.5t117.5 -26.5v-119h-590zM1509 1434h9q83 0 117 -36.5t34 -127.5q0 -73 -23 -113.5t-83.5 -61t-171.5 -20.5v84
q83 0 113 8t30 31q0 22 -49 14q-58 -8 -91.5 17.5t-33.5 81.5q0 123 149 123z" />
    <glyph glyph-name="Dcroat" unicode="&#x110;" horiz-adv-x="1658" 
d="M70 623v122h51q47 0 57 8.5t10 47.5v260q0 89 -31.5 115t-136.5 26v119h852q346 0 500 -92q240 -146 240 -574q0 -114 -19 -213t-75 -197.5t-146 -154.5q-145 -90 -500 -90h-852v119q104 0 136 26t32 113v309q0 39 -10 47.5t-57 8.5h-51zM735 131h117q74 0 112.5 17
t65.5 53q62 83 62 458q0 379 -62 461q-27 36 -65.5 53t-112.5 17h-117q-23 0 -31 -6.5t-8 -28.5v-354q0 -38 10.5 -47t57.5 -9h147v-122h-147q-47 0 -57.5 -9t-10.5 -47v-401q0 -23 7.5 -29t31.5 -6z" />
    <glyph glyph-name="dcroat" unicode="&#x111;" horiz-adv-x="1482" 
d="M1446 991h-60q-47 0 -57 -8.5t-10 -46.5v-678q0 -86 30 -112.5t117 -26.5v-119h-589v106q0 14 -8.5 17.5t-18.5 -10.5q-51 -75 -125.5 -111.5t-228.5 -36.5q-212 0 -312 78q-71 57 -109 168t-38 231q0 303 162 406q120 74 311 74q128 0 197.5 -30t115.5 -83q9 -10 18 -8
t9 14v121q0 38 -10.5 46.5t-57.5 8.5h-233v111h233q45 0 56.5 7t11.5 34v4q0 37 -43.5 54.5t-147.5 17.5v102h660v-164q0 -38 10 -46.5t57 -8.5h60v-111zM850 358v189q0 120 -40 163.5t-116 43.5q-51 0 -77.5 -10.5t-45.5 -32.5q-43 -46 -43 -254q0 -190 41 -242
q35 -47 136 -47q77 0 111 39t34 151z" />
    <glyph glyph-name="Emacron" unicode="&#x112;" horiz-adv-x="1394" 
d="M1303 1321v-367h-285q0 79 -10.5 125t-40.5 71t-69.5 32.5t-111.5 7.5h-65q-23 0 -31 -6.5t-8 -28.5v-377q0 -23 7.5 -29t31.5 -6h70q81 0 107 25.5t26 114.5h221v-420h-221q0 95 -26 122t-107 27h-70q-23 0 -31 -6t-8 -28v-412q0 -23 7.5 -29t31.5 -6h72q60 0 97.5 3
t71 13t51 26.5t30.5 47.5t17.5 72t4.5 102h285v-395h-1330v119q104 0 136 26t32 113v803q0 89 -31.5 115t-136.5 26v119h1283zM840 1425h-279q-108 0 -233 -8v213q125 -8 233 -8h279q108 0 233 8v-213q-125 8 -233 8z" />
    <glyph glyph-name="emacron" unicode="&#x113;" horiz-adv-x="1370" 
d="M1319 494h-750q-22 0 -29.5 -7.5t-7.5 -27.5q6 -258 43 -318q22 -32 50.5 -46.5t83.5 -14.5q62 0 93 21.5t44.5 81.5t13.5 182h457q0 -115 -28 -189t-99 -122.5t-186.5 -68.5t-296.5 -20q-304 0 -449 82q-215 123 -215 477q0 362 209 484q141 82 434 82q311 0 451 -97
q57 -40 95 -97t56 -126.5t24.5 -133t6.5 -142.5zM569 920q-34 -71 -37 -291q0 -20 7.5 -25.5t31.5 -5.5h228q21 0 29 8t8 27q0 103 -12 179.5t-25 109.5q-25 57 -113 57q-48 0 -74.5 -14.5t-42.5 -44.5zM823 1180h-278q-93 0 -234 -9v213q125 -8 234 -8h278q109 0 234 8
v-213q-141 9 -234 9z" />
    <glyph glyph-name="Edotaccent" unicode="&#x116;" horiz-adv-x="1394" 
d="M1303 1321v-367h-285q0 79 -10.5 125t-40.5 71t-69.5 32.5t-111.5 7.5h-65q-23 0 -31 -6.5t-8 -28.5v-377q0 -23 7.5 -29t31.5 -6h70q81 0 107 25.5t26 114.5h221v-420h-221q0 95 -26 122t-107 27h-70q-23 0 -31 -6t-8 -28v-412q0 -23 7.5 -29t31.5 -6h72q60 0 97.5 3
t71 13t51 26.5t30.5 47.5t17.5 72t4.5 102h285v-395h-1330v119q104 0 136 26t32 113v803q0 89 -31.5 115t-136.5 26v119h1283zM692 1714h17q198 0 198 -158q0 -157 -198 -157h-17q-198 0 -198 157q0 158 198 158z" />
    <glyph glyph-name="edotaccent" unicode="&#x117;" horiz-adv-x="1370" 
d="M1319 494h-750q-22 0 -29.5 -7.5t-7.5 -27.5q6 -258 43 -318q22 -32 50.5 -46.5t83.5 -14.5q62 0 93 21.5t44.5 81.5t13.5 182h457q0 -115 -28 -189t-99 -122.5t-186.5 -68.5t-296.5 -20q-304 0 -449 82q-215 123 -215 477q0 362 209 484q141 82 434 82q311 0 451 -97
q57 -40 95 -97t56 -126.5t24.5 -133t6.5 -142.5zM569 920q-34 -71 -37 -291q0 -20 7.5 -25.5t31.5 -5.5h228q21 0 29 8t8 27q0 103 -12 179.5t-25 109.5q-25 57 -113 57q-48 0 -74.5 -14.5t-42.5 -44.5zM676 1468h16q199 0 199 -157q0 -158 -199 -158h-16q-199 0 -199 158
q0 157 199 157z" />
    <glyph glyph-name="Eogonek" unicode="&#x118;" horiz-adv-x="1394" 
d="M1303 1321v-367h-285q0 79 -10.5 125t-40.5 71t-69.5 32.5t-111.5 7.5h-65q-23 0 -31 -6.5t-8 -28.5v-377q0 -23 7.5 -29t31.5 -6h70q81 0 107 25.5t26 114.5h221v-420h-221q0 95 -26 122t-107 27h-70q-23 0 -31 -6t-8 -28v-412q0 -23 7.5 -29t31.5 -6h72q60 0 97.5 3
t71 13t51 26.5t30.5 47.5t17.5 72t4.5 102h285v-395h-13q-70 0 -112 -9t-82 -30q-81 -41 -103 -83.5t-22 -119.5q0 -48 13.5 -65t47.5 -17q42 0 53 20.5t11 76.5h264q0 -61 -28 -95t-101 -51.5t-205 -17.5q-177 0 -250 32t-73 121q0 85 74.5 135.5t228.5 84.5q10 2 13.5 6.5
t-0.5 8t-15 3.5h-1031v119q104 0 136 26t32 113v803q0 89 -31.5 115t-136.5 26v119h1283z" />
    <glyph glyph-name="eogonek" unicode="&#x119;" horiz-adv-x="1370" 
d="M1319 494h-750q-22 0 -29.5 -7.5t-7.5 -27.5q6 -258 43 -318q22 -32 50.5 -46.5t83.5 -14.5q62 0 93 21.5t44.5 81.5t13.5 182h457q0 -156 -50.5 -238t-185.5 -125q-62 -19 -104 -40.5t-66.5 -41.5t-37 -47.5t-16 -52t-3.5 -62.5q0 -48 13.5 -65t47.5 -17q42 0 53 20.5
t11 76.5h264q0 -61 -28 -95t-101 -51.5t-205 -17.5q-177 0 -250 32t-73 121q0 67 45 111t137 76q10 3 13.5 7.5t-0.5 8t-15 2.5q-20 -2 -59 -2q-304 0 -449 82q-215 123 -215 477q0 362 209 484q141 82 434 82q311 0 451 -97q57 -40 95 -97t56 -126.5t24.5 -133t6.5 -142.5z
M569 920q-34 -71 -37 -291q0 -20 7.5 -25.5t31.5 -5.5h228q21 0 29 8t8 27q0 103 -12 179.5t-25 109.5q-25 57 -113 57q-48 0 -74.5 -14.5t-42.5 -44.5z" />
    <glyph glyph-name="Ecaron" unicode="&#x11a;" horiz-adv-x="1394" 
d="M1303 1321v-367h-285q0 79 -10.5 125t-40.5 71t-69.5 32.5t-111.5 7.5h-65q-23 0 -31 -6.5t-8 -28.5v-377q0 -23 7.5 -29t31.5 -6h70q81 0 107 25.5t26 114.5h221v-420h-221q0 95 -26 122t-107 27h-70q-23 0 -31 -6t-8 -28v-412q0 -23 7.5 -29t31.5 -6h72q60 0 97.5 3
t71 13t51 26.5t30.5 47.5t17.5 72t4.5 102h285v-395h-1330v119q104 0 136 26t32 113v803q0 89 -31.5 115t-136.5 26v119h1283zM1124 1628l-299 -227h-254l-295 225l101 162l272 -109q39 -16 56 -16.5t59 16.5l264 109z" />
    <glyph glyph-name="ecaron" unicode="&#x11b;" horiz-adv-x="1370" 
d="M1319 494h-750q-22 0 -29.5 -7.5t-7.5 -27.5q6 -258 43 -318q22 -32 50.5 -46.5t83.5 -14.5q62 0 93 21.5t44.5 81.5t13.5 182h457q0 -115 -28 -189t-99 -122.5t-186.5 -68.5t-296.5 -20q-304 0 -449 82q-215 123 -215 477q0 362 209 484q141 82 434 82q311 0 451 -97
q57 -40 95 -97t56 -126.5t24.5 -133t6.5 -142.5zM569 920q-34 -71 -37 -291q0 -20 7.5 -25.5t31.5 -5.5h228q21 0 29 8t8 27q0 103 -12 179.5t-25 109.5q-25 57 -113 57q-48 0 -74.5 -14.5t-42.5 -44.5zM1108 1382l-299 -227h-254l-295 225l100 162l273 -108
q39 -16 56 -16.5t59 16.5l264 108z" />
    <glyph glyph-name="Gcircumflex" unicode="&#x11c;" horiz-adv-x="1603" 
d="M1006 899q0 195 -38.5 262.5t-164.5 67.5q-70 0 -107 -19t-65 -59q-58 -83 -58 -489q0 -388 58 -494q40 -76 174 -76t177.5 58t43.5 233v43q0 44 -6.5 68t-31 40t-64.5 20.5t-113 4.5h-25v113h803v-113q-63 0 -85.5 -26t-22.5 -89v-49q0 -101 -27.5 -174.5t-79.5 -123
t-136.5 -78.5t-188.5 -41.5t-246 -12.5q-359 0 -510 98q-244 156 -244 599t244 595q156 99 510 99q161 0 277 -18.5t191.5 -53t119.5 -92t61.5 -127t17.5 -166.5h-464zM373 1542l299 227h254l295 -225l-101 -162l-272 109q-39 16 -56 16.5t-59 -16.5l-264 -109z" />
    <glyph glyph-name="gcircumflex" unicode="&#x11d;" horiz-adv-x="1372" 
d="M618 379q-156 0 -245 14q-48 8 -66 -4q-22 -14 -22 -41q0 -29 32.5 -37t149.5 -8h444q231 0 336 -70t105 -237q0 -83 -21 -141t-62.5 -97t-113.5 -61.5t-163 -31.5t-222 -9h-283q-194 0 -293.5 16t-135 49.5t-35.5 98.5q0 114 145 137q10 2 13 6.5t0 9.5t-11 9
q-115 61 -115 219q0 86 31.5 137t93.5 84q33 16 2 35q-66 43 -100.5 107.5t-34.5 170.5q0 223 166 295q135 60 405 60q347 0 449 -89q14 -14 25 -14q13 0 16 23q14 120 56.5 163.5t154.5 43.5v-291q-84 6 -116 -2t-32 -35q0 -11 10.5 -55.5t10.5 -98.5q0 -225 -166 -297
q-133 -59 -408 -59zM899 -70h-444q-108 0 -148.5 -16t-40.5 -59q0 -31 13.5 -46t66.5 -24.5t162 -9.5h264q138 0 205 9t85.5 25t18.5 50q0 23 -11.5 37t-53.5 24t-117 10zM618 999q-61 0 -81 -57q-23 -56 -23 -207q0 -153 23 -209q20 -57 81 -57q64 0 84 57q23 56 23 209
q0 151 -23 207q-20 57 -84 57zM197 1296l299 228h254l294 -226l-100 -161l-272 108q-39 16 -56 16.5t-59 -16.5l-264 -108z" />
    <glyph glyph-name="Gbreve" unicode="&#x11e;" horiz-adv-x="1603" 
d="M1006 899q0 195 -38.5 262.5t-164.5 67.5q-70 0 -107 -19t-65 -59q-58 -83 -58 -489q0 -388 58 -494q40 -76 174 -76t177.5 58t43.5 233v43q0 44 -6.5 68t-31 40t-64.5 20.5t-113 4.5h-25v113h803v-113q-63 0 -85.5 -26t-22.5 -89v-49q0 -101 -27.5 -174.5t-79.5 -123
t-136.5 -78.5t-188.5 -41.5t-246 -12.5q-359 0 -510 98q-244 156 -244 599t244 595q156 99 510 99q161 0 277 -18.5t191.5 -53t119.5 -92t61.5 -127t17.5 -166.5h-464zM524 1792q0 -54 22 -82t81 -40.5t176 -12.5q112 0 168 12.5t77 40.5t21 82h123q0 -77 -6.5 -131
t-23.5 -99.5t-45 -73.5t-73.5 -47.5t-106.5 -27.5t-146 -8q-81 0 -140 8t-103 27.5t-72 48t-45 73.5t-23.5 99.5t-6.5 130.5h123z" />
    <glyph glyph-name="gbreve" unicode="&#x11f;" horiz-adv-x="1372" 
d="M618 379q-156 0 -245 14q-48 8 -66 -4q-22 -14 -22 -41q0 -29 32.5 -37t149.5 -8h444q231 0 336 -70t105 -237q0 -83 -21 -141t-62.5 -97t-113.5 -61.5t-163 -31.5t-222 -9h-283q-194 0 -293.5 16t-135 49.5t-35.5 98.5q0 114 145 137q10 2 13 6.5t0 9.5t-11 9
q-115 61 -115 219q0 86 31.5 137t93.5 84q33 16 2 35q-66 43 -100.5 107.5t-34.5 170.5q0 223 166 295q135 60 405 60q347 0 449 -89q14 -14 25 -14q13 0 16 23q14 120 56.5 163.5t154.5 43.5v-291q-84 6 -116 -2t-32 -35q0 -11 10.5 -55.5t10.5 -98.5q0 -225 -166 -297
q-133 -59 -408 -59zM899 -70h-444q-108 0 -148.5 -16t-40.5 -59q0 -31 13.5 -46t66.5 -24.5t162 -9.5h264q138 0 205 9t85.5 25t18.5 50q0 23 -11.5 37t-53.5 24t-117 10zM618 999q-61 0 -81 -57q-23 -56 -23 -207q0 -153 23 -209q20 -57 81 -57q64 0 84 57q23 56 23 209
q0 151 -23 207q-20 57 -84 57zM348 1536q0 -54 22 -82t81 -40.5t176 -12.5q112 0 168 12.5t77 40.5t21 82h123q0 -77 -6.5 -131t-23.5 -99.5t-45.5 -73.5t-74 -47.5t-106.5 -27.5t-146 -8q-121 0 -195.5 18.5t-118.5 66t-59.5 117.5t-15.5 185h123z" />
    <glyph glyph-name="Gdotaccent" unicode="&#x120;" horiz-adv-x="1603" 
d="M1006 899q0 195 -38.5 262.5t-164.5 67.5q-70 0 -107 -19t-65 -59q-58 -83 -58 -489q0 -388 58 -494q40 -76 174 -76t177.5 58t43.5 233v43q0 44 -6.5 68t-31 40t-64.5 20.5t-113 4.5h-25v113h803v-113q-63 0 -85.5 -26t-22.5 -89v-49q0 -101 -27.5 -174.5t-79.5 -123
t-136.5 -78.5t-188.5 -41.5t-246 -12.5q-359 0 -510 98q-244 156 -244 599t244 595q156 99 510 99q161 0 277 -18.5t191.5 -53t119.5 -92t61.5 -127t17.5 -166.5h-464zM788 1724h17q199 0 199 -157q0 -158 -199 -158h-17q-198 0 -198 158q0 157 198 157z" />
    <glyph glyph-name="gdotaccent" unicode="&#x121;" horiz-adv-x="1372" 
d="M618 379q-156 0 -245 14q-48 8 -66 -4q-22 -14 -22 -41q0 -29 32.5 -37t149.5 -8h444q231 0 336 -70t105 -237q0 -83 -21 -141t-62.5 -97t-113.5 -61.5t-163 -31.5t-222 -9h-283q-194 0 -293.5 16t-135 49.5t-35.5 98.5q0 114 145 137q10 2 13 6.5t0 9.5t-11 9
q-115 61 -115 219q0 86 31.5 137t93.5 84q33 16 2 35q-66 43 -100.5 107.5t-34.5 170.5q0 223 166 295q135 60 405 60q347 0 449 -89q14 -14 25 -14q13 0 16 23q14 120 56.5 163.5t154.5 43.5v-291q-84 6 -116 -2t-32 -35q0 -11 10.5 -55.5t10.5 -98.5q0 -225 -166 -297
q-133 -59 -408 -59zM899 -70h-444q-108 0 -148.5 -16t-40.5 -59q0 -31 13.5 -46t66.5 -24.5t162 -9.5h264q138 0 205 9t85.5 25t18.5 50q0 23 -11.5 37t-53.5 24t-117 10zM618 999q-61 0 -81 -57q-23 -56 -23 -207q0 -153 23 -209q20 -57 81 -57q64 0 84 57q23 56 23 209
q0 151 -23 207q-20 57 -84 57zM612 1468h17q198 0 198 -157q0 -158 -198 -158h-17q-198 0 -198 158q0 157 198 157z" />
    <glyph glyph-name="uni0122" unicode="&#x122;" horiz-adv-x="1603" 
d="M1006 899q0 195 -38.5 262.5t-164.5 67.5q-70 0 -107 -19t-65 -59q-58 -83 -58 -489q0 -388 58 -494q40 -76 174 -76t177.5 58t43.5 233v43q0 44 -6.5 68t-31 40t-64.5 20.5t-113 4.5h-25v113h803v-113q-63 0 -85.5 -26t-22.5 -89v-49q0 -101 -27.5 -174.5t-79.5 -123
t-136.5 -78.5t-188.5 -41.5t-246 -12.5q-359 0 -510 98q-244 156 -244 599t244 595q156 99 510 99q161 0 277 -18.5t191.5 -53t119.5 -92t61.5 -127t17.5 -166.5h-464zM788 -82h9q83 0 117 -36.5t34 -127.5q0 -108 -57.5 -151t-220.5 -43v84q83 0 113 8t30 31q0 22 -49 14
q-58 -8 -91.5 17t-33.5 81q0 123 149 123z" />
    <glyph glyph-name="uni0123" unicode="&#x123;" horiz-adv-x="1372" 
d="M631 1153h-8q-83 0 -117.5 36.5t-34.5 127.5q0 108 58 151t221 43v-84q-84 0 -114 -7.5t-30 -30.5t49 -15q58 8 91.5 -17t33.5 -81q0 -123 -149 -123zM618 379q-156 0 -245 14q-48 8 -66 -4q-22 -14 -22 -41q0 -29 32.5 -37t149.5 -8h444q231 0 336 -70t105 -237
q0 -83 -21 -141t-62.5 -97t-113.5 -61.5t-163 -31.5t-222 -9h-283q-194 0 -293.5 16t-135 49.5t-35.5 98.5q0 114 145 137q10 2 13 6.5t0 9.5t-11 9q-115 61 -115 219q0 86 31.5 137t93.5 84q33 16 2 35q-66 43 -100.5 107.5t-34.5 170.5q0 223 166 295q135 60 405 60
q347 0 449 -89q14 -14 25 -14q13 0 16 23q14 120 56.5 163.5t154.5 43.5v-291q-84 6 -116 -2t-32 -35q0 -11 10.5 -55.5t10.5 -98.5q0 -225 -166 -297q-133 -59 -408 -59zM899 -70h-444q-108 0 -148.5 -16t-40.5 -59q0 -31 13.5 -46t66.5 -24.5t162 -9.5h264q138 0 205 9
t85.5 25t18.5 50q0 23 -11.5 37t-53.5 24t-117 10zM618 999q-61 0 -81 -57q-23 -56 -23 -207q0 -153 23 -209q20 -57 81 -57q64 0 84 57q23 56 23 209q0 151 -23 207q-20 57 -84 57z" />
    <glyph glyph-name="Hcircumflex" unicode="&#x124;" horiz-adv-x="1726" 
d="M20 0v119q104 0 136 26t32 113v803q0 89 -31.5 115t-136.5 26v119h809v-119q-95 0 -118 -25t-23 -118v-271q0 -28 11.5 -36.5t50.5 -8.5h225q39 0 50 8.5t11 36.5v271q0 93 -23 118t-118 25v119h811v-119q-105 0 -136.5 -26t-31.5 -115v-803q0 -87 32 -113t136 -26v-119
h-811v119q50 0 77 5t42 23t18.5 42.5t3.5 72.5v305q0 28 -11 36.5t-50 8.5h-225q-39 0 -50.5 -8.5t-11.5 -36.5v-305q0 -48 3.5 -72.5t18.5 -42.5t42 -23t77 -5v-119h-809zM440 1542l299 227h254l295 -225l-100 -162l-273 109q-39 16 -55.5 16.5t-58.5 -16.5l-264 -109z" />
    <glyph glyph-name="hcircumflex" unicode="&#x125;" horiz-adv-x="1531" 
d="M631 1321v-342q0 -35 24 -4q47 58 121.5 86.5t220.5 28.5q115 0 188.5 -19.5t115.5 -65t57.5 -110t15.5 -166.5v-471q0 -90 23.5 -114.5t109.5 -24.5v-119h-714v119q69 0 90.5 27.5t21.5 115.5v467q0 90 -24.5 123t-96.5 33q-87 0 -120 -37.5t-33 -124.5v-461
q0 -90 20 -116.5t92 -26.5v-119h-718v119q79 0 108 27t29 112v803q0 84 -32 112.5t-105 28.5v119h606zM-74 1511l299 228h254l295 -226l-100 -161l-273 108q-39 16 -55.5 16.5t-58.5 -16.5l-264 -108z" />
    <glyph glyph-name="Hbar" unicode="&#x126;" horiz-adv-x="1726" 
d="M1659 860h-53q-47 0 -57.5 -8.5t-10.5 -46.5v-547q0 -87 32 -113t136 -26v-119h-811v119q50 0 77 5t42 23t18.5 42.5t3.5 72.5v223q0 28 -11 36.5t-50 8.5h-225q-39 0 -50.5 -8.5t-11.5 -36.5v-223q0 -48 3.5 -72.5t18.5 -42.5t42 -23t77 -5v-119h-809v119q104 0 136 26
t32 113v547q0 38 -10 46.5t-57 8.5h-55v117h55q47 0 57 8.5t10 46.5v29q0 89 -31.5 115t-136.5 26v119h809v-119q-95 0 -118 -25t-23 -118v-27q0 -38 10.5 -46.5t57.5 -8.5h213q47 0 57 8.5t10 46.5v27q0 93 -23 118t-118 25v119h811v-119q-105 0 -136.5 -26t-31.5 -115v-29
q0 -38 10.5 -46.5t57.5 -8.5h53v-117zM975 662q39 0 50 8.5t11 36.5v98q0 38 -10 46.5t-57 8.5h-213q-47 0 -57.5 -8.5t-10.5 -46.5v-98q0 -28 11.5 -36.5t50.5 -8.5h225z" />
    <glyph glyph-name="hbar" unicode="&#x127;" horiz-adv-x="1519" 
d="M965 991h-267q-47 0 -57 -8.5t-10 -46.5v-125q0 -35 24 -4q47 58 121.5 86.5t220.5 28.5q115 0 188.5 -19.5t115.5 -65t57.5 -110t15.5 -166.5v-303q0 -90 23.5 -114.5t109.5 -24.5v-119h-714v119q69 0 90.5 27.5t21.5 115.5v299q0 90 -24.5 123t-96.5 33
q-87 0 -120 -37.5t-33 -124.5v-293q0 -90 20 -116.5t92 -26.5v-119h-718v119q79 0 108 27t29 112v678q0 38 -10.5 46.5t-57.5 8.5h-59v111h55q45 0 56.5 7t11.5 34v4q0 35 -37.5 53.5t-95.5 18.5v102h606v-164q0 -38 10 -46.5t57 -8.5h267v-111z" />
    <glyph glyph-name="Imacron" unicode="&#x12a;" horiz-adv-x="905" 
d="M20 0v119q111 0 145 26t34 113v803q0 89 -33 115t-146 26v119h865v-119q-113 0 -145.5 -26t-32.5 -115v-803q0 -87 33.5 -113t144.5 -26v-119h-865zM592 1425h-279q-108 0 -233 -8v213q125 -8 233 -8h279q108 0 233 8v-213q-125 8 -233 8z" />
    <glyph glyph-name="imacron" unicode="&#x12b;" horiz-adv-x="800" 
d="M784 119v-119h-764v119q86 0 117 27t31 112v530q0 87 -35 120t-123 36v119q160 -16 365 -16q164 0 262 16v-805q0 -86 30 -112.5t117 -26.5zM528 1180h-278q-93 0 -234 -9v213q125 -8 234 -8h278q109 0 234 8v-213q-141 9 -234 9z" />
    <glyph glyph-name="Iogonek" unicode="&#x12e;" horiz-adv-x="905" 
d="M20 0v119q111 0 145 26t34 113v803q0 89 -33 115t-146 26v119h865v-119q-113 0 -145.5 -26t-32.5 -115v-803q0 -87 33.5 -113t144.5 -26v-119h-180q-121 0 -195 -39q-81 -42 -103 -83.5t-22 -119.5q0 -48 13.5 -65t47.5 -17q42 0 53 20.5t11 76.5h264q0 -61 -28 -95
t-101 -51.5t-205 -17.5q-177 0 -250 32t-73 121q0 86 76 137t233 83q10 2 13.5 6.5t-0.5 8t-15 3.5h-404z" />
    <glyph glyph-name="iogonek" unicode="&#x12f;" horiz-adv-x="800" 
d="M784 119v-119h-133q-70 0 -112 -9t-82 -30q-81 -42 -103 -83.5t-22 -119.5q0 -48 13.5 -65t47.5 -17q42 0 53 20.5t11 76.5h264q0 -61 -28 -95t-101 -51.5t-205 -17.5q-177 0 -250.5 32t-73.5 121q0 86 76.5 137t233.5 83q10 2 13.5 6.5t-0.5 8t-15 3.5h-351v119
q86 0 117 27t31 112v530q0 87 -35 120t-123 36v119q160 -16 365 -16q164 0 262 16v-805q0 -86 30 -112.5t117 -26.5zM362 1434h66q109 0 168 -39t59 -131t-59 -131t-168 -39h-66q-109 0 -168 39t-59 131t59 131t168 39z" />
    <glyph glyph-name="Idotaccent" unicode="&#x130;" horiz-adv-x="905" 
d="M20 0v119q111 0 145 26t34 113v803q0 89 -33 115t-146 26v119h865v-119q-113 0 -145.5 -26t-32.5 -115v-803q0 -87 33.5 -113t144.5 -26v-119h-865zM444 1714h17q198 0 198 -158q0 -157 -198 -157h-17q-198 0 -198 157q0 158 198 158z" />
    <glyph glyph-name="dotlessi" unicode="&#x131;" horiz-adv-x="800" 
d="M784 119v-119h-764v119q86 0 117 27t31 112v530q0 87 -35 120t-123 36v119q160 -16 365 -16q164 0 262 16v-805q0 -86 30 -112.5t117 -26.5z" />
    <glyph glyph-name="Jcircumflex" unicode="&#x134;" horiz-adv-x="1349" 
d="M430 1321h901v-119q-105 0 -136.5 -26t-31.5 -115v-612q0 -138 -30.5 -228t-103.5 -148.5t-188 -83t-290 -24.5q-141 0 -235.5 15.5t-164 55t-101.5 108.5t-32 173v152h439v-137q0 -139 20.5 -189.5t81.5 -50.5q23 0 39 6t27 25t16.5 40t9 66.5t4 87.5t0.5 119v627
q0 49 -6.5 73.5t-32 41t-66.5 20.5t-120 4v119zM465 1542l299 227h254l295 -225l-101 -162l-272 109q-39 16 -56 16.5t-59 -16.5l-264 -109z" />
    <glyph glyph-name="jcircumflex" unicode="&#x135;" horiz-adv-x="724" 
d="M-47 1296l299 228h254l295 -226l-101 -161l-272 108q-39 16 -56 16.5t-59 -16.5l-264 -108zM-4 1063q160 -16 364 -16q165 0 263 16v-1071q0 -123 -50 -197.5t-168.5 -112.5t-320.5 -38q-182 0 -282 28t-141.5 88t-41.5 168h426q0 -111 9 -141.5t42 -30.5q34 0 46 28.5
t12 125.5v878q0 87 -35 120t-123 36v119z" />
    <glyph glyph-name="uni0136" unicode="&#x136;" horiz-adv-x="1718" 
d="M682 1059v-316q0 -16 9.5 -20.5t21.5 6.5l301 277q79 71 103 100t24 51q0 15 -7.5 23t-31 13.5t-61.5 7t-105 1.5v119h659v-119q-75 0 -125.5 -18.5t-126.5 -85.5l-190 -170q-25 -25 -8 -56l385 -641q43 -69 76.5 -90.5t89.5 -21.5v-119h-819v119q60 0 83 9t23 36
q0 32 -35 96l-162 309q-18 34 -43 9l-36 -33q-25 -22 -25 -58v-225q0 -48 3.5 -72.5t18.5 -42.5t42 -23t77 -5v-119h-803v119q104 0 136 26t32 113v803q0 89 -31.5 115t-136.5 26v119h803v-119q-95 0 -118 -25t-23 -118zM862 -82h8q83 0 117.5 -36.5t34.5 -127.5
q0 -108 -58 -151t-221 -43v84q83 0 113.5 8t30.5 31q0 22 -49 14q-58 -8 -91.5 17t-33.5 81q0 123 149 123z" />
    <glyph glyph-name="uni0137" unicode="&#x137;" horiz-adv-x="1552" 
d="M25 119q86 0 116.5 27t30.5 112v803q0 84 -32 112.5t-105 28.5v119h596v-694q0 -15 8.5 -20t22.5 5l217 158q58 41 78 65t20 48q0 32 -37 42.5t-129 10.5v119h633v-119q-68 0 -110.5 -17.5t-139.5 -87.5l-107 -75q-27 -21 -8 -56l281 -473q41 -69 79.5 -88.5t100.5 -19.5
v-119h-764v119q66 0 78.5 26.5t-23.5 102.5l-112 233q-14 28 -43 6l-21 -14q-24 -17 -24 -57v-154q0 -89 17 -116t77 -27v-119h-700v119zM774 -82h8q83 0 117.5 -36.5t34.5 -127.5q0 -108 -58 -151t-221 -43v84q83 0 113.5 8t30.5 31q0 22 -49 14q-58 -8 -91.5 17t-33.5 81
q0 123 149 123z" />
    <glyph glyph-name="Lacute" unicode="&#x139;" horiz-adv-x="1361" 
d="M20 0v119q104 0 136 26t32 113v803q0 89 -31.5 115t-136.5 26v119h895v-119q-77 0 -116.5 -4t-64.5 -20.5t-31.5 -42t-6.5 -74.5v-891q0 -23 7.5 -29t31.5 -6h25q63 0 99.5 3t71.5 15t51.5 32t30 59.5t17.5 91.5t4 133h297v-469h-1311zM281 1386l-62 166l553 287
l121 -319z" />
    <glyph glyph-name="lacute" unicode="&#x13a;" horiz-adv-x="804" 
d="M788 119v-119h-763v119q86 0 116.5 27t30.5 112v803q0 84 -32 112.5t-105 28.5v119h606v-1063q0 -86 30 -112.5t117 -26.5zM188 1370l-61 166l553 287l121 -320z" />
    <glyph glyph-name="uni013B" unicode="&#x13b;" horiz-adv-x="1361" 
d="M20 0v119q104 0 136 26t32 113v803q0 89 -31.5 115t-136.5 26v119h895v-119q-77 0 -116.5 -4t-64.5 -20.5t-31.5 -42t-6.5 -74.5v-891q0 -23 7.5 -29t31.5 -6h25q63 0 99.5 3t71.5 15t51.5 32t30 59.5t17.5 91.5t4 133h297v-469h-1311zM729 -82h8q83 0 117.5 -36.5
t34.5 -127.5q0 -108 -58 -151t-221 -43v84q83 0 113.5 8t30.5 31q0 22 -49 14q-58 -8 -91.5 17t-33.5 81q0 123 149 123z" />
    <glyph glyph-name="uni013C" unicode="&#x13c;" horiz-adv-x="804" 
d="M788 119v-119h-763v119q86 0 116.5 27t30.5 112v803q0 84 -32 112.5t-105 28.5v119h606v-1063q0 -86 30 -112.5t117 -26.5zM401 -82h9q83 0 117 -36.5t34 -127.5q0 -108 -57.5 -151t-220.5 -43v84q83 0 113 8t30 31q0 22 -49 14q-58 -8 -91.5 17t-33.5 81q0 123 149 123z
" />
    <glyph glyph-name="Lcaron" unicode="&#x13d;" horiz-adv-x="1361" 
d="M20 0v119q104 0 136 26t32 113v803q0 89 -31.5 115t-136.5 26v119h895v-119q-77 0 -116.5 -4t-64.5 -20.5t-31.5 -42t-6.5 -74.5v-891q0 -23 7.5 -29t31.5 -6h25q63 0 99.5 3t71.5 15t51.5 32t30 59.5t17.5 91.5t4 133h297v-469h-1311zM1130 1346h9q83 0 117 -36.5
t34 -127.5q0 -73 -23 -113.5t-83.5 -61t-171.5 -20.5v84q83 0 113 8t30 31q0 22 -49 14q-58 -8 -91.5 17.5t-33.5 81.5q0 123 149 123z" />
    <glyph glyph-name="lcaron" unicode="&#x13e;" horiz-adv-x="804" 
d="M788 119v-119h-763v119q86 0 116.5 27t30.5 112v803q0 84 -32 112.5t-105 28.5v119h606v-1063q0 -86 30 -112.5t117 -26.5zM821 1434h8q83 0 117.5 -36.5t34.5 -127.5q0 -108 -58 -151.5t-221 -43.5v84q83 0 113.5 8t30.5 31q0 22 -49 14q-58 -8 -91.5 17.5t-33.5 81.5
q0 123 149 123z" />
    <glyph glyph-name="Lslash" unicode="&#x141;" horiz-adv-x="1361" 
d="M20 0v119q104 0 136 26t32 113v131q0 48 -47 27l-57 -29l-49 98l110 54q28 13 35.5 27t7.5 42v453q0 89 -31.5 115t-136.5 26v119h895v-119q-77 0 -116.5 -4t-64.5 -20.5t-31.5 -42t-6.5 -74.5v-236q0 -24 10.5 -30.5t36.5 4.5l154 75l49 -98l-207 -102
q-28 -13 -35.5 -27t-7.5 -43v-434q0 -23 7.5 -29t31.5 -6h25q63 0 99.5 3t71.5 15t51.5 32t30 59.5t17.5 91.5t4 133h297v-469h-1311z" />
    <glyph glyph-name="lslash" unicode="&#x142;" horiz-adv-x="837" 
d="M868 838l-168 -82q-28 -13 -35.5 -27t-7.5 -43v-428q0 -86 30.5 -112.5t117.5 -26.5v-119h-764v119q86 0 116.5 27t30.5 112v229q0 48 -47 27l-92 -45l-49 98l145 72q28 13 35.5 27t7.5 43v352q0 84 -32 112.5t-105 28.5v119h606v-416q0 -48 48 -26l114 57z" />
    <glyph glyph-name="Nacute" unicode="&#x143;" horiz-adv-x="1656" 
d="M20 1321h674q57 0 85.5 -15.5t49.5 -60.5l457 -975q8 -17 19.5 -17t11.5 19v750q0 44 -2.5 71.5t-13 49t-23.5 32t-41.5 17.5t-59.5 8.5t-85 1.5v119h550v-119q-57 0 -86.5 -5.5t-49.5 -26t-25.5 -53.5t-5.5 -95v-1022h-488q-57 0 -84.5 15t-50.5 61l-475 1022
q-7 17 -19 17t-12 -19v-797q0 -44 2.5 -71.5t13 -49t23.5 -32t41.5 -17.5t59.5 -8.5t85 -1.5v-119h-551v119q75 0 108 12.5t46.5 49t13.5 118.5v762q0 89 -31.5 115t-136.5 26v119zM657 1386l-61 166l553 287l121 -319z" />
    <glyph glyph-name="nacute" unicode="&#x144;" horiz-adv-x="1531" 
d="M31 0v119q79 0 108 27t29 112v537q0 85 -34 113t-114 28v119h590v-111q0 -17 9 -17.5t18 13.5q25 38 49.5 62t65 46t102 32t147.5 10q114 0 186 -19.5t114 -65t57.5 -110t15.5 -166.5v-471q0 -90 23.5 -114.5t109.5 -24.5v-119h-714v119q69 0 90.5 27.5t21.5 115.5v467
q0 90 -24 123t-95 33q-84 0 -116.5 -37.5t-32.5 -124.5v-461q0 -89 20.5 -116t92.5 -27v-119h-719zM573 1141l-61 166l553 286l121 -319z" />
    <glyph glyph-name="uni0145" unicode="&#x145;" horiz-adv-x="1656" 
d="M20 1321h674q57 0 85.5 -15.5t49.5 -60.5l457 -975q8 -17 19.5 -17t11.5 19v750q0 44 -2.5 71.5t-13 49t-23.5 32t-41.5 17.5t-59.5 8.5t-85 1.5v119h550v-119q-57 0 -86.5 -5.5t-49.5 -26t-25.5 -53.5t-5.5 -95v-1022h-488q-57 0 -84.5 15t-50.5 61l-475 1022
q-7 17 -19 17t-12 -19v-797q0 -44 2.5 -71.5t13 -49t23.5 -32t41.5 -17.5t59.5 -8.5t85 -1.5v-119h-551v119q75 0 108 12.5t46.5 49t13.5 118.5v762q0 89 -31.5 115t-136.5 26v119zM831 -82h9q83 0 117 -36.5t34 -127.5q0 -108 -57.5 -151t-220.5 -43v84q83 0 113 8t30 31
q0 22 -49 14q-58 -8 -91.5 17t-33.5 81q0 123 149 123z" />
    <glyph glyph-name="uni0146" unicode="&#x146;" horiz-adv-x="1531" 
d="M31 0v119q79 0 108 27t29 112v537q0 85 -34 113t-114 28v119h590v-111q0 -17 9 -17.5t18 13.5q25 38 49.5 62t65 46t102 32t147.5 10q114 0 186 -19.5t114 -65t57.5 -110t15.5 -166.5v-471q0 -90 23.5 -114.5t109.5 -24.5v-119h-714v119q69 0 90.5 27.5t21.5 115.5v467
q0 90 -24 123t-95 33q-84 0 -116.5 -37.5t-32.5 -124.5v-461q0 -89 20.5 -116t92.5 -27v-119h-719zM764 -82h8q83 0 117.5 -36.5t34.5 -127.5q0 -108 -58 -151t-221 -43v84q83 0 113 8t30 31q0 22 -49 14q-58 -8 -91.5 17t-33.5 81q0 65 41 94t109 29z" />
    <glyph glyph-name="Ncaron" unicode="&#x147;" horiz-adv-x="1656" 
d="M20 1321h674q57 0 85.5 -15.5t49.5 -60.5l457 -975q8 -17 19.5 -17t11.5 19v750q0 44 -2.5 71.5t-13 49t-23.5 32t-41.5 17.5t-59.5 8.5t-85 1.5v119h550v-119q-57 0 -86.5 -5.5t-49.5 -26t-25.5 -53.5t-5.5 -95v-1022h-488q-57 0 -84.5 15t-50.5 61l-475 1022
q-7 17 -19 17t-12 -19v-797q0 -44 2.5 -71.5t13 -49t23.5 -32t41.5 -17.5t59.5 -8.5t85 -1.5v-119h-551v119q75 0 108 12.5t46.5 49t13.5 118.5v762q0 89 -31.5 115t-136.5 26v119zM1255 1628l-299 -227h-254l-294 225l100 162l272 -109q39 -16 56 -16.5t59 16.5l264 109z
" />
    <glyph glyph-name="ncaron" unicode="&#x148;" horiz-adv-x="1531" 
d="M31 0v119q79 0 108 27t29 112v537q0 85 -34 113t-114 28v119h590v-111q0 -17 9 -17.5t18 13.5q25 38 49.5 62t65 46t102 32t147.5 10q114 0 186 -19.5t114 -65t57.5 -110t15.5 -166.5v-471q0 -90 23.5 -114.5t109.5 -24.5v-119h-714v119q69 0 90.5 27.5t21.5 115.5v467
q0 90 -24 123t-95 33q-84 0 -116.5 -37.5t-32.5 -124.5v-461q0 -89 20.5 -116t92.5 -27v-119h-719zM1176 1382l-299 -227h-254l-295 225l100 162l272 -108q39 -16 56 -16.5t59 16.5l264 108z" />
    <glyph glyph-name="Omacron" unicode="&#x14c;" horiz-adv-x="1613" 
d="M807 1356q356 0 512 -99q246 -155 246 -595q0 -444 -246 -599q-159 -98 -512 -98q-358 0 -512 98q-246 153 -246 599q0 442 246 595q156 99 512 99zM807 1229q-72 0 -109.5 -18.5t-64.5 -57.5q-60 -91 -60 -491q0 -403 60 -494q27 -39 64.5 -57.5t109.5 -18.5t109.5 18.5
t64.5 57.5q59 89 59 494q0 402 -59 491q-27 39 -64.5 57.5t-109.5 18.5zM946 1425h-278q-109 0 -234 -8v213q125 -8 234 -8h278q109 0 234 8v-213q-125 8 -234 8z" />
    <glyph glyph-name="omacron" unicode="&#x14d;" 
d="M698 1090q306 0 445 -82q211 -121 211 -482q0 -358 -211 -479q-139 -82 -445 -82q-305 0 -444 82q-211 121 -211 479q0 361 211 482q139 82 444 82zM698 973q-50 0 -75.5 -14.5t-44.5 -45.5q-41 -71 -41 -387q0 -314 41 -385q19 -31 44.5 -45t75.5 -14q51 0 76.5 14
t44.5 45q41 71 41 385q0 316 -41 387q-19 31 -45 45.5t-76 14.5zM838 1180h-279q-92 0 -233 -9v213q125 -8 233 -8h279q108 0 233 8v-213q-141 9 -233 9z" />
    <glyph glyph-name="Ohungarumlaut" unicode="&#x150;" horiz-adv-x="1613" 
d="M807 1356q356 0 512 -99q246 -155 246 -595q0 -444 -246 -599q-159 -98 -512 -98q-358 0 -512 98q-246 153 -246 599q0 442 246 595q156 99 512 99zM807 1229q-72 0 -109.5 -18.5t-64.5 -57.5q-60 -91 -60 -491q0 -403 60 -494q27 -39 64.5 -57.5t109.5 -18.5t109.5 18.5
t64.5 57.5q59 89 59 494q0 402 -59 491q-27 39 -64.5 57.5t-109.5 18.5zM565 1382l-123 136l295 366l207 -203zM1016 1382l-123 136l295 366l207 -203z" />
    <glyph glyph-name="ohungarumlaut" unicode="&#x151;" 
d="M698 1090q306 0 445 -82q211 -121 211 -482q0 -358 -211 -479q-139 -82 -445 -82q-305 0 -444 82q-211 121 -211 479q0 361 211 482q139 82 444 82zM698 973q-50 0 -75.5 -14.5t-44.5 -45.5q-41 -71 -41 -387q0 -314 41 -385q19 -31 44.5 -45t75.5 -14q51 0 76.5 14
t44.5 45q41 71 41 385q0 316 -41 387q-19 31 -45 45.5t-76 14.5zM453 1116l-123 135l295 367l206 -203zM903 1116l-123 135l295 367l207 -203z" />
    <glyph glyph-name="OE" unicode="&#x152;" horiz-adv-x="2217" 
d="M809 1356q199 0 324 -35h993v-367h-285q0 79 -10.5 125t-40 71t-69 32.5t-111.5 7.5h-66q-23 0 -31 -6.5t-8 -28.5v-377q0 -23 7.5 -29t31.5 -6h70q81 0 107 25.5t26 114.5h221v-420h-221q0 95 -26 122t-107 27h-70q-23 0 -31 -6t-8 -28v-412q0 -23 7.5 -29t31.5 -6h72
q60 0 97.5 3t71 13t51 26.5t30.5 47.5t17.5 72t4.5 102h285v-395h-1045q-125 -35 -321 -35q-343 0 -510 101q-248 152 -248 596q0 440 248 593q167 101 512 101zM844 92q74 0 121 8q28 4 37.5 16t9.5 38v1011q0 27 -7.5 37.5t-35.5 16.5q-49 10 -133 10q-83 0 -125 -18.5
t-74 -59.5q-64 -87 -64 -489q0 -405 64 -492q32 -43 73.5 -60.5t133.5 -17.5z" />
    <glyph glyph-name="oe" unicode="&#x153;" horiz-adv-x="2177" 
d="M2126 494h-750q-22 0 -29.5 -7.5t-7.5 -27.5q6 -258 43 -318q22 -32 50.5 -46.5t83.5 -14.5q47 0 74 10t45.5 42t25 86t6.5 147h457q0 -118 -28 -192t-100 -122t-186.5 -67t-296.5 -19q-157 0 -242 21.5t-151 68.5q-20 16 -39 0q-61 -45 -146.5 -67.5t-236.5 -22.5
q-305 0 -444 82q-211 121 -211 479q0 361 211 482q142 82 446 82q144 0 230.5 -21.5t150.5 -69.5q17 -14 37 0q68 48 143 69.5t228 21.5q312 0 455 -97q57 -40 95 -97t56 -126.5t24.5 -133t6.5 -142.5zM698 973q-50 0 -75.5 -14.5t-44.5 -45.5q-41 -71 -41 -387
q0 -314 41 -385q19 -31 44.5 -45t75.5 -14q51 0 76.5 14t44.5 45q41 71 41 385q0 316 -41 387q-19 31 -45 45.5t-76 14.5zM1376 920q-34 -71 -37 -291q0 -20 7.5 -25.5t31.5 -5.5h228q21 0 28.5 8t7.5 27q0 103 -12 180t-24 109q-25 57 -113 57q-48 0 -74.5 -14.5
t-42.5 -44.5z" />
    <glyph glyph-name="Racute" unicode="&#x154;" horiz-adv-x="1644" 
d="M1616 125v-117q-105 -43 -252 -43q-203 0 -289 72t-108 262l-11 90q-13 124 -49.5 160.5t-142.5 36.5h-43q-23 0 -31 -6.5t-8 -28.5v-293q0 -61 14.5 -89t53.5 -39t124 -11v-119h-854v119q104 0 136 26t32 113v803q0 89 -31.5 115t-136.5 26v119h764q131 0 232.5 -8
t174.5 -22t124.5 -38.5t83 -52t49 -67.5t23.5 -80t6 -95q0 -126 -54 -198.5t-196 -95.5q-14 -2 -19 -9t1 -14t20 -10q67 -16 111.5 -35.5t82 -53t58 -85t26.5 -125.5l11 -127q5 -48 23.5 -64t74.5 -16zM682 1153v-403q0 -23 7.5 -29t31.5 -6h57q64 0 101 11.5t57.5 43.5
t26.5 75t6 120q0 70 -7 109t-29.5 67t-62 37.5t-106.5 9.5h-43q-23 0 -31 -6.5t-8 -28.5zM647 1386l-61 166l553 287l121 -319z" />
    <glyph glyph-name="racute" unicode="&#x155;" horiz-adv-x="1271" 
d="M1241 688h-436v86q0 62 -14 83.5t-50 21.5q-104 0 -104 -185v-432q0 -41 6 -65.5t17.5 -41t40.5 -24t63 -10t96 -2.5v-119h-829v119q79 0 108 27t29 112v537q0 85 -34 113t-114 28v119h586v-121q0 -11 4.5 -15.5t11 -1.5t11.5 13q22 40 43.5 65.5t56 49t84.5 34.5t119 11
q172 0 238.5 -62t66.5 -233v-107zM508 1141l-62 166l553 286l121 -319z" />
    <glyph glyph-name="uni0156" unicode="&#x156;" horiz-adv-x="1644" 
d="M1616 125v-117q-105 -43 -252 -43q-203 0 -289 72t-108 262l-11 90q-13 124 -49.5 160.5t-142.5 36.5h-43q-23 0 -31 -6.5t-8 -28.5v-293q0 -61 14.5 -89t53.5 -39t124 -11v-119h-854v119q104 0 136 26t32 113v803q0 89 -31.5 115t-136.5 26v119h764q131 0 232.5 -8
t174.5 -22t124.5 -38.5t83 -52t49 -67.5t23.5 -80t6 -95q0 -126 -54 -198.5t-196 -95.5q-14 -2 -19 -9t1 -14t20 -10q67 -16 111.5 -35.5t82 -53t58 -85t26.5 -125.5l11 -127q5 -48 23.5 -64t74.5 -16zM682 1153v-403q0 -23 7.5 -29t31.5 -6h57q64 0 101 11.5t57.5 43.5
t26.5 75t6 120q0 70 -7 109t-29.5 67t-62 37.5t-106.5 9.5h-43q-23 0 -31 -6.5t-8 -28.5zM868 -82h9q83 0 117 -36.5t34 -127.5q0 -108 -57.5 -151t-220.5 -43v84q83 0 113 8t30 31q0 22 -49 14q-58 -8 -91.5 17t-33.5 81q0 123 149 123z" />
    <glyph glyph-name="uni0157" unicode="&#x157;" horiz-adv-x="1271" 
d="M1241 688h-436v86q0 62 -14 83.5t-50 21.5q-104 0 -104 -185v-432q0 -41 6 -65.5t17.5 -41t40.5 -24t63 -10t96 -2.5v-119h-829v119q79 0 108 27t29 112v537q0 85 -34 113t-114 28v119h586v-121q0 -11 4.5 -15.5t11 -1.5t11.5 13q22 40 43.5 65.5t56 49t84.5 34.5t119 11
q172 0 238.5 -62t66.5 -233v-107zM395 -82h8q83 0 117.5 -36.5t34.5 -127.5q0 -108 -58 -151t-221 -43v84q83 0 113.5 8t30.5 31q0 22 -49 14q-58 -8 -91.5 17t-33.5 81q0 123 149 123z" />
    <glyph glyph-name="Rcaron" unicode="&#x158;" horiz-adv-x="1644" 
d="M1616 125v-117q-105 -43 -252 -43q-203 0 -289 72t-108 262l-11 90q-13 124 -49.5 160.5t-142.5 36.5h-43q-23 0 -31 -6.5t-8 -28.5v-293q0 -61 14.5 -89t53.5 -39t124 -11v-119h-854v119q104 0 136 26t32 113v803q0 89 -31.5 115t-136.5 26v119h764q131 0 232.5 -8
t174.5 -22t124.5 -38.5t83 -52t49 -67.5t23.5 -80t6 -95q0 -126 -54 -198.5t-196 -95.5q-14 -2 -19 -9t1 -14t20 -10q67 -16 111.5 -35.5t82 -53t58 -85t26.5 -125.5l11 -127q5 -48 23.5 -64t74.5 -16zM682 1153v-403q0 -23 7.5 -29t31.5 -6h57q64 0 101 11.5t57.5 43.5
t26.5 75t6 120q0 70 -7 109t-29.5 67t-62 37.5t-106.5 9.5h-43q-23 0 -31 -6.5t-8 -28.5zM1239 1628l-299 -227h-254l-295 225l101 162l272 -109q39 -16 56 -16.5t59 16.5l264 109z" />
    <glyph glyph-name="rcaron" unicode="&#x159;" horiz-adv-x="1271" 
d="M1241 688h-436v86q0 62 -14 83.5t-50 21.5q-104 0 -104 -185v-432q0 -41 6 -65.5t17.5 -41t40.5 -24t63 -10t96 -2.5v-119h-829v119q79 0 108 27t29 112v537q0 85 -34 113t-114 28v119h586v-121q0 -11 4.5 -15.5t11 -1.5t11.5 13q22 40 43.5 65.5t56 49t84.5 34.5t119 11
q172 0 238.5 -62t66.5 -233v-107zM1108 1382l-299 -227h-254l-295 225l100 162l273 -108q39 -16 56 -16.5t59 16.5l264 108z" />
    <glyph glyph-name="Sacute" unicode="&#x15a;" horiz-adv-x="1441" 
d="M1352 1008h-445q0 132 -42.5 179.5t-151.5 47.5q-104 0 -146.5 -42.5t-42.5 -123.5q0 -50 9.5 -81t35 -49.5t56.5 -27.5t86 -16l200 -29q84 -12 141.5 -24t117 -33t97 -50.5t68 -72.5t44.5 -104t14 -140q0 -143 -40.5 -236.5t-129 -146.5t-208 -73.5t-298.5 -20.5
q-195 0 -324 21t-208.5 69t-112.5 120.5t-33 182.5h457q0 -88 11 -141t40 -82.5t68 -39t106 -9.5q119 0 167 41t48 131q0 100 -41.5 141.5t-171.5 61.5l-193 28q-126 19 -205 43.5t-139 70t-86 116t-26 176.5q0 133 38 222t121 142t199 75t285 22q184 0 309 -22t196 -68
t100.5 -108t29.5 -150zM545 1397l-62 166l553 286l121 -319z" />
    <glyph glyph-name="sacute" unicode="&#x15b;" horiz-adv-x="1296" 
d="M1206 809h-409q0 95 -34.5 133.5t-115.5 38.5q-88 0 -120.5 -29t-32.5 -90q0 -68 33.5 -96t134.5 -37l165 -16q88 -9 148.5 -21.5t116 -38t87.5 -63.5t51 -97t19 -139q0 -93 -24.5 -160t-71 -111.5t-123 -70.5t-170 -36.5t-223.5 -10.5q-229 0 -357 31.5t-181.5 98
t-53.5 184.5h428q0 -67 10 -108t34.5 -62t55 -28t82.5 -7q104 0 139 26.5t35 98.5q0 78 -35.5 111t-150.5 44l-162 17q-108 11 -180 32.5t-124 61.5t-75.5 102t-23.5 152q0 107 35 179t109.5 114.5t178 60t254.5 17.5q136 0 234 -12.5t159 -34.5t96.5 -58.5t48.5 -77.5
t13 -98zM471 1141l-61 166l553 286l120 -319z" />
    <glyph glyph-name="Scircumflex" unicode="&#x15c;" horiz-adv-x="1441" 
d="M1352 1008h-445q0 132 -42.5 179.5t-151.5 47.5q-104 0 -146.5 -42.5t-42.5 -123.5q0 -50 9.5 -81t35 -49.5t56.5 -27.5t86 -16l200 -29q84 -12 141.5 -24t117 -33t97 -50.5t68 -72.5t44.5 -104t14 -140q0 -143 -40.5 -236.5t-129 -146.5t-208 -73.5t-298.5 -20.5
q-195 0 -324 21t-208.5 69t-112.5 120.5t-33 182.5h457q0 -88 11 -141t40 -82.5t68 -39t106 -9.5q119 0 167 41t48 131q0 100 -41.5 141.5t-171.5 61.5l-193 28q-126 19 -205 43.5t-139 70t-86 116t-26 176.5q0 133 38 222t121 142t199 75t285 22q184 0 309 -22t196 -68
t100.5 -108t29.5 -150zM291 1542l299 227h254l295 -225l-101 -162l-272 109q-39 16 -56 16.5t-59 -16.5l-264 -109z" />
    <glyph glyph-name="scircumflex" unicode="&#x15d;" horiz-adv-x="1296" 
d="M1206 809h-409q0 95 -34.5 133.5t-115.5 38.5q-88 0 -120.5 -29t-32.5 -90q0 -68 33.5 -96t134.5 -37l165 -16q88 -9 148.5 -21.5t116 -38t87.5 -63.5t51 -97t19 -139q0 -93 -24.5 -160t-71 -111.5t-123 -70.5t-170 -36.5t-223.5 -10.5q-229 0 -357 31.5t-181.5 98
t-53.5 184.5h428q0 -67 10 -108t34.5 -62t55 -28t82.5 -7q104 0 139 26.5t35 98.5q0 78 -35.5 111t-150.5 44l-162 17q-108 11 -180 32.5t-124 61.5t-75.5 102t-23.5 152q0 107 35 179t109.5 114.5t178 60t254.5 17.5q136 0 234 -12.5t159 -34.5t96.5 -58.5t48.5 -77.5
t13 -98zM227 1296l299 228h254l295 -226l-100 -161l-273 108q-39 16 -55.5 16.5t-58.5 -16.5l-264 -108z" />
    <glyph glyph-name="uni015E" unicode="&#x15e;" horiz-adv-x="1441" 
d="M717 1356q184 0 309 -22t196 -68t100.5 -108t29.5 -150h-445q0 132 -42.5 179.5t-151.5 47.5q-104 0 -146.5 -42.5t-42.5 -123.5q0 -50 9.5 -81t35 -49.5t56.5 -27.5t86 -16l200 -29q84 -12 141.5 -24t117 -33t97 -50.5t68 -72.5t44.5 -104t14 -140q0 -132 -35.5 -222.5
t-111 -144.5t-179.5 -78.5t-256 -29.5q-31 -1 -38 -7.5t-7 -29.5v-8q147 0 216 -35.5t69 -119.5q0 -91 -77.5 -124.5t-264.5 -33.5q-175 0 -243.5 32t-68.5 119h265q0 -51 10 -67.5t49 -16.5q32 0 46.5 16.5t14.5 61.5q0 41 -16 60.5t-61 19.5h-39v96q0 23 -7 29.5t-38 7.5
q-221 7 -347.5 49t-180.5 123.5t-54 218.5h457q0 -88 11 -141t40 -82.5t68 -39t106 -9.5q119 0 167 41t48 131q0 100 -41.5 141.5t-171.5 61.5l-193 28q-126 19 -205 43.5t-139 70t-86 116t-26 176.5q0 133 38 222t121 142t199 75t285 22z" />
    <glyph glyph-name="uni015F" unicode="&#x15f;" horiz-adv-x="1296" 
d="M655 1090q136 0 234 -12.5t159 -34.5t96.5 -58.5t48.5 -77.5t13 -98h-409q0 95 -34.5 133.5t-115.5 38.5q-88 0 -120.5 -29t-32.5 -90q0 -68 33.5 -96t134.5 -37l165 -16q88 -9 148.5 -21.5t116 -38t87.5 -63.5t51 -97t19 -139q0 -207 -121 -292.5t-389 -94.5
q-31 -1 -38 -7.5t-7 -29.5v-8q147 0 216 -35.5t69 -119.5q0 -91 -77.5 -124.5t-264.5 -33.5q-175 0 -243 32t-68 119h264q0 -51 10 -67.5t49 -16.5q33 0 47.5 16.5t14.5 61.5q0 41 -16.5 60.5t-61.5 19.5h-39v96q0 23 -7 29.5t-38 7.5q-193 5 -302.5 38.5t-155.5 98.5
t-46 175h428q0 -67 10 -108t34.5 -62t55 -28t82.5 -7q104 0 139 26.5t35 98.5q0 78 -35.5 111t-150.5 44l-162 17q-108 11 -180 32.5t-124 61.5t-75.5 102t-23.5 152q0 107 35 179t109.5 114.5t178 60t254.5 17.5z" />
    <glyph glyph-name="Scaron" unicode="&#x160;" horiz-adv-x="1441" 
d="M1352 1008h-445q0 132 -42.5 179.5t-151.5 47.5q-104 0 -146.5 -42.5t-42.5 -123.5q0 -50 9.5 -81t35 -49.5t56.5 -27.5t86 -16l200 -29q84 -12 141.5 -24t117 -33t97 -50.5t68 -72.5t44.5 -104t14 -140q0 -143 -40.5 -236.5t-129 -146.5t-208 -73.5t-298.5 -20.5
q-195 0 -324 21t-208.5 69t-112.5 120.5t-33 182.5h457q0 -88 11 -141t40 -82.5t68 -39t106 -9.5q119 0 167 41t48 131q0 100 -41.5 141.5t-171.5 61.5l-193 28q-126 19 -205 43.5t-139 70t-86 116t-26 176.5q0 133 38 222t121 142t199 75t285 22q184 0 309 -22t196 -68
t100.5 -108t29.5 -150zM1139 1638l-299 -227h-254l-295 225l100 162l273 -108q39 -16 55.5 -16.5t58.5 16.5l264 108z" />
    <glyph glyph-name="scaron" unicode="&#x161;" horiz-adv-x="1296" 
d="M1206 809h-409q0 95 -34.5 133.5t-115.5 38.5q-88 0 -120.5 -29t-32.5 -90q0 -68 33.5 -96t134.5 -37l165 -16q88 -9 148.5 -21.5t116 -38t87.5 -63.5t51 -97t19 -139q0 -93 -24.5 -160t-71 -111.5t-123 -70.5t-170 -36.5t-223.5 -10.5q-229 0 -357 31.5t-181.5 98
t-53.5 184.5h428q0 -67 10 -108t34.5 -62t55 -28t82.5 -7q104 0 139 26.5t35 98.5q0 78 -35.5 111t-150.5 44l-162 17q-108 11 -180 32.5t-124 61.5t-75.5 102t-23.5 152q0 107 35 179t109.5 114.5t178 60t254.5 17.5q136 0 234 -12.5t159 -34.5t96.5 -58.5t48.5 -77.5
t13 -98zM1073 1382l-299 -227h-254l-295 225l101 162l272 -108q39 -16 56 -16.5t59 16.5l264 108z" />
    <glyph glyph-name="Tcommaaccent" unicode="&#x162;" horiz-adv-x="1597" 
d="M743 -166v111q0 38 -10 46.5t-57 8.5h-348v119q76 0 116 4.5t64.5 21.5t30.5 41.5t6 71.5v891q0 24 -8 30.5t-31 6.5h-8q-59 0 -91 -9t-54 -40.5t-29 -86t-7 -151.5h-282v422h1528v-422h-283q0 98 -6.5 152.5t-29 86t-54 40t-90.5 8.5h-8q-23 0 -31 -6.5t-8 -30.5v-891
q0 -47 6 -71.5t30.5 -41.5t64.5 -21.5t116 -4.5v-119h-359q-47 0 -57 -8.5t-10 -46.5v-23q147 0 215.5 -35.5t68.5 -119.5q0 -91 -77.5 -124.5t-264.5 -33.5q-175 0 -243 32t-68 119h264q0 -50 10.5 -67t49.5 -17q32 0 46.5 16.5t14.5 61.5q0 41 -16.5 60.5t-61.5 19.5h-39z
" />
    <glyph glyph-name="tcommaaccent" unicode="&#x163;" horiz-adv-x="950" 
d="M512 -166v100q0 23 -7 29.5t-38 7.5q-191 13 -270.5 94.5t-79.5 251.5v551q0 38 -10.5 47t-57.5 9h-76v118q129 5 195.5 30.5t93.5 75.5t37 148h287v-186q0 -38 10 -46.5t57 -8.5h244v-131h-244q-47 0 -57 -8.5t-10 -47.5v-567q0 -112 18.5 -150t77.5 -38q58 0 85.5 31
t27.5 128v93h143v-86q0 -161 -61 -229.5t-220 -78.5q-31 -1 -38 -7.5t-7 -29.5v-12q147 0 216 -35.5t69 -119.5q0 -91 -77.5 -124.5t-264.5 -33.5q-175 0 -243 32t-68 119h264q0 -51 10 -67.5t49 -16.5q33 0 47.5 16.5t14.5 61.5q0 41 -16.5 60.5t-61.5 19.5h-39z" />
    <glyph glyph-name="Tcaron" unicode="&#x164;" horiz-adv-x="1597" 
d="M328 119q76 0 116 4.5t64.5 21.5t30.5 41.5t6 71.5v891q0 24 -8 30.5t-31 6.5h-8q-59 0 -91 -9t-54 -40.5t-29 -86t-7 -151.5h-282v422h1528v-422h-283q0 98 -6.5 152.5t-29 86t-54 40t-90.5 8.5h-8q-23 0 -31 -6.5t-8 -30.5v-891q0 -47 6 -71.5t30.5 -41.5t64.5 -21.5
t116 -4.5v-119h-942v119zM1223 1628l-299 -227h-254l-295 225l100 162l273 -109q39 -16 55.5 -16.5t58.5 16.5l264 109z" />
    <glyph glyph-name="tcaron" unicode="&#x165;" horiz-adv-x="950" 
d="M897 924h-244q-47 0 -57 -8.5t-10 -47.5v-567q0 -112 18.5 -150t77.5 -38q58 0 85.5 31t27.5 128v93h143v-86q0 -124 -33.5 -190t-114.5 -95t-233 -29q-242 0 -341 82t-99 270v551q0 38 -10.5 47t-57.5 9h-76v118q129 5 195.5 30.5t93.5 75.5t37 148h287v-186
q0 -38 10 -46.5t57 -8.5h244v-131zM854 1460h8q83 0 117.5 -36.5t34.5 -127.5q0 -108 -58 -151t-221 -43v84q83 0 113.5 8t30.5 31q0 22 -50 14q-58 -8 -91 17t-33 81q0 123 149 123z" />
    <glyph glyph-name="Umacron" unicode="&#x16a;" horiz-adv-x="1638" 
d="M920 1321v-119q-80 0 -121 -4.5t-66.5 -21.5t-32 -43t-6.5 -76v-543q0 -91 7 -151.5t25 -109.5t50.5 -75.5t82 -40.5t122.5 -14q179 0 247 82t68 297v520q0 44 -2.5 71.5t-13 49t-23.5 32t-41.5 17.5t-59.5 8.5t-85 1.5v119h551v-119q-75 0 -108 -12.5t-46.5 -49
t-13.5 -118.5v-512q0 -159 -31 -263t-103.5 -167.5t-179 -89t-268.5 -25.5q-361 0 -523.5 127.5t-162.5 403.5v565q0 89 -31.5 115t-136.5 26v119h902zM1108 1425h-279q-108 0 -233 -8v213q125 -8 233 -8h279q108 0 233 8v-213q-125 8 -233 8z" />
    <glyph glyph-name="umacron" unicode="&#x16b;" horiz-adv-x="1501" 
d="M1337 1055v-797q0 -86 30.5 -112.5t117.5 -26.5v-119h-590v111q0 17 -9 17.5t-18 -13.5q-25 -38 -49 -62t-64.5 -46t-101.5 -32t-147 -10q-150 0 -229.5 35t-109.5 107.5t-30 207.5v482q0 90 -23.5 114.5t-109.5 24.5v119h602v-725q0 -91 24 -125.5t93 -34.5
q81 0 113 37.5t32 124.5v461q0 89 -21.5 116t-98.5 27v119h589zM858 1180h-278q-93 0 -234 -9v213q125 -8 234 -8h278q109 0 234 8v-213q-141 9 -234 9z" />
    <glyph glyph-name="Ubreve" unicode="&#x16c;" horiz-adv-x="1638" 
d="M920 1321v-119q-80 0 -121 -4.5t-66.5 -21.5t-32 -43t-6.5 -76v-543q0 -91 7 -151.5t25 -109.5t50.5 -75.5t82 -40.5t122.5 -14q179 0 247 82t68 297v520q0 44 -2.5 71.5t-13 49t-23.5 32t-41.5 17.5t-59.5 8.5t-85 1.5v119h551v-119q-75 0 -108 -12.5t-46.5 -49
t-13.5 -118.5v-512q0 -159 -31 -263t-103.5 -167.5t-179 -89t-268.5 -25.5q-361 0 -523.5 127.5t-162.5 403.5v565q0 89 -31.5 115t-136.5 26v119h902zM696 1782q0 -54 22 -82t81 -40.5t176 -12.5q112 0 168 12.5t77 40.5t21 82h123q0 -77 -6.5 -131t-23.5 -99.5t-45 -73.5
t-73.5 -47.5t-106.5 -27.5t-146 -8q-81 0 -140 8t-103 27.5t-72 48t-45 73.5t-23.5 99.5t-6.5 130.5h123z" />
    <glyph glyph-name="ubreve" unicode="&#x16d;" horiz-adv-x="1501" 
d="M1337 1055v-797q0 -86 30.5 -112.5t117.5 -26.5v-119h-590v111q0 17 -9 17.5t-18 -13.5q-25 -38 -49 -62t-64.5 -46t-101.5 -32t-147 -10q-150 0 -229.5 35t-109.5 107.5t-30 207.5v482q0 90 -23.5 114.5t-109.5 24.5v119h602v-725q0 -91 24 -125.5t93 -34.5
q81 0 113 37.5t32 124.5v461q0 89 -21.5 116t-98.5 27v119h589zM446 1536q0 -54 22 -82t81 -40.5t176 -12.5q112 0 168 12.5t77 40.5t21 82h123q0 -77 -6.5 -131t-23.5 -99.5t-45 -73.5t-73.5 -47.5t-106.5 -27.5t-146 -8q-121 0 -195.5 18.5t-118.5 66t-59.5 117.5
t-15.5 185h122z" />
    <glyph glyph-name="Uring" unicode="&#x16e;" horiz-adv-x="1638" 
d="M920 1321v-119q-80 0 -121 -4.5t-66.5 -21.5t-32 -43t-6.5 -76v-543q0 -91 7 -151.5t25 -109.5t50.5 -75.5t82 -40.5t122.5 -14q179 0 247 82t68 297v520q0 44 -2.5 71.5t-13 49t-23.5 32t-41.5 17.5t-59.5 8.5t-85 1.5v119h551v-119q-75 0 -108 -12.5t-46.5 -49
t-13.5 -118.5v-512q0 -159 -31 -263t-103.5 -167.5t-179 -89t-268.5 -25.5q-361 0 -523.5 127.5t-162.5 403.5v565q0 89 -31.5 115t-136.5 26v119h902zM707 1577q0 107 59.5 148.5t202.5 41.5q144 0 204 -41.5t60 -148.5t-60 -149t-204 -42q-143 0 -202.5 42t-59.5 149z
M969 1669q-53 0 -71.5 -20.5t-18.5 -71.5t18.5 -71.5t71.5 -20.5q54 0 73 20.5t19 71.5t-19 71.5t-73 20.5z" />
    <glyph glyph-name="uring" unicode="&#x16f;" horiz-adv-x="1501" 
d="M1337 1055v-797q0 -86 30.5 -112.5t117.5 -26.5v-119h-590v111q0 17 -9 17.5t-18 -13.5q-25 -38 -49 -62t-64.5 -46t-101.5 -32t-147 -10q-150 0 -229.5 35t-109.5 107.5t-30 207.5v482q0 90 -23.5 114.5t-109.5 24.5v119h602v-725q0 -91 24 -125.5t93 -34.5
q81 0 113 37.5t32 124.5v461q0 89 -21.5 116t-98.5 27v119h589zM457 1331q0 107 59.5 149t202.5 42q144 0 204 -42t60 -149t-60 -148.5t-204 -41.5q-143 0 -202.5 41.5t-59.5 148.5zM719 1423q-53 0 -71.5 -20.5t-18.5 -71.5t18.5 -71.5t71.5 -20.5q54 0 73 20.5t19 71.5
t-19 71.5t-73 20.5z" />
    <glyph glyph-name="Uhungarumlaut" unicode="&#x170;" horiz-adv-x="1638" 
d="M920 1321v-119q-80 0 -121 -4.5t-66.5 -21.5t-32 -43t-6.5 -76v-543q0 -91 7 -151.5t25 -109.5t50.5 -75.5t82 -40.5t122.5 -14q179 0 247 82t68 297v520q0 44 -2.5 71.5t-13 49t-23.5 32t-41.5 17.5t-59.5 8.5t-85 1.5v119h551v-119q-75 0 -108 -12.5t-46.5 -49
t-13.5 -118.5v-512q0 -159 -31 -263t-103.5 -167.5t-179 -89t-268.5 -25.5q-361 0 -523.5 127.5t-162.5 403.5v565q0 89 -31.5 115t-136.5 26v119h902zM702 1362l-122 135l294 367l207 -203zM1153 1362l-123 135l295 367l207 -203z" />
    <glyph glyph-name="uhungarumlaut" unicode="&#x171;" horiz-adv-x="1501" 
d="M1337 1055v-797q0 -86 30.5 -112.5t117.5 -26.5v-119h-590v111q0 17 -9 17.5t-18 -13.5q-25 -38 -49 -62t-64.5 -46t-101.5 -32t-147 -10q-150 0 -229.5 35t-109.5 107.5t-30 207.5v482q0 90 -23.5 114.5t-109.5 24.5v119h602v-725q0 -91 24 -125.5t93 -34.5
q81 0 113 37.5t32 124.5v461q0 89 -21.5 116t-98.5 27v119h589zM475 1116l-123 135l295 367l207 -203zM926 1116l-123 135l295 367l207 -203z" />
    <glyph glyph-name="Uogonek" unicode="&#x172;" horiz-adv-x="1638" 
d="M920 1321v-119q-80 0 -121 -4.5t-66.5 -21.5t-32 -43t-6.5 -76v-543q0 -91 7 -151.5t25 -109.5t50.5 -75.5t82 -40.5t122.5 -14q179 0 247 82t68 297v520q0 44 -2.5 71.5t-13 49t-23.5 32t-41.5 17.5t-59.5 8.5t-85 1.5v119h551v-119q-75 0 -108 -12.5t-46.5 -49
t-13.5 -118.5v-512q0 -207 -54.5 -323.5t-176.5 -168.5q-19 -8 -110.5 -34t-133.5 -60q-40 -33 -52 -69.5t-12 -96.5q0 -48 14 -65t48 -17q42 0 52.5 20.5t10.5 76.5h265q0 -61 -28 -95t-101 -51.5t-205 -17.5q-177 0 -250.5 32t-73.5 121q0 65 42.5 108.5t133.5 76.5
q10 4 13.5 8.5t-0.5 8t-15 3.5q-334 9 -484.5 136t-150.5 393v565q0 89 -31.5 115t-136.5 26v119h902z" />
    <glyph glyph-name="uogonek" unicode="&#x173;" horiz-adv-x="1501" 
d="M1393 -227h264q0 -61 -28 -95t-101 -51.5t-205 -17.5q-177 0 -250.5 32t-73.5 121q0 84 73.5 134.5t230.5 85.5q10 2 13.5 6.5t-1 8t-15.5 3.5h-405v111q0 17 -9 17.5t-18 -13.5q-25 -38 -49 -62t-64.5 -46t-101.5 -32t-147 -10q-150 0 -229.5 35t-109.5 107.5t-30 207.5
v482q0 90 -23.5 114.5t-109.5 24.5v119h602v-725q0 -91 24 -125.5t93 -34.5q81 0 113 37.5t32 124.5v461q0 89 -21.5 116t-98.5 27v119h589v-797q0 -86 30.5 -112.5t117.5 -26.5v-119q-61 -23 -101.5 -44.5t-63.5 -41t-34.5 -46t-14.5 -49t-3 -61.5q0 -48 13.5 -65t47.5 -17
q42 0 53 20.5t11 76.5z" />
    <glyph glyph-name="Ydieresis" unicode="&#x178;" horiz-adv-x="1552" 
d="M1008 1321h528v-119q-53 0 -80.5 -23.5t-71.5 -103.5l-303 -559q-15 -27 -18.5 -42t-3.5 -44v-172q0 -87 33.5 -113t144.5 -26v-119h-864v119q111 0 144.5 26t33.5 113v86q0 28 -4 43t-19 43l-360 647q-25 45 -36 62.5t-29 35.5t-36.5 22.5t-48.5 4.5v119h850v-119
q-99 0 -146 -17.5t-48.5 -51t22.5 -80.5l232 -439q21 -42 41 0l205 381q38 72 38 129q0 51 -42.5 64.5t-161.5 13.5v119zM690 1704h12q170 0 170 -152q0 -77 -44.5 -115t-125.5 -38h-12q-81 0 -126.5 38t-45.5 115q0 152 172 152zM1155 1704h12q170 0 170 -152
q0 -77 -44.5 -115t-125.5 -38h-12q-81 0 -126.5 38t-45.5 115q0 152 172 152z" />
    <glyph glyph-name="Zacute" unicode="&#x179;" horiz-adv-x="1372" 
d="M84 1321h1206v-117q0 -38 -10.5 -65t-44.5 -74l-637 -885q-15 -19 -12 -33t28 -14h195q56 0 89 3t64.5 15.5t46.5 33.5t27 60t15.5 91.5t3.5 132.5h266v-469h-1274v117q0 40 10 67.5t43 71.5l652 887q14 17 10.5 32t-29.5 15h-139q-55 0 -88.5 -3t-64 -14.5t-46.5 -29.5
t-27.5 -52t-15.5 -79t-4 -113h-264v422zM528 1386l-61 166l553 287l121 -319z" />
    <glyph glyph-name="zacute" unicode="&#x17a;" horiz-adv-x="1216" 
d="M74 1055h1081v-140q0 -32 -11.5 -55.5t-41.5 -56.5l-555 -633q-15 -14 -12 -27.5t26 -13.5h170q78 0 123.5 10t73.5 38t37.5 71t9.5 117h209v-365h-1141v139q0 32 11.5 56t41.5 57l568 637q14 13 11 27t-26 14h-125q-77 0 -121 -9t-73 -36.5t-39 -73t-10 -123.5h-207v367
zM440 1141l-61 166l553 286l121 -319z" />
    <glyph glyph-name="Zdotaccent" unicode="&#x17b;" horiz-adv-x="1372" 
d="M84 1321h1206v-117q0 -38 -10.5 -65t-44.5 -74l-637 -885q-15 -19 -12 -33t28 -14h195q56 0 89 3t64.5 15.5t46.5 33.5t27 60t15.5 91.5t3.5 132.5h266v-469h-1274v117q0 40 10 67.5t43 71.5l652 887q14 17 10.5 32t-29.5 15h-139q-55 0 -88.5 -3t-64 -14.5t-46.5 -29.5
t-27.5 -52t-15.5 -79t-4 -113h-264v422zM690 1714h17q198 0 198 -158q0 -157 -198 -157h-17q-198 0 -198 157q0 158 198 158z" />
    <glyph glyph-name="zdotaccent" unicode="&#x17c;" horiz-adv-x="1216" 
d="M74 1055h1081v-140q0 -32 -11.5 -55.5t-41.5 -56.5l-555 -633q-15 -14 -12 -27.5t26 -13.5h170q78 0 123.5 10t73.5 38t37.5 71t9.5 117h209v-365h-1141v139q0 32 11.5 56t41.5 57l568 637q14 13 11 27t-26 14h-125q-77 0 -121 -9t-73 -36.5t-39 -73t-10 -123.5h-207v367
zM623 1468h16q199 0 199 -157q0 -158 -199 -158h-16q-199 0 -199 158q0 157 199 157z" />
    <glyph glyph-name="Zcaron" unicode="&#x17d;" horiz-adv-x="1372" 
d="M84 1321h1206v-117q0 -38 -10.5 -65t-44.5 -74l-637 -885q-15 -19 -12 -33t28 -14h195q56 0 89 3t64.5 15.5t46.5 33.5t27 60t15.5 91.5t3.5 132.5h266v-469h-1274v117q0 40 10 67.5t43 71.5l652 887q14 17 10.5 32t-29.5 15h-139q-55 0 -88.5 -3t-64 -14.5t-46.5 -29.5
t-27.5 -52t-15.5 -79t-4 -113h-264v422zM1122 1628l-299 -227h-254l-295 225l101 162l272 -109q39 -16 56 -16.5t59 16.5l264 109z" />
    <glyph glyph-name="zcaron" unicode="&#x17e;" horiz-adv-x="1216" 
d="M74 1055h1081v-140q0 -32 -11.5 -55.5t-41.5 -56.5l-555 -633q-15 -14 -12 -27.5t26 -13.5h170q78 0 123.5 10t73.5 38t37.5 71t9.5 117h209v-365h-1141v139q0 32 11.5 56t41.5 57l568 637q14 13 11 27t-26 14h-125q-77 0 -121 -9t-73 -36.5t-39 -73t-10 -123.5h-207v367
zM1059 1382l-299 -227h-254l-295 225l100 162l273 -108q39 -16 55.5 -16.5t58.5 16.5l265 108z" />
    <glyph glyph-name="uni0192" unicode="&#x192;" horiz-adv-x="1095" 
d="M553 -356h-451l138 921q3 18 -3 24.5t-24 6.5h-147v131h165q18 0 26 6t11 23l49 327q25 165 140.5 235.5t373.5 70.5q153 0 238.5 -27.5t113.5 -79.5t15 -137h-336q12 79 5 104t-33 25q-30 0 -42.5 -26.5t-25.5 -123.5l-53 -368q-3 -18 2.5 -23.5t23.5 -5.5h215v-131
h-231q-18 0 -26 -6t-11 -23z" />
    <glyph glyph-name="uni0218" unicode="&#x218;" horiz-adv-x="1441" 
d="M1352 1008h-445q0 132 -42.5 179.5t-151.5 47.5q-104 0 -146.5 -42.5t-42.5 -123.5q0 -50 9.5 -81t35 -49.5t56.5 -27.5t86 -16l200 -29q84 -12 141.5 -24t117 -33t97 -50.5t68 -72.5t44.5 -104t14 -140q0 -143 -40.5 -236.5t-129 -146.5t-208 -73.5t-298.5 -20.5
q-195 0 -324 21t-208.5 69t-112.5 120.5t-33 182.5h457q0 -88 11 -141t40 -82.5t68 -39t106 -9.5q119 0 167 41t48 131q0 100 -41.5 141.5t-171.5 61.5l-193 28q-126 19 -205 43.5t-139 70t-86 116t-26 176.5q0 133 38 222t121 142t199 75t285 22q184 0 309 -22t196 -68
t100.5 -108t29.5 -150zM709 -82h8q83 0 117 -36.5t34 -127.5q0 -108 -57.5 -151t-220.5 -43v84q83 0 113 8t30 31q0 22 -49 14q-58 -8 -91.5 17t-33.5 81q0 65 41 94t109 29z" />
    <glyph glyph-name="uni0219" unicode="&#x219;" horiz-adv-x="1296" 
d="M1206 809h-409q0 95 -34.5 133.5t-115.5 38.5q-88 0 -120.5 -29t-32.5 -90q0 -68 33.5 -96t134.5 -37l165 -16q88 -9 148.5 -21.5t116 -38t87.5 -63.5t51 -97t19 -139q0 -93 -24.5 -160t-71 -111.5t-123 -70.5t-170 -36.5t-223.5 -10.5q-229 0 -357 31.5t-181.5 98
t-53.5 184.5h428q0 -67 10 -108t34.5 -62t55 -28t82.5 -7q104 0 139 26.5t35 98.5q0 78 -35.5 111t-150.5 44l-162 17q-108 11 -180 32.5t-124 61.5t-75.5 102t-23.5 152q0 107 35 179t109.5 114.5t178 60t254.5 17.5q136 0 234 -12.5t159 -34.5t96.5 -58.5t48.5 -77.5
t13 -98zM647 -82h8q83 0 117.5 -36.5t34.5 -127.5q0 -108 -58 -151t-221 -43v84q83 0 113.5 8t30.5 31q0 22 -49 14q-58 -8 -91.5 17t-33.5 81q0 123 149 123z" />
    <glyph glyph-name="uni021A" unicode="&#x21a;" horiz-adv-x="1597" 
d="M328 119q76 0 116 4.5t64.5 21.5t30.5 41.5t6 71.5v891q0 24 -8 30.5t-31 6.5h-8q-59 0 -91 -9t-54 -40.5t-29 -86t-7 -151.5h-282v422h1528v-422h-283q0 98 -6.5 152.5t-29 86t-54 40t-90.5 8.5h-8q-23 0 -31 -6.5t-8 -30.5v-891q0 -47 6 -71.5t30.5 -41.5t64.5 -21.5
t116 -4.5v-119h-942v119zM797 -82h8q83 0 117 -36.5t34 -127.5q0 -108 -57.5 -151t-220.5 -43v84q83 0 113 8t30 31q0 22 -49 14q-58 -8 -91.5 17t-33.5 81q0 65 41 94t109 29z" />
    <glyph glyph-name="uni021B" unicode="&#x21b;" horiz-adv-x="950" 
d="M897 924h-244q-47 0 -57 -8.5t-10 -47.5v-567q0 -112 18.5 -150t77.5 -38q58 0 85.5 31t27.5 128v93h143v-86q0 -124 -33.5 -190t-114.5 -95t-233 -29q-242 0 -341 82t-99 270v551q0 38 -10.5 47t-57.5 9h-76v118q129 5 195.5 30.5t93.5 75.5t37 148h287v-186
q0 -38 10 -46.5t57 -8.5h244v-131zM557 -82h8q83 0 117.5 -36.5t34.5 -127.5q0 -108 -58 -151t-221 -43v84q83 0 113.5 8t30.5 31q0 22 -50 14q-58 -8 -91 17t-33 81q0 123 149 123z" />
    <glyph glyph-name="uni0237" unicode="&#x237;" horiz-adv-x="724" 
d="M-4 1063q160 -16 364 -16q165 0 263 16v-1071q0 -123 -50 -197.5t-168.5 -112.5t-320.5 -38q-182 0 -282 28t-141.5 88t-41.5 168h426q0 -111 9 -141.5t42 -30.5q34 0 46 28.5t12 125.5v878q0 87 -35 120t-123 36v119z" />
    <glyph glyph-name="circumflex" unicode="&#x2c6;" 
d="M274 1296l299 228h254l295 -226l-100 -161l-272 108q-39 16 -56 16.5t-59 -16.5l-264 -108z" />
    <glyph glyph-name="caron" unicode="&#x2c7;" 
d="M1122 1382l-299 -227h-254l-295 225l101 162l272 -108q39 -16 56 -16.5t59 16.5l264 108z" />
    <glyph glyph-name="breve" unicode="&#x2d8;" 
d="M426 1536q0 -54 22 -82t81 -40.5t176 -12.5q112 0 168 12.5t77 40.5t21 82h123q0 -77 -6.5 -131t-23.5 -99.5t-45.5 -73.5t-74 -47.5t-106.5 -27.5t-146 -8q-121 0 -195.5 18.5t-118.5 66t-59.5 117.5t-15.5 185h123z" />
    <glyph glyph-name="dotaccent" unicode="&#x2d9;" 
d="M690 1468h17q198 0 198 -157q0 -158 -198 -158h-17q-198 0 -198 158q0 157 198 157z" />
    <glyph glyph-name="ring" unicode="&#x2da;" 
d="M436 1331q0 107 59.5 149t202.5 42q144 0 204.5 -42t60.5 -149t-60.5 -148.5t-204.5 -41.5q-143 0 -202.5 41.5t-59.5 148.5zM698 1423q-53 0 -71.5 -20.5t-18.5 -71.5t18.5 -71.5t71.5 -20.5q54 0 73.5 20.5t19.5 71.5t-19.5 71.5t-73.5 20.5z" />
    <glyph glyph-name="ogonek" unicode="&#x2db;" 
d="M928 4q-53 -19 -91.5 -37t-63.5 -37t-39.5 -36t-22 -40.5t-9.5 -43.5t-2 -52q0 -48 14 -65t48 -17q42 0 52.5 20.5t10.5 76.5h265q0 -61 -28 -95t-101 -51.5t-205 -17.5q-177 0 -250.5 32t-73.5 121q0 97 98 149.5t312 92.5h86z" />
    <glyph glyph-name="tilde" unicode="&#x2dc;" 
d="M283 1174q0 185 52.5 257t178.5 72q86 0 209 -49l41 -16q101 -41 154 -41q45 0 62 17.5t17 74.5h119q0 -186 -52.5 -258t-178.5 -72q-86 0 -209 49l-41 17q-101 41 -154 41q-46 0 -63 -17.5t-17 -74.5h-118z" />
    <glyph glyph-name="hungarumlaut" unicode="&#x2dd;" 
d="M444 1116l-122 135l294 367l207 -203zM895 1116l-123 135l295 367l207 -203z" />
    <glyph glyph-name="endash" unicode="&#x2013;" horiz-adv-x="1024" 
d="M739 461h-454q-109 0 -234 -8v206q125 -8 234 -8h454q109 0 234 8v-206q-125 8 -234 8z" />
    <glyph glyph-name="emdash" unicode="&#x2014;" horiz-adv-x="2048" 
d="M1763 461h-1478q-109 0 -234 -8v206q125 -8 234 -8h1478q109 0 234 8v-206q-125 8 -234 8z" />
    <glyph glyph-name="quoteleft" unicode="&#x2018;" horiz-adv-x="559" 
d="M303 664h-10q-121 0 -177.5 61.5t-56.5 206.5q0 229 92 325.5t324 96.5v-107q-126 -3 -189 -39t-63 -121q0 -43 21 -54t75 1q105 21 155 -26t50 -148q0 -103 -60.5 -149.5t-160.5 -46.5z" />
    <glyph glyph-name="quoteright" unicode="&#x2019;" horiz-adv-x="559" 
d="M258 1346h10q120 0 177 -61.5t57 -207.5q0 -114 -20 -191t-68.5 -130t-130 -77t-203.5 -24v107q128 0 193 36t65 124q0 43 -21 54t-75 -1q-105 -21 -155 26t-50 148q0 103 60.5 150t160.5 47z" />
    <glyph glyph-name="quotesinglbase" unicode="&#x201a;" horiz-adv-x="559" 
d="M272 401h11q120 0 176.5 -61t56.5 -207q0 -114 -20 -191t-68.5 -130t-130 -77t-203.5 -24v107q128 0 193 35.5t65 123.5q0 43 -21 54t-75 0q-105 -21 -155 26t-50 148q0 103 60.5 149.5t160.5 46.5z" />
    <glyph glyph-name="quotedblleft" unicode="&#x201c;" horiz-adv-x="1073" 
d="M303 664h-10q-121 0 -177.5 61.5t-56.5 206.5q0 229 92 325.5t324 96.5v-107q-126 -3 -189 -39t-63 -121q0 -43 21 -54t75 1q105 21 155 -26t50 -148q0 -103 -60.5 -149.5t-160.5 -46.5zM817 664h-10q-121 0 -177.5 61.5t-56.5 206.5q0 229 92 325.5t324 96.5v-107
q-126 -3 -189 -39t-63 -121q0 -43 21.5 -54t75.5 1q105 21 154.5 -26t49.5 -148q0 -103 -60.5 -149.5t-160.5 -46.5z" />
    <glyph glyph-name="quotedblright" unicode="&#x201d;" horiz-adv-x="1073" 
d="M258 1346h10q120 0 177 -61.5t57 -207.5q0 -114 -20 -191t-68.5 -130t-130 -77t-203.5 -24v107q128 0 193 36t65 124q0 43 -21 54t-75 -1q-105 -21 -155 26t-50 148q0 103 60.5 150t160.5 47zM772 1346h10q120 0 177 -61.5t57 -207.5q0 -114 -20 -191t-68.5 -130
t-130 -77t-203.5 -24v107q128 0 193 36t65 124q0 43 -21 54t-75 -1q-105 -21 -155 26t-50 148q0 103 60.5 150t160.5 47z" />
    <glyph glyph-name="quotedblbase" unicode="&#x201e;" horiz-adv-x="1073" 
d="M272 401h11q120 0 176.5 -61t56.5 -207q0 -114 -20 -191t-68.5 -130t-130 -77t-203.5 -24v107q128 0 193 35.5t65 123.5q0 43 -21 54t-75 0q-105 -21 -155 26t-50 148q0 103 60.5 149.5t160.5 46.5zM786 401h11q120 0 176.5 -61t56.5 -207q0 -114 -20 -191t-68.5 -130
t-130 -77t-203.5 -24v107q128 0 193 35.5t65 123.5q0 43 -21 54t-75 0q-105 -21 -155 26t-50 148q0 103 60.5 149.5t160.5 46.5z" />
    <glyph glyph-name="dagger" unicode="&#x2020;" horiz-adv-x="1032" 
d="M606 -322h-180v1065q0 23 -7 29t-36 6h-113q-108 0 -233 -8v166q125 -8 233 -8h111q29 0 36 6t7 29q-4 166 -21 358h226q-18 -132 -23 -358q0 -23 7 -29t36 -6h113q108 0 233 8v-166q-125 8 -233 8h-113q-29 0 -36 -6t-7 -29v-1065z" />
    <glyph glyph-name="daggerdbl" unicode="&#x2021;" horiz-adv-x="1032" 
d="M762 74h-113q-29 0 -36 -6t-7 -29q5 -229 23 -361h-226q20 222 23 361q0 23 -7 29t-36 6h-113q-108 0 -233 -8v165q125 -8 233 -8h113q29 0 36 6t7 29v485q0 23 -7 29t-36 6h-113q-108 0 -233 -8v166q125 -8 233 -8h111q29 0 36 6t7 29q-4 166 -21 358h226
q-18 -132 -23 -358q0 -23 7 -29t36 -6h113q108 0 233 8v-166q-125 8 -233 8h-113q-29 0 -36 -6t-7 -29v-485q0 -23 7 -29t36 -6h113q108 0 233 8v-165q-125 8 -233 8z" />
    <glyph glyph-name="bullet" unicode="&#x2022;" horiz-adv-x="892" 
d="M457 250h-21q-381 0 -381 348t381 348h21q381 0 381 -348t-381 -348z" />
    <glyph glyph-name="ellipsis" unicode="&#x2026;" horiz-adv-x="1720" 
d="M293 -25h-12q-244 0 -244 220q0 219 244 219h12q244 0 244 -219q0 -220 -244 -220zM1440 -25h-13q-243 0 -243 220q0 219 243 219h13q243 0 243 -219q0 -220 -243 -220zM866 -25h-12q-244 0 -244 220q0 219 244 219h12q244 0 244 -219q0 -220 -244 -220z" />
    <glyph glyph-name="perthousand" unicode="&#x2030;" horiz-adv-x="2922" 
d="M457 1356q191 0 282 -56q131 -80 131 -325q0 -248 -131 -328q-90 -55 -282 -55q-193 0 -283 55q-131 80 -131 328q0 245 131 325q91 56 283 56zM457 1241q-40 0 -54 -33q-16 -46 -16 -233q0 -190 16 -236q8 -18 19.5 -25t34.5 -7t34 7t19 25q16 46 16 236q0 187 -16 233
q-14 33 -53 33zM1581 729q193 0 283 -55q131 -80 131 -326q0 -248 -131 -328q-90 -55 -283 -55t-283 55q-131 80 -131 328q0 246 131 326q90 55 283 55zM1581 614q-23 0 -34 -7t-19 -25q-17 -49 -17 -234q0 -186 17 -235q14 -33 53 -33t53 33q17 49 17 235q0 185 -17 234
q-8 18 -19 25t-34 7zM2466 729q192 0 282 -55q131 -80 131 -326q0 -248 -131 -328q-90 -55 -282 -55q-193 0 -283 55q-131 80 -131 328q0 246 131 326q90 55 283 55zM2466 614q-23 0 -34 -7t-19 -25q-17 -49 -17 -234q0 -186 17 -235q14 -33 53 -33t53 33q16 46 16 235
q0 188 -16 234q-8 18 -19 25t-34 7zM487 -18l754 1357h311l-753 -1357h-312z" />
    <glyph glyph-name="guilsinglleft" unicode="&#x2039;" horiz-adv-x="606" 
d="M571 877l-165 -320q-10 -22 -10 -33.5t10 -34.5l165 -321h-292l-230 260q-31 36 -31 74v45q0 38 31 74l230 256h292z" />
    <glyph glyph-name="guilsinglright" unicode="&#x203a;" horiz-adv-x="606" 
d="M201 557l-166 320h293l229 -256q31 -36 31 -74v-45q0 -38 -31 -74l-229 -260h-293l166 321q11 23 11 34.5t-11 33.5z" />
    <glyph glyph-name="fraction" unicode="&#x2044;" horiz-adv-x="544" 
d="M-207 -18l672 1357h287l-672 -1357h-287z" />
    <glyph glyph-name="uni2074" unicode="&#x2074;" horiz-adv-x="921" 
d="M424 707v4q0 17 -6.5 22.5t-24.5 5.5h-375v92q0 35 5.5 53.5t29.5 51.5l264 352q19 26 38 35.5t55 9.5h354v-446q0 -17 6.5 -23t24.5 -6q50 0 84 10v-129h-84q-18 0 -24.5 -5.5t-6.5 -22.5v-2q0 -27 20.5 -39.5t75.5 -12.5v-92h-526v92q52 0 71 11.5t19 38.5zM424 1192
q0 12 -9.5 12.5t-15.5 -8.5l-233 -305q-10 -12 -7 -22.5t21 -10.5h213q18 0 24.5 6t6.5 23v305z" />
    <glyph glyph-name="Euro" unicode="&#x20ac;" horiz-adv-x="1458" 
d="M688 465h-31q-23 0 -30 -6.5t-6 -26.5q11 -201 45 -270q20 -38 52.5 -57t92.5 -19q112 0 147 70t35 262h420q0 -131 -37 -219t-116 -139.5t-188.5 -73t-268.5 -21.5q-317 0 -457 98q-86 61 -134.5 161.5t-64.5 209.5q-3 18 -9 23.5t-27 5.5q-37 0 -107 -6v133
q61 -6 94 -6q22 0 27.5 5.5t3.5 24.5q-3 53 0 111q2 20 -4.5 26t-28.5 5l-92 -6v133q55 -6 109 -6q21 0 27.5 5t9.5 23q48 247 196 352q141 99 455 99q137 0 237.5 -15.5t168.5 -45t108.5 -77.5t58 -108t17.5 -141h-412q0 155 -33 210.5t-137 55.5q-60 0 -91 -19t-54 -59
q-31 -56 -43 -250q-1 -20 6 -26.5t30 -6.5h31q93 0 234 9v-133q-125 8 -234 8h-35q-23 0 -29 -6t-8 -27q-3 -57 0 -111q2 -21 8 -26.5t29 -5.5h35q109 0 234 8v-133q-125 8 -234 8z" />
    <glyph glyph-name="trademark" unicode="&#x2122;" horiz-adv-x="1959" 
d="M35 1321h801v-250h-160q0 72 -7 105.5t-19.5 42t-39.5 8.5h-8q-16 0 -21.5 -6.5t-5.5 -22.5v-328q0 -54 20.5 -72t86.5 -18v-84h-494v84q66 0 86.5 18t20.5 72v328q0 16 -5.5 22.5t-21.5 6.5h-8q-27 0 -39.5 -8.5t-19 -42t-6.5 -105.5h-160v250zM872 1321h398
q27 0 35.5 -6t11.5 -27l65 -438q3 -20 11.5 -19.5t11.5 19.5l63 438q3 21 12 27t33 6h402v-84q-45 0 -59.5 -14.5t-14.5 -59.5v-309q0 -45 15 -59.5t59 -14.5v-84h-395v84q35 0 48 16t13 60v346q0 22 -12 22t-15 -20l-69 -475q-3 -20 -13 -26.5t-36 -6.5h-234q-27 0 -36.5 6
t-12.5 27l-76 475q-2 13 -8.5 17.5t-12 -1t-5.5 -18.5v-328q0 -57 13.5 -75.5t49.5 -18.5v-84h-242v84q45 0 59.5 17t14.5 77v289q0 45 -14.5 59.5t-59.5 14.5v84z" />
    <glyph glyph-name="uni2153" unicode="&#x2153;" horiz-adv-x="1935" 
d="M414 -18l671 1357h287l-672 -1357h-286zM535 1333v-573q0 -60 19.5 -79t76.5 -19v-97h-576v97q83 0 108 20t25 80v395q0 32 -32 12l-86 -51q-19 -12 -41 -12h-6v113l131 81q31 19 51.5 26t56.5 7h273zM1440 551h-328q0 142 79.5 191t295.5 49q112 0 186.5 -13t115 -39.5
t57 -61.5t16.5 -85q0 -149 -152 -172q-19 -3 -19.5 -14.5t19.5 -14.5q90 -16 132 -57t42 -129q0 -57 -17.5 -96t-61.5 -69.5t-126 -45t-206 -14.5q-113 0 -182.5 11.5t-117.5 43t-67 85t-19 140.5h334q0 -83 5 -121.5t16.5 -50.5t36.5 -12q22 0 32.5 9.5t15.5 41.5t5 102
q0 90 -16 111.5t-86 21.5q-76 0 -138 -10v115q52 -10 140 -10q55 0 67 16t12 88q0 60 -4 89.5t-10.5 36.5t-19.5 7q-15 0 -22 -7.5t-11 -38.5t-4 -97z" />
    <glyph glyph-name="minus" unicode="&#x2212;" horiz-adv-x="1126" 
d="M1014 776v-225h-901v225h901z" />
    <glyph glyph-name="f.alt" horiz-adv-x="909" 
d="M877 924h-175q-47 0 -57 -8.5t-10 -47.5v-606q0 -50 8 -78t32.5 -42.5t55 -18.5t90.5 -4v-119h-792v119q79 0 108 27t29 112v610q0 38 -10.5 47t-57.5 9h-94v131h94q46 0 57 8.5t11 38.5v8q0 153 115.5 217t363.5 64q114 0 188.5 -15t116.5 -48t58 -77.5t16 -111.5h-313
q0 86 -7.5 111.5t-29.5 25.5q-15 0 -22 -7.5t-12 -41t-5 -101.5v-20q0 -35 10.5 -43t56.5 -8h175v-131z" />
    <glyph glyph-name="i.dot" horiz-adv-x="800" 
d="M362 1434h66q109 0 168 -39t59 -131t-59 -131t-168 -39h-66q-109 0 -168 39t-59 131t59 131t168 39zM784 119v-119h-764v119q86 0 117 27t31 112v530q0 87 -35 120t-123 36v119q160 -16 365 -16q164 0 262 16v-805q0 -86 30 -112.5t117 -26.5z" />
    <glyph glyph-name="uni00200326" 
d="M702 -82h9q83 0 117 -36.5t34 -127.5q0 -108 -57.5 -151t-220.5 -43v84q83 0 113 8t30 31q0 22 -49 14q-58 -8 -91.5 17t-33.5 81q0 123 149 123z" />
    <glyph glyph-name="one.alt" horiz-adv-x="966" 
d="M788 1321v-1069q0 -88 30 -113.5t134 -25.5v-113h-882v113q78 0 119.5 4.5t68 20.5t34 41.5t7.5 72.5v858q0 14 -9.5 16t-21.5 -8l-192 -139q-14 -12 -37 -12h-16v145l225 164q37 28 66.5 36.5t86.5 8.5h387z" />
    <glyph glyph-name="four.alt" horiz-adv-x="1376" 
d="M653 229v19q0 22 -8 28.5t-31 6.5h-598v120q0 39 9.5 66.5t40.5 77.5l460 725q20 31 35.5 40t56.5 9h525v-856q0 -22 8 -28.5t31 -6.5q98 0 166 16v-163h-166q-23 0 -31 -6.5t-8 -28.5v-19q0 -69 35 -92.5t143 -23.5v-113h-846v113q108 0 143 23.5t35 92.5zM625 1139
l-418 -662q-13 -22 -10 -34.5t28 -12.5h389q23 0 31 6.5t8 28.5v670q0 15 -10.5 15.5t-17.5 -11.5z" />
    </font>
</defs>
</svg>
